Open453-Normal.ufo
<glyph name="one" format="1">
  <advance width="798"/>
  <unicode hex="0031"/>
  <outline>
    <contour>
      <point x="659" y="1065" type="line" smooth="yes"/>
      <point x="647" y="1065"/>
      <point x="551" y="1059"/>
      <point x="541" y="1059" type="curve" smooth="yes"/>
      <point x="98" y="1059" type="line"/>
      <point x="86" y="1053"/>
      <point x="84" y="1034"/>
      <point x="84" y="1020" type="curve" smooth="yes"/>
      <point x="84" y="1002"/>
      <point x="86" y="971"/>
      <point x="113" y="969" type="curve" smooth="yes"/>
      <point x="217" y="954" type="line" smooth="yes"/>
      <point x="219" y="952"/>
      <point x="250" y="923"/>
      <point x="260" y="911" type="curve" smooth="yes"/>
      <point x="270" y="899"/>
      <point x="279" y="872"/>
      <point x="281" y="856" type="curve" smooth="yes"/>
      <point x="283" y="840"/>
      <point x="287" y="786"/>
      <point x="287" y="778" type="curve" smooth="yes"/>
      <point x="287" y="188" type="line" smooth="yes"/>
      <point x="287" y="186"/>
      <point x="283" y="162"/>
      <point x="281" y="154" type="curve" smooth="yes"/>
      <point x="261" y="82"/>
      <point x="230" y="55"/>
      <point x="154" y="49" type="curve" smooth="yes"/>
      <point x="103" y="45"/>
      <point x="82" y="55"/>
      <point x="82" y="-6" type="curve" smooth="yes"/>
      <point x="82" y="-31"/>
      <point x="96" y="-55"/>
      <point x="127" y="-55" type="curve" smooth="yes"/>
      <point x="137" y="-55"/>
      <point x="193" y="-51"/>
      <point x="203" y="-49" type="curve"/>
      <point x="709" y="-49" type="line"/>
      <point x="709" y="35" type="line" smooth="yes"/>
      <point x="709" y="70"/>
      <point x="518" y="10"/>
      <point x="504" y="168" type="curve" smooth="yes"/>
      <point x="502" y="191"/>
      <point x="498" y="285"/>
      <point x="498" y="301" type="curve" smooth="yes"/>
      <point x="498" y="856" type="line" smooth="yes"/>
      <point x="498" y="926"/>
      <point x="565" y="969"/>
      <point x="631" y="975" type="curve" smooth="yes"/>
      <point x="680" y="975" type="line" smooth="yes"/>
      <point x="684" y="975"/>
      <point x="692" y="981"/>
      <point x="694" y="981" type="curve" smooth="yes"/>
      <point x="702" y="993"/>
      <point x="702" y="1014"/>
      <point x="702" y="1028" type="curve" smooth="yes"/>
      <point x="702" y="1059"/>
      <point x="699" y="1059"/>
      <point x="666" y="1065" type="curve"/>
    </contour>
  </outline>
</glyph>
<glyph name="two" format="1">
  <advance width="1087"/>
  <unicode hex="0032"/>
  <outline>
    <contour>
      <point x="481" y="1094" type="line"/>
      <point x="450" y="1082"/>
      <point x="420" y="1083"/>
      <point x="389" y="1073" type="curve" smooth="yes"/>
      <point x="328" y="1053"/>
      <point x="270" y="1014"/>
      <point x="221" y="975" type="curve" smooth="yes"/>
      <point x="215" y="971"/>
      <point x="170" y="924"/>
      <point x="166" y="920" type="curve" smooth="yes"/>
      <point x="150" y="906"/>
      <point x="129" y="902"/>
      <point x="129" y="877" type="curve" smooth="yes"/>
      <point x="129" y="844"/>
      <point x="159" y="819"/>
      <point x="190" y="819" type="curve" smooth="yes"/>
      <point x="192" y="819"/>
      <point x="199" y="821"/>
      <point x="201" y="821" type="curve" smooth="yes"/>
      <point x="203" y="821"/>
      <point x="219" y="834"/>
      <point x="221" y="834" type="curve" smooth="yes"/>
      <point x="250" y="850"/>
      <point x="334" y="895"/>
      <point x="340" y="897" type="curve" smooth="yes"/>
      <point x="379" y="915"/>
      <point x="430" y="920"/>
      <point x="473" y="920" type="curve" smooth="yes"/>
      <point x="536" y="920"/>
      <point x="586" y="901"/>
      <point x="635" y="862" type="curve" smooth="yes"/>
      <point x="655" y="846"/>
      <point x="688" y="815"/>
      <point x="698" y="784" type="curve" smooth="yes"/>
      <point x="708" y="755"/>
      <point x="707" y="748"/>
      <point x="707" y="713" type="curve" smooth="yes"/>
      <point x="707" y="647"/>
      <point x="686" y="583"/>
      <point x="641" y="532" type="curve" smooth="yes"/>
      <point x="621" y="507"/>
      <point x="517" y="396"/>
      <point x="494" y="371" type="curve"/>
      <point x="467" y="355"/>
      <point x="443" y="329"/>
      <point x="418" y="309" type="curve" smooth="yes"/>
      <point x="395" y="291"/>
      <point x="315" y="225"/>
      <point x="305" y="217" type="curve" smooth="yes"/>
      <point x="239" y="166"/>
      <point x="175" y="114"/>
      <point x="109" y="63" type="curve" smooth="yes"/>
      <point x="80" y="35" type="line" smooth="yes"/>
      <point x="70" y="23"/>
      <point x="72" y="8"/>
      <point x="72" y="-8" type="curve" smooth="yes"/>
      <point x="72" y="-14"/>
      <point x="74" y="-27"/>
      <point x="74" y="-29" type="curve" smooth="yes"/>
      <point x="88" y="-43" type="line" smooth="yes"/>
      <point x="90" y="-45"/>
      <point x="305" y="-49"/>
      <point x="397" y="-49" type="curve" smooth="yes"/>
      <point x="544" y="-49"/>
      <point x="899" y="-45"/>
      <point x="901" y="-43" type="curve" smooth="yes"/>
      <point x="909" y="-35" type="line"/>
      <point x="917" y="-8"/>
      <point x="961" y="120"/>
      <point x="971" y="147" type="curve" smooth="yes"/>
      <point x="977" y="161"/>
      <point x="1006" y="226"/>
      <point x="1014" y="238" type="curve"/>
      <point x="1014" y="256" type="line" smooth="yes"/>
      <point x="1014" y="256"/>
      <point x="1018" y="281"/>
      <point x="1006" y="281" type="curve" smooth="yes"/>
      <point x="936" y="281" type="line" smooth="yes"/>
      <point x="936" y="281"/>
      <point x="932" y="274"/>
      <point x="930" y="272" type="curve" smooth="yes"/>
      <point x="926" y="270"/>
      <point x="917" y="254"/>
      <point x="915" y="252" type="curve" smooth="yes"/>
      <point x="913" y="246"/>
      <point x="891" y="201"/>
      <point x="887" y="197" type="curve" smooth="yes"/>
      <point x="873" y="174"/>
      <point x="842" y="157"/>
      <point x="817" y="147" type="curve"/>
      <point x="794" y="143"/>
      <point x="687" y="135"/>
      <point x="664" y="133" type="curve" smooth="yes"/>
      <point x="580" y="133" type="line" smooth="yes"/>
      <point x="572" y="133"/>
      <point x="510" y="127"/>
      <point x="502" y="127" type="curve" smooth="yes"/>
      <point x="490" y="127"/>
      <point x="409" y="131"/>
      <point x="389" y="133" type="curve" smooth="yes"/>
      <point x="385" y="133"/>
      <point x="364" y="139"/>
      <point x="360" y="139" type="curve"/>
      <point x="360" y="147" type="line" smooth="yes"/>
      <point x="360" y="157"/>
      <point x="463" y="221"/>
      <point x="467" y="223" type="curve" smooth="yes"/>
      <point x="510" y="254"/>
      <point x="551" y="291"/>
      <point x="592" y="322" type="curve" smooth="yes"/>
      <point x="596" y="326"/>
      <point x="610" y="334"/>
      <point x="614" y="336" type="curve" smooth="yes"/>
      <point x="817" y="518" type="line" smooth="yes"/>
      <point x="862" y="559"/>
      <point x="889" y="625"/>
      <point x="909" y="680" type="curve" smooth="yes"/>
      <point x="915" y="700"/>
      <point x="915" y="725"/>
      <point x="915" y="748" type="curve" smooth="yes"/>
      <point x="915" y="803"/>
      <point x="897" y="873"/>
      <point x="866" y="920" type="curve" smooth="yes"/>
      <point x="792" y="1029"/>
      <point x="668" y="1096"/>
      <point x="537" y="1096" type="curve" smooth="yes"/>
    </contour>
  </outline>
</glyph>
<glyph name="three" format="1">
  <advance width="978"/>
  <unicode hex="0033"/>
  <outline>
    <contour>
      <point x="449" y="1094" type="line" smooth="yes"/>
      <point x="439" y="1094"/>
      <point x="370" y="1083"/>
      <point x="350" y="1079" type="curve" smooth="yes"/>
      <point x="346" y="1079"/>
      <point x="332" y="1075"/>
      <point x="330" y="1073" type="curve" smooth="yes"/>
      <point x="223" y="1004" type="line"/>
      <point x="194" y="981"/>
      <point x="104" y="915"/>
      <point x="104" y="870" type="curve" smooth="yes"/>
      <point x="104" y="858"/>
      <point x="123" y="827"/>
      <point x="133" y="821" type="curve" smooth="yes"/>
      <point x="145" y="811"/>
      <point x="164" y="799"/>
      <point x="182" y="799" type="curve" smooth="yes"/>
      <point x="192" y="799"/>
      <point x="195" y="801"/>
      <point x="203" y="813" type="curve" smooth="yes"/>
      <point x="223" y="842"/>
      <point x="227" y="836"/>
      <point x="252" y="856" type="curve" smooth="yes"/>
      <point x="256" y="858"/>
      <point x="277" y="881"/>
      <point x="281" y="883" type="curve" smooth="yes"/>
      <point x="291" y="889"/>
      <point x="334" y="909"/>
      <point x="344" y="911" type="curve" smooth="yes"/>
      <point x="346" y="913"/>
      <point x="381" y="911"/>
      <point x="385" y="911" type="curve" smooth="yes"/>
      <point x="387" y="911"/>
      <point x="397" y="920"/>
      <point x="399" y="920" type="curve" smooth="yes"/>
      <point x="436" y="920" type="line" smooth="yes"/>
      <point x="561" y="920"/>
      <point x="639" y="830"/>
      <point x="639" y="709" type="curve" smooth="yes"/>
      <point x="639" y="549"/>
      <point x="512" y="500"/>
      <point x="379" y="457" type="curve" smooth="yes"/>
      <point x="344" y="445"/>
      <point x="322" y="436"/>
      <point x="281" y="428" type="curve" smooth="yes"/>
      <point x="263" y="424"/>
      <point x="227" y="426"/>
      <point x="217" y="408" type="curve" smooth="yes"/>
      <point x="213" y="402"/>
      <point x="203" y="366"/>
      <point x="203" y="358" type="curve" smooth="yes"/>
      <point x="201" y="344"/>
      <point x="215" y="328"/>
      <point x="223" y="322" type="curve"/>
      <point x="340" y="314"/>
      <point x="498" y="330"/>
      <point x="596" y="252" type="curve"/>
      <point x="602" y="246" type="line" smooth="yes"/>
      <point x="606" y="244"/>
      <point x="629" y="227"/>
      <point x="631" y="223" type="curve" smooth="yes"/>
      <point x="633" y="223"/>
      <point x="637" y="217"/>
      <point x="637" y="217" type="curve"/>
      <point x="651" y="197"/>
      <point x="690" y="133"/>
      <point x="694" y="127" type="curve" smooth="yes"/>
      <point x="712" y="90"/>
      <point x="715" y="49"/>
      <point x="715" y="10" type="curve" smooth="yes"/>
      <point x="715" y="-86"/>
      <point x="678" y="-176"/>
      <point x="610" y="-246" type="curve"/>
      <point x="557" y="-271"/>
      <point x="501" y="-281"/>
      <point x="444" y="-281" type="curve" smooth="yes"/>
      <point x="372" y="-281"/>
      <point x="299" y="-271"/>
      <point x="238" y="-240" type="curve" smooth="yes"/>
      <point x="232" y="-236"/>
      <point x="207" y="-225"/>
      <point x="203" y="-225" type="curve" smooth="yes"/>
      <point x="203" y="-225"/>
      <point x="188" y="-223"/>
      <point x="184" y="-223" type="curve" smooth="yes"/>
      <point x="125" y="-223"/>
      <point x="84" y="-248"/>
      <point x="70" y="-309" type="curve"/>
      <point x="70" y="-322" type="line" smooth="yes"/>
      <point x="70" y="-375"/>
      <point x="119" y="-414"/>
      <point x="168" y="-422" type="curve" smooth="yes"/>
      <point x="252" y="-422" type="line" smooth="yes"/>
      <point x="430" y="-422"/>
      <point x="566" y="-392"/>
      <point x="709" y="-281" type="curve" smooth="yes"/>
      <point x="725" y="-269"/>
      <point x="778" y="-219"/>
      <point x="784" y="-211" type="curve" smooth="yes"/>
      <point x="794" y="-201"/>
      <point x="848" y="-117"/>
      <point x="862" y="-92" type="curve" smooth="yes"/>
      <point x="880" y="-57"/>
      <point x="901" y="-4"/>
      <point x="905" y="35" type="curve" smooth="yes"/>
      <point x="905" y="182" type="line"/>
      <point x="878" y="266"/>
      <point x="848" y="332"/>
      <point x="778" y="385" type="curve" smooth="yes"/>
      <point x="766" y="395"/>
      <point x="702" y="434"/>
      <point x="686" y="442" type="curve"/>
      <point x="678" y="438"/>
      <point x="623" y="467"/>
      <point x="623" y="479" type="curve" smooth="yes"/>
      <point x="623" y="485"/>
      <point x="625" y="488"/>
      <point x="631" y="492" type="curve" smooth="yes"/>
      <point x="637" y="494"/>
      <point x="682" y="516"/>
      <point x="686" y="518" type="curve" smooth="yes"/>
      <point x="704" y="530"/>
      <point x="768" y="580"/>
      <point x="778" y="590" type="curve" smooth="yes"/>
      <point x="784" y="596"/>
      <point x="809" y="629"/>
      <point x="813" y="639" type="curve" smooth="yes"/>
      <point x="819" y="653"/>
      <point x="840" y="717"/>
      <point x="842" y="729" type="curve" smooth="yes"/>
      <point x="842" y="770" type="line" smooth="yes"/>
      <point x="842" y="885"/>
      <point x="805" y="940"/>
      <point x="721" y="1016" type="curve"/>
      <point x="692" y="1045"/>
      <point x="676" y="1059"/>
      <point x="637" y="1073" type="curve" smooth="yes"/>
      <point x="590" y="1091"/>
      <point x="538" y="1094"/>
      <point x="487" y="1094" type="curve" smooth="yes"/>
    </contour>
    <contour>
      <point x="502" y="852"/>
      <point x="502" y="846"/>
      <point x="504" y="846" type="curve" smooth="yes"/>
      <point x="508" y="846"/>
      <point x="508" y="852"/>
      <point x="504" y="852" type="curve" smooth="yes"/>
    </contour>
  </outline>
</glyph>
<glyph name="five" format="1">
  <advance width="995"/>
  <unicode hex="0035"/>
  <outline>
    <contour>
      <point x="795" y="1139"/>
      <point x="813" y="1089"/>
      <point x="774" y="1073" type="curve" smooth="yes"/>
      <point x="747" y="1061"/>
      <point x="723" y="1059"/>
      <point x="694" y="1059" type="curve" smooth="yes"/>
      <point x="624" y="1059"/>
      <point x="555" y="1081"/>
      <point x="483" y="1081" type="curve" smooth="yes"/>
      <point x="454" y="1081"/>
      <point x="419" y="1084"/>
      <point x="403" y="1053" type="curve" smooth="yes"/>
      <point x="326" y="905" type="line"/>
      <point x="326" y="897" type="line"/>
      <point x="236" y="735" type="line" smooth="yes"/>
      <point x="234" y="733"/>
      <point x="229" y="719"/>
      <point x="227" y="715" type="curve" smooth="yes"/>
      <point x="217" y="692"/>
      <point x="162" y="590"/>
      <point x="152" y="567" type="curve"/>
      <point x="172" y="547" type="line"/>
      <point x="369" y="477" type="line" smooth="yes"/>
      <point x="371" y="475"/>
      <point x="385" y="465"/>
      <point x="389" y="463" type="curve" smooth="yes"/>
      <point x="391" y="461"/>
      <point x="408" y="457"/>
      <point x="410" y="457" type="curve" smooth="yes"/>
      <point x="467" y="428"/>
      <point x="512" y="412"/>
      <point x="557" y="371" type="curve"/>
      <point x="571" y="361"/>
      <point x="631" y="307"/>
      <point x="641" y="295" type="curve" smooth="yes"/>
      <point x="643" y="293"/>
      <point x="653" y="278"/>
      <point x="655" y="272" type="curve" smooth="yes"/>
      <point x="667" y="249"/>
      <point x="703" y="176"/>
      <point x="705" y="168" type="curve" smooth="yes"/>
      <point x="713" y="145"/>
      <point x="713" y="105"/>
      <point x="713" y="80" type="curve" smooth="yes"/>
      <point x="713" y="47"/>
      <point x="713" y="27"/>
      <point x="705" y="-8" type="curve" smooth="yes"/>
      <point x="693" y="-63"/>
      <point x="627" y="-166"/>
      <point x="586" y="-197" type="curve" smooth="yes"/>
      <point x="574" y="-205"/>
      <point x="534" y="-229"/>
      <point x="530" y="-231" type="curve" smooth="yes"/>
      <point x="487" y="-245"/>
      <point x="440" y="-246"/>
      <point x="395" y="-246" type="curve" smooth="yes"/>
      <point x="354" y="-246"/>
      <point x="332" y="-248"/>
      <point x="291" y="-240" type="curve" smooth="yes"/>
      <point x="289" y="-238"/>
      <point x="278" y="-231"/>
      <point x="276" y="-231" type="curve" smooth="yes"/>
      <point x="264" y="-229"/>
      <point x="209" y="-219"/>
      <point x="201" y="-217" type="curve" smooth="yes"/>
      <point x="176" y="-217" type="line" smooth="yes"/>
      <point x="117" y="-217"/>
      <point x="74" y="-283"/>
      <point x="74" y="-338" type="curve" smooth="yes"/>
      <point x="74" y="-350" type="line"/>
      <point x="101" y="-401"/>
      <point x="176" y="-395"/>
      <point x="213" y="-422" type="curve"/>
      <point x="260" y="-416"/>
      <point x="303" y="-412"/>
      <point x="348" y="-408" type="curve" smooth="yes"/>
      <point x="354" y="-406"/>
      <point x="383" y="-401"/>
      <point x="389" y="-399" type="curve" smooth="yes"/>
      <point x="450" y="-385"/>
      <point x="522" y="-346"/>
      <point x="571" y="-309" type="curve" smooth="yes"/>
      <point x="598" y="-289"/>
      <point x="693" y="-209"/>
      <point x="705" y="-197" type="curve" smooth="yes"/>
      <point x="711" y="-191"/>
      <point x="756" y="-127"/>
      <point x="762" y="-119" type="curve" smooth="yes"/>
      <point x="797" y="-72"/>
      <point x="834" y="8"/>
      <point x="852" y="63" type="curve" smooth="yes"/>
      <point x="852" y="84" type="line" smooth="yes"/>
      <point x="858" y="127"/>
      <point x="866" y="166"/>
      <point x="866" y="209" type="curve" smooth="yes"/>
      <point x="866" y="268"/>
      <point x="856" y="322"/>
      <point x="831" y="379" type="curve" smooth="yes"/>
      <point x="829" y="385"/>
      <point x="799" y="428"/>
      <point x="797" y="434" type="curve" smooth="yes"/>
      <point x="795" y="436"/>
      <point x="790" y="447"/>
      <point x="788" y="449" type="curve" smooth="yes"/>
      <point x="778" y="463"/>
      <point x="719" y="527"/>
      <point x="705" y="541" type="curve" smooth="yes"/>
      <point x="641" y="582" type="line"/>
      <point x="641" y="582"/>
      <point x="635" y="588"/>
      <point x="635" y="590" type="curve" smooth="yes"/>
      <point x="481" y="680" type="line"/>
      <point x="475" y="680"/>
      <point x="457" y="686"/>
      <point x="453" y="688" type="curve" smooth="yes"/>
      <point x="441" y="692"/>
      <point x="381" y="723"/>
      <point x="369" y="729" type="curve" smooth="yes"/>
      <point x="367" y="743" type="line" smooth="yes"/>
      <point x="367" y="757"/>
      <point x="415" y="881"/>
      <point x="438" y="883" type="curve"/>
      <point x="454" y="881"/>
      <point x="535" y="870"/>
      <point x="551" y="870" type="curve"/>
      <point x="576" y="866"/>
      <point x="586" y="874"/>
      <point x="606" y="862" type="curve"/>
      <point x="633" y="862"/>
      <point x="755" y="868"/>
      <point x="782" y="870" type="curve" smooth="yes"/>
      <point x="800" y="870"/>
      <point x="815" y="871"/>
      <point x="823" y="883" type="curve" smooth="yes"/>
      <point x="827" y="887"/>
      <point x="850" y="922"/>
      <point x="852" y="926" type="curve" smooth="yes"/>
      <point x="854" y="928"/>
      <point x="872" y="944"/>
      <point x="872" y="946" type="curve" smooth="yes"/>
      <point x="874" y="950"/>
      <point x="885" y="991"/>
      <point x="887" y="995" type="curve" smooth="yes"/>
      <point x="901" y="1030"/>
      <point x="915" y="1048"/>
      <point x="915" y="1085" type="curve" smooth="yes"/>
      <point x="915" y="1102" type="line" smooth="yes"/>
      <point x="911" y="1108"/>
      <point x="887" y="1133"/>
      <point x="881" y="1137" type="curve" smooth="yes"/>
      <point x="879" y="1137"/>
      <point x="862" y="1139"/>
      <point x="856" y="1139" type="curve" smooth="yes"/>
    </contour>
    <contour>
      <point x="393" y="453"/>
      <point x="393" y="444"/>
      <point x="397" y="444" type="curve" smooth="yes"/>
      <point x="399" y="444"/>
      <point x="399" y="453"/>
      <point x="397" y="453" type="curve" smooth="yes"/>
    </contour>
  </outline>
</glyph>
<glyph name="six" format="1">
  <advance width="1073"/>
  <unicode hex="0036"/>
  <outline>
    <contour>
      <point x="834" y="1507"/>
      <point x="801" y="1497"/>
      <point x="791" y="1493" type="curve" smooth="yes"/>
      <point x="787" y="1493"/>
      <point x="752" y="1475"/>
      <point x="748" y="1473" type="curve" smooth="yes"/>
      <point x="664" y="1444" type="line" smooth="yes"/>
      <point x="658" y="1440"/>
      <point x="651" y="1431"/>
      <point x="649" y="1423" type="curve"/>
      <point x="412" y="1270" type="line" smooth="yes"/>
      <point x="406" y="1266"/>
      <point x="342" y="1206"/>
      <point x="319" y="1186" type="curve"/>
      <point x="274" y="1139"/>
      <point x="238" y="1085"/>
      <point x="201" y="1030" type="curve" smooth="yes"/>
      <point x="195" y="1022"/>
      <point x="188" y="1010"/>
      <point x="180" y="1004" type="curve"/>
      <point x="166" y="977"/>
      <point x="112" y="848"/>
      <point x="102" y="821" type="curve" smooth="yes"/>
      <point x="102" y="817"/>
      <point x="88" y="744"/>
      <point x="82" y="715" type="curve" smooth="yes"/>
      <point x="68" y="643"/>
      <point x="66" y="578"/>
      <point x="66" y="504" type="curve" smooth="yes"/>
      <point x="66" y="481"/>
      <point x="68" y="422"/>
      <point x="68" y="420" type="curve" smooth="yes"/>
      <point x="72" y="391"/>
      <point x="105" y="260"/>
      <point x="117" y="231" type="curve" smooth="yes"/>
      <point x="127" y="206"/>
      <point x="185" y="104"/>
      <point x="201" y="84" type="curve"/>
      <point x="270" y="29" type="line"/>
      <point x="279" y="20" type="line" smooth="yes"/>
      <point x="293" y="12"/>
      <point x="367" y="-23"/>
      <point x="383" y="-29" type="curve" smooth="yes"/>
      <point x="406" y="-35"/>
      <point x="507" y="-55"/>
      <point x="530" y="-55" type="curve"/>
      <point x="544" y="-43"/>
      <point x="555" y="-51"/>
      <point x="573" y="-49" type="curve" smooth="yes"/>
      <point x="587" y="-47"/>
      <point x="662" y="-33"/>
      <point x="678" y="-29" type="curve" smooth="yes"/>
      <point x="680" y="-29"/>
      <point x="690" y="-22"/>
      <point x="692" y="-20" type="curve" smooth="yes"/>
      <point x="694" y="-20"/>
      <point x="717" y="-14"/>
      <point x="719" y="-14" type="curve" smooth="yes"/>
      <point x="746" y="-2"/>
      <point x="819" y="37"/>
      <point x="825" y="41" type="curve" smooth="yes"/>
      <point x="841" y="53"/>
      <point x="905" y="117"/>
      <point x="915" y="133" type="curve" smooth="yes"/>
      <point x="917" y="137"/>
      <point x="922" y="152"/>
      <point x="924" y="154" type="curve" smooth="yes"/>
      <point x="928" y="164"/>
      <point x="969" y="248"/>
      <point x="973" y="260" type="curve" smooth="yes"/>
      <point x="973" y="262"/>
      <point x="979" y="291"/>
      <point x="979" y="295" type="curve" smooth="yes"/>
      <point x="995" y="352"/>
      <point x="1001" y="385"/>
      <point x="1001" y="446" type="curve" smooth="yes"/>
      <point x="1001" y="503"/>
      <point x="998" y="576"/>
      <point x="973" y="631" type="curve" smooth="yes"/>
      <point x="967" y="645"/>
      <point x="921" y="733"/>
      <point x="909" y="758" type="curve" smooth="yes"/>
      <point x="907" y="762"/>
      <point x="897" y="776"/>
      <point x="895" y="778" type="curve" smooth="yes"/>
      <point x="883" y="792"/>
      <point x="833" y="842"/>
      <point x="825" y="848" type="curve" smooth="yes"/>
      <point x="823" y="850"/>
      <point x="801" y="860"/>
      <point x="797" y="862" type="curve" smooth="yes"/>
      <point x="795" y="864"/>
      <point x="778" y="877"/>
      <point x="776" y="877" type="curve" smooth="yes"/>
      <point x="751" y="887"/>
      <point x="672" y="911"/>
      <point x="664" y="911" type="curve" smooth="yes"/>
      <point x="662" y="911"/>
      <point x="620" y="913"/>
      <point x="606" y="913" type="curve" smooth="yes"/>
      <point x="571" y="913"/>
      <point x="535" y="917"/>
      <point x="502" y="905" type="curve" smooth="yes"/>
      <point x="479" y="895"/>
      <point x="371" y="852"/>
      <point x="348" y="842" type="curve"/>
      <point x="344" y="842" type="line" smooth="yes"/>
      <point x="336" y="842"/>
      <point x="334" y="852"/>
      <point x="334" y="858" type="curve" smooth="yes"/>
      <point x="334" y="885"/>
      <point x="344" y="891"/>
      <point x="354" y="911" type="curve" smooth="yes"/>
      <point x="358" y="917"/>
      <point x="387" y="975"/>
      <point x="391" y="981" type="curve" smooth="yes"/>
      <point x="395" y="991"/>
      <point x="420" y="1026"/>
      <point x="426" y="1030" type="curve" smooth="yes"/>
      <point x="614" y="1235" type="line" smooth="yes"/>
      <point x="618" y="1239"/>
      <point x="684" y="1289"/>
      <point x="707" y="1305" type="curve" smooth="yes"/>
      <point x="709" y="1307"/>
      <point x="731" y="1317"/>
      <point x="733" y="1319" type="curve" smooth="yes"/>
      <point x="737" y="1321"/>
      <point x="760" y="1337"/>
      <point x="762" y="1339" type="curve" smooth="yes"/>
      <point x="930" y="1432" type="line"/>
      <point x="930" y="1452" type="line" smooth="yes"/>
      <point x="930" y="1454"/>
      <point x="886" y="1489"/>
      <point x="866" y="1501" type="curve" smooth="yes"/>
      <point x="862" y="1503"/>
      <point x="844" y="1507"/>
      <point x="840" y="1507" type="curve" smooth="yes"/>
    </contour>
    <contour>
      <point x="324" y="369"/>
      <point x="324" y="360"/>
      <point x="328" y="360" type="curve" smooth="yes"/>
      <point x="330" y="360"/>
      <point x="330" y="369"/>
      <point x="328" y="369" type="curve" smooth="yes"/>
    </contour>
    <contour>
      <point x="522" y="766"/>
      <point x="543" y="764"/>
      <point x="545" y="764" type="curve" smooth="yes"/>
      <point x="561" y="762"/>
      <point x="625" y="741"/>
      <point x="635" y="735" type="curve" smooth="yes"/>
      <point x="645" y="731"/>
      <point x="684" y="702"/>
      <point x="692" y="694" type="curve" smooth="yes"/>
      <point x="698" y="688"/>
      <point x="727" y="643"/>
      <point x="733" y="631" type="curve" smooth="yes"/>
      <point x="737" y="627"/>
      <point x="754" y="579"/>
      <point x="756" y="575" type="curve" smooth="yes"/>
      <point x="756" y="573"/>
      <point x="762" y="563"/>
      <point x="762" y="561" type="curve" smooth="yes"/>
      <point x="762" y="561"/>
      <point x="768" y="555"/>
      <point x="768" y="553" type="curve" smooth="yes"/>
      <point x="770" y="551"/>
      <point x="768" y="528"/>
      <point x="768" y="526" type="curve" smooth="yes"/>
      <point x="770" y="518"/>
      <point x="782" y="463"/>
      <point x="782" y="457" type="curve" smooth="yes"/>
      <point x="782" y="453"/>
      <point x="784" y="407"/>
      <point x="784" y="389" type="curve" smooth="yes"/>
      <point x="784" y="309"/>
      <point x="772" y="242"/>
      <point x="741" y="168" type="curve" smooth="yes"/>
      <point x="731" y="148"/>
      <point x="721" y="143"/>
      <point x="707" y="127" type="curve" smooth="yes"/>
      <point x="705" y="125"/>
      <point x="694" y="106"/>
      <point x="692" y="104" type="curve" smooth="yes"/>
      <point x="688" y="100"/>
      <point x="668" y="86"/>
      <point x="664" y="84" type="curve" smooth="yes"/>
      <point x="648" y="76"/>
      <point x="594" y="51"/>
      <point x="586" y="49" type="curve"/>
      <point x="559" y="49" type="line" smooth="yes"/>
      <point x="498" y="49"/>
      <point x="434" y="51"/>
      <point x="397" y="104" type="curve" smooth="yes"/>
      <point x="356" y="165"/>
      <point x="325" y="221"/>
      <point x="305" y="295" type="curve" smooth="yes"/>
      <point x="301" y="311"/>
      <point x="293" y="365"/>
      <point x="293" y="371" type="curve" smooth="yes"/>
      <point x="293" y="680" type="line" smooth="yes"/>
      <point x="293" y="711"/>
      <point x="392" y="746"/>
      <point x="412" y="750" type="curve" smooth="yes"/>
      <point x="424" y="754"/>
      <point x="473" y="764"/>
      <point x="481" y="764" type="curve" smooth="yes"/>
      <point x="483" y="764"/>
      <point x="506" y="766"/>
      <point x="514" y="766" type="curve" smooth="yes"/>
    </contour>
    <contour>
      <point x="512" y="649"/>
      <point x="512" y="641"/>
      <point x="516" y="641" type="curve" smooth="yes"/>
      <point x="520" y="641"/>
      <point x="520" y="649"/>
      <point x="516" y="649" type="curve" smooth="yes"/>
    </contour>
    <contour>
      <point x="590" y="664"/>
      <point x="590" y="655"/>
      <point x="594" y="655" type="curve" smooth="yes"/>
      <point x="598" y="655"/>
      <point x="598" y="664"/>
      <point x="594" y="664" type="curve" smooth="yes"/>
    </contour>
    <contour>
      <point x="801" y="1329"/>
      <point x="801" y="1321"/>
      <point x="805" y="1321" type="curve" smooth="yes"/>
      <point x="807" y="1321"/>
      <point x="807" y="1329"/>
      <point x="805" y="1329" type="curve" smooth="yes"/>
    </contour>
  </outline>
</glyph>
<glyph name="eight" format="1">
  <advance width="1013"/>
  <unicode hex="0038"/>
  <outline>
    <contour>
      <point x="430" y="1501" type="line"/>
      <point x="428" y="1499"/>
      <point x="414" y="1495"/>
      <point x="410" y="1493" type="curve" smooth="yes"/>
      <point x="408" y="1493"/>
      <point x="397" y="1487"/>
      <point x="395" y="1487" type="curve" smooth="yes"/>
      <point x="311" y="1466" type="line" smooth="yes"/>
      <point x="297" y="1460"/>
      <point x="243" y="1431"/>
      <point x="233" y="1423" type="curve" smooth="yes"/>
      <point x="223" y="1415"/>
      <point x="170" y="1362"/>
      <point x="158" y="1346" type="curve" smooth="yes"/>
      <point x="103" y="1283"/>
      <point x="86" y="1208"/>
      <point x="86" y="1126" type="curve" smooth="yes"/>
      <point x="86" y="1102" type="line"/>
      <point x="90" y="1084"/>
      <point x="109" y="1009"/>
      <point x="115" y="995" type="curve" smooth="yes"/>
      <point x="162" y="870"/>
      <point x="267" y="803"/>
      <point x="367" y="723" type="curve" smooth="yes"/>
      <point x="375" y="717"/>
      <point x="375" y="717"/>
      <point x="375" y="709" type="curve" smooth="yes"/>
      <point x="375" y="697"/>
      <point x="372" y="696"/>
      <point x="360" y="688" type="curve"/>
      <point x="350" y="678"/>
      <point x="258" y="612"/>
      <point x="248" y="602" type="curve" smooth="yes"/>
      <point x="230" y="586"/>
      <point x="151" y="503"/>
      <point x="135" y="483" type="curve"/>
      <point x="127" y="469"/>
      <point x="94" y="401"/>
      <point x="86" y="385" type="curve"/>
      <point x="80" y="367"/>
      <point x="80" y="335"/>
      <point x="80" y="315" type="curve" smooth="yes"/>
      <point x="80" y="274"/>
      <point x="77" y="219"/>
      <point x="100" y="182" type="curve" smooth="yes"/>
      <point x="114" y="162"/>
      <point x="154" y="102"/>
      <point x="158" y="98" type="curve" smooth="yes"/>
      <point x="238" y="-4"/>
      <point x="389" y="-49"/>
      <point x="514" y="-49" type="curve" smooth="yes"/>
      <point x="704" y="-49"/>
      <point x="847" y="53"/>
      <point x="915" y="231" type="curve"/>
      <point x="913" y="231"/>
      <point x="913" y="238"/>
      <point x="915" y="238" type="curve"/>
      <point x="915" y="242"/>
      <point x="922" y="264"/>
      <point x="922" y="266" type="curve" smooth="yes"/>
      <point x="922" y="326" type="line" smooth="yes"/>
      <point x="922" y="476"/>
      <point x="836" y="600"/>
      <point x="725" y="694" type="curve" smooth="yes"/>
      <point x="641" y="758" type="line" smooth="yes"/>
      <point x="637" y="760"/>
      <point x="623" y="776"/>
      <point x="621" y="778" type="curve"/>
      <point x="621" y="782" type="line" smooth="yes"/>
      <point x="621" y="805"/>
      <point x="648" y="811"/>
      <point x="662" y="821" type="curve" smooth="yes"/>
      <point x="709" y="852"/>
      <point x="753" y="901"/>
      <point x="788" y="940" type="curve" smooth="yes"/>
      <point x="790" y="942"/>
      <point x="801" y="959"/>
      <point x="803" y="961" type="curve" smooth="yes"/>
      <point x="823" y="981" type="line" smooth="yes"/>
      <point x="833" y="995"/>
      <point x="862" y="1045"/>
      <point x="866" y="1053" type="curve" smooth="yes"/>
      <point x="868" y="1061"/>
      <point x="889" y="1128"/>
      <point x="893" y="1151" type="curve"/>
      <point x="893" y="1171" type="line" smooth="yes"/>
      <point x="893" y="1173"/>
      <point x="887" y="1184"/>
      <point x="887" y="1186" type="curve" smooth="yes"/>
      <point x="877" y="1227"/>
      <point x="872" y="1266"/>
      <point x="852" y="1305" type="curve" smooth="yes"/>
      <point x="844" y="1317"/>
      <point x="819" y="1356"/>
      <point x="817" y="1360" type="curve" smooth="yes"/>
      <point x="805" y="1372"/>
      <point x="735" y="1432"/>
      <point x="719" y="1444" type="curve" smooth="yes"/>
      <point x="653" y="1491"/>
      <point x="563" y="1501"/>
      <point x="487" y="1501" type="curve" smooth="yes"/>
    </contour>
    <contour>
      <point x="490" y="639"/>
      <point x="514" y="602"/>
      <point x="537" y="582" type="curve" smooth="yes"/>
      <point x="600" y="523"/>
      <point x="662" y="469"/>
      <point x="711" y="393" type="curve" smooth="yes"/>
      <point x="738" y="350"/>
      <point x="739" y="309"/>
      <point x="739" y="260" type="curve" smooth="yes"/>
      <point x="739" y="164"/>
      <point x="692" y="72"/>
      <point x="592" y="49" type="curve"/>
      <point x="528" y="49" type="line" smooth="yes"/>
      <point x="495" y="49"/>
      <point x="463" y="45"/>
      <point x="430" y="55" type="curve" smooth="yes"/>
      <point x="332" y="90"/>
      <point x="276" y="195"/>
      <point x="276" y="295" type="curve" smooth="yes"/>
      <point x="276" y="358"/>
      <point x="293" y="412"/>
      <point x="311" y="469" type="curve" smooth="yes"/>
      <point x="313" y="473"/>
      <point x="317" y="496"/>
      <point x="317" y="498" type="curve" smooth="yes"/>
      <point x="327" y="518"/>
      <point x="348" y="527"/>
      <point x="354" y="547" type="curve"/>
      <point x="444" y="639" type="line"/>
      <point x="457" y="639" type="line" smooth="yes"/>
    </contour>
    <contour>
      <point x="584" y="1409"/>
      <point x="635" y="1364"/>
      <point x="676" y="1290" type="curve" smooth="yes"/>
      <point x="694" y="1257"/>
      <point x="719" y="1215"/>
      <point x="719" y="1176" type="curve" smooth="yes"/>
      <point x="719" y="1084"/>
      <point x="692" y="1033"/>
      <point x="647" y="961" type="curve" smooth="yes"/>
      <point x="633" y="938"/>
      <point x="571" y="842"/>
      <point x="551" y="842" type="curve" smooth="yes"/>
      <point x="518" y="842"/>
      <point x="496" y="879"/>
      <point x="473" y="897" type="curve" smooth="yes"/>
      <point x="471" y="899"/>
      <point x="461" y="903"/>
      <point x="459" y="905" type="curve" smooth="yes"/>
      <point x="422" y="932"/>
      <point x="383" y="971"/>
      <point x="354" y="1004" type="curve" smooth="yes"/>
      <point x="305" y="1057"/>
      <point x="268" y="1114"/>
      <point x="268" y="1188" type="curve" smooth="yes"/>
      <point x="268" y="1208"/>
      <point x="268" y="1244"/>
      <point x="276" y="1262" type="curve" smooth="yes"/>
      <point x="315" y="1346"/>
      <point x="400" y="1409"/>
      <point x="494" y="1409" type="curve" smooth="yes"/>
    </contour>
  </outline>
</glyph>
<glyph name="nine" format="1">
  <advance width="1069"/>
  <unicode hex="0039"/>
  <outline>
    <contour>
      <point x="463" y="1110"/>
      <point x="367" y="1110"/>
      <point x="295" y="1053" type="curve" smooth="yes"/>
      <point x="277" y="1037"/>
      <point x="217" y="987"/>
      <point x="209" y="981" type="curve"/>
      <point x="209" y="981"/>
      <point x="199" y="963"/>
      <point x="197" y="961" type="curve" smooth="yes"/>
      <point x="193" y="957"/>
      <point x="178" y="942"/>
      <point x="174" y="940" type="curve"/>
      <point x="111" y="836"/>
      <point x="68" y="737"/>
      <point x="68" y="614" type="curve" smooth="yes"/>
      <point x="68" y="606"/>
      <point x="70" y="569"/>
      <point x="70" y="561" type="curve"/>
      <point x="72" y="559"/>
      <point x="76" y="549"/>
      <point x="76" y="547" type="curve" smooth="yes"/>
      <point x="78" y="539"/>
      <point x="88" y="471"/>
      <point x="90" y="463" type="curve" smooth="yes"/>
      <point x="98" y="432"/>
      <point x="109" y="398"/>
      <point x="125" y="371" type="curve" smooth="yes"/>
      <point x="184" y="283"/>
      <point x="254" y="195"/>
      <point x="365" y="168" type="curve" smooth="yes"/>
      <point x="406" y="158"/>
      <point x="449" y="154"/>
      <point x="492" y="154" type="curve" smooth="yes"/>
      <point x="504" y="154" type="line"/>
      <point x="529" y="158"/>
      <point x="602" y="172"/>
      <point x="610" y="176" type="curve" smooth="yes"/>
      <point x="618" y="178"/>
      <point x="680" y="213"/>
      <point x="686" y="217" type="curve" smooth="yes"/>
      <point x="692" y="219"/>
      <point x="717" y="229"/>
      <point x="721" y="231" type="curve"/>
      <point x="731" y="229"/>
      <point x="729" y="215"/>
      <point x="729" y="209" type="curve" smooth="yes"/>
      <point x="729" y="180"/>
      <point x="716" y="152"/>
      <point x="700" y="127" type="curve" smooth="yes"/>
      <point x="686" y="104"/>
      <point x="618" y="0"/>
      <point x="602" y="-20" type="curve" smooth="yes"/>
      <point x="600" y="-24"/>
      <point x="584" y="-39"/>
      <point x="582" y="-43" type="curve" smooth="yes"/>
      <point x="580" y="-43"/>
      <point x="575" y="-55"/>
      <point x="575" y="-55" type="curve"/>
      <point x="548" y="-84"/>
      <point x="512" y="-124"/>
      <point x="477" y="-147" type="curve" smooth="yes"/>
      <point x="469" y="-151"/>
      <point x="414" y="-186"/>
      <point x="406" y="-190" type="curve" smooth="yes"/>
      <point x="404" y="-190"/>
      <point x="381" y="-209"/>
      <point x="379" y="-211" type="curve" smooth="yes"/>
      <point x="359" y="-221"/>
      <point x="295" y="-256"/>
      <point x="287" y="-260" type="curve" smooth="yes"/>
      <point x="154" y="-301" type="line" smooth="yes"/>
      <point x="136" y="-309"/>
      <point x="119" y="-314"/>
      <point x="119" y="-334" type="curve" smooth="yes"/>
      <point x="119" y="-357"/>
      <point x="161" y="-399"/>
      <point x="186" y="-399" type="curve" smooth="yes"/>
      <point x="188" y="-399" type="line" smooth="yes"/>
      <point x="190" y="-399"/>
      <point x="207" y="-393"/>
      <point x="209" y="-393" type="curve" smooth="yes"/>
      <point x="252" y="-393" type="line" smooth="yes"/>
      <point x="256" y="-393"/>
      <point x="291" y="-381"/>
      <point x="295" y="-379" type="curve" smooth="yes"/>
      <point x="301" y="-377"/>
      <point x="350" y="-367"/>
      <point x="356" y="-365" type="curve" smooth="yes"/>
      <point x="360" y="-365"/>
      <point x="375" y="-358"/>
      <point x="379" y="-358" type="curve" smooth="yes"/>
      <point x="404" y="-346"/>
      <point x="488" y="-307"/>
      <point x="498" y="-301" type="curve" smooth="yes"/>
      <point x="549" y="-274"/>
      <point x="594" y="-234"/>
      <point x="645" y="-203" type="curve"/>
      <point x="784" y="-63" type="line" smooth="yes"/>
      <point x="788" y="-59"/>
      <point x="817" y="-24"/>
      <point x="819" y="-20" type="curve"/>
      <point x="823" y="-18"/>
      <point x="846" y="4"/>
      <point x="848" y="6" type="curve" smooth="yes"/>
      <point x="959" y="143"/>
      <point x="995" y="356"/>
      <point x="995" y="526" type="curve" smooth="yes"/>
      <point x="995" y="684"/>
      <point x="971" y="779"/>
      <point x="891" y="920" type="curve" smooth="yes"/>
      <point x="877" y="932" type="line" smooth="yes"/>
      <point x="873" y="936"/>
      <point x="852" y="965"/>
      <point x="848" y="969" type="curve" smooth="yes"/>
      <point x="758" y="1059"/>
      <point x="682" y="1110"/>
      <point x="551" y="1110" type="curve" smooth="yes"/>
    </contour>
    <contour>
      <point x="402" y="-31"/>
      <point x="399" y="-35"/>
      <point x="399" y="-39" type="curve" smooth="yes"/>
      <point x="399" y="-43"/>
      <point x="402" y="-47"/>
      <point x="406" y="-49" type="curve"/>
      <point x="406" y="-29" type="line"/>
    </contour>
    <contour>
      <point x="387" y="-12"/>
      <point x="387" y="-31"/>
      <point x="393" y="-29" type="curve" smooth="yes"/>
      <point x="397" y="-27"/>
      <point x="397" y="-16"/>
      <point x="393" y="-14" type="curve" smooth="yes"/>
    </contour>
    <contour>
      <point x="555" y="1018"/>
      <point x="591" y="1005"/>
      <point x="616" y="995" type="curve" smooth="yes"/>
      <point x="618" y="995"/>
      <point x="639" y="981"/>
      <point x="645" y="975" type="curve" smooth="yes"/>
      <point x="661" y="961"/>
      <point x="700" y="922"/>
      <point x="700" y="920" type="curve" smooth="yes"/>
      <point x="758" y="778" type="line" smooth="yes"/>
      <point x="762" y="768"/>
      <point x="780" y="624"/>
      <point x="784" y="575" type="curve" smooth="yes"/>
      <point x="784" y="573"/>
      <point x="786" y="524"/>
      <point x="786" y="508" type="curve" smooth="yes"/>
      <point x="786" y="488"/>
      <point x="784" y="432"/>
      <point x="784" y="428" type="curve" smooth="yes"/>
      <point x="784" y="424"/>
      <point x="780" y="399"/>
      <point x="778" y="393" type="curve" smooth="yes"/>
      <point x="774" y="379"/>
      <point x="772" y="358"/>
      <point x="758" y="350" type="curve" smooth="yes"/>
      <point x="744" y="344"/>
      <point x="680" y="313"/>
      <point x="666" y="309" type="curve" smooth="yes"/>
      <point x="633" y="295"/>
      <point x="600" y="295"/>
      <point x="567" y="287" type="curve"/>
      <point x="561" y="287" type="line"/>
      <point x="553" y="289"/>
      <point x="497" y="307"/>
      <point x="489" y="309" type="curve" smooth="yes"/>
      <point x="487" y="309"/>
      <point x="471" y="307"/>
      <point x="469" y="309" type="curve" smooth="yes"/>
      <point x="444" y="315"/>
      <point x="426" y="326"/>
      <point x="406" y="344" type="curve" smooth="yes"/>
      <point x="379" y="369"/>
      <point x="334" y="410"/>
      <point x="322" y="449" type="curve" smooth="yes"/>
      <point x="302" y="525"/>
      <point x="281" y="606"/>
      <point x="281" y="684" type="curve" smooth="yes"/>
      <point x="281" y="688" type="line"/>
      <point x="287" y="729"/>
      <point x="289" y="774"/>
      <point x="301" y="813" type="curve" smooth="yes"/>
      <point x="303" y="819"/>
      <point x="328" y="864"/>
      <point x="330" y="870" type="curve"/>
      <point x="330" y="877" type="line"/>
      <point x="363" y="955"/>
      <point x="434" y="1018"/>
      <point x="522" y="1018" type="curve" smooth="yes"/>
    </contour>
  </outline>
</glyph>
<glyph name="A" format="1">
  <advance width="4388"/>
  <unicode hex="0041"/>
  <outline>
    <contour>
      <point x="2169" y="1254" type="line" smooth="yes"/>
      <point x="2161" y="1254"/>
      <point x="2161" y="1243"/>
      <point x="2161" y="1237" type="curve" smooth="yes"/>
      <point x="2161" y="1214"/>
      <point x="2185" y="1199"/>
      <point x="2185" y="1174" type="curve" smooth="yes"/>
      <point x="2185" y="1172"/>
      <point x="2185" y="1164"/>
      <point x="2183" y="1164" type="curve" smooth="yes"/>
      <point x="2132" y="1012" type="line"/>
      <point x="2132" y="1006" type="line"/>
      <point x="2120" y="969"/>
      <point x="2108" y="949"/>
      <point x="2102" y="916" type="curve"/>
      <point x="1913" y="381" type="line" smooth="yes"/>
      <point x="1913" y="375"/>
      <point x="1907" y="348"/>
      <point x="1907" y="344" type="curve" smooth="yes"/>
      <point x="1897" y="311"/>
      <point x="1860" y="201"/>
      <point x="1854" y="187" type="curve" smooth="yes"/>
      <point x="1844" y="160"/>
      <point x="1790" y="40"/>
      <point x="1778" y="13" type="curve"/>
      <point x="1766" y="5"/>
      <point x="1776" y="4"/>
      <point x="1764" y="-10" type="curve" smooth="yes"/>
      <point x="1733" y="-45"/>
      <point x="1700" y="-79"/>
      <point x="1651" y="-77" type="curve"/>
      <point x="1639" y="-87"/>
      <point x="1643" y="-113"/>
      <point x="1643" y="-123" type="curve" smooth="yes"/>
      <point x="1643" y="-145" type="line"/>
      <point x="1651" y="-153" type="line"/>
      <point x="1796" y="-149"/>
      <point x="1915" y="-159"/>
      <point x="2056" y="-159" type="curve" smooth="yes"/>
      <point x="2062" y="-159"/>
      <point x="2079" y="-159"/>
      <point x="2079" y="-153" type="curve" smooth="yes"/>
      <point x="2079" y="-86" type="line" smooth="yes"/>
      <point x="2079" y="-82"/>
      <point x="2069" y="-71"/>
      <point x="2065" y="-69" type="curve" smooth="yes"/>
      <point x="2059" y="-67"/>
      <point x="2015" y="-57"/>
      <point x="2011" y="-55" type="curve" smooth="yes"/>
      <point x="1962" y="-32"/>
      <point x="1944" y="21"/>
      <point x="1944" y="68" type="curve" smooth="yes"/>
      <point x="1944" y="115"/>
      <point x="1946" y="164"/>
      <point x="1958" y="209" type="curve" smooth="yes"/>
      <point x="1966" y="238"/>
      <point x="2010" y="375"/>
      <point x="2020" y="404" type="curve"/>
      <point x="2038" y="402"/>
      <point x="2135" y="398"/>
      <point x="2155" y="396" type="curve"/>
      <point x="2431" y="396" type="line"/>
      <point x="2437" y="392"/>
      <point x="2452" y="365"/>
      <point x="2454" y="359" type="curve" smooth="yes"/>
      <point x="2460" y="347"/>
      <point x="2489" y="250"/>
      <point x="2493" y="238" type="curve" smooth="yes"/>
      <point x="2493" y="238"/>
      <point x="2499" y="226"/>
      <point x="2499" y="224" type="curve" smooth="yes"/>
      <point x="2552" y="74" type="line" smooth="yes"/>
      <point x="2554" y="68"/>
      <point x="2554" y="41"/>
      <point x="2554" y="35" type="curve" smooth="yes"/>
      <point x="2554" y="-14"/>
      <point x="2529" y="-61"/>
      <point x="2476" y="-69" type="curve" smooth="yes"/>
      <point x="2468" y="-71"/>
      <point x="2425" y="-75"/>
      <point x="2417" y="-77" type="curve"/>
      <point x="2405" y="-85"/>
      <point x="2403" y="-100"/>
      <point x="2403" y="-114" type="curve" smooth="yes"/>
      <point x="2403" y="-131" type="line" smooth="yes"/>
      <point x="2403" y="-139"/>
      <point x="2409" y="-159"/>
      <point x="2409" y="-159" type="curve"/>
      <point x="2935" y="-159" type="line"/>
      <point x="2935" y="-100" type="line" smooth="yes"/>
      <point x="2935" y="-98"/>
      <point x="2925" y="-86"/>
      <point x="2921" y="-86" type="curve"/>
      <point x="2919" y="-84"/>
      <point x="2892" y="-77"/>
      <point x="2884" y="-77" type="curve" smooth="yes"/>
      <point x="2867" y="-77" type="line" smooth="yes"/>
      <point x="2838" y="-61"/>
      <point x="2796" y="-18"/>
      <point x="2786" y="13" type="curve" smooth="yes"/>
      <point x="2650" y="426" type="line"/>
      <point x="2636" y="457" type="line"/>
      <point x="2425" y="1096" type="line"/>
      <point x="2421" y="1100"/>
      <point x="2411" y="1121"/>
      <point x="2409" y="1125" type="curve" smooth="yes"/>
      <point x="2407" y="1135"/>
      <point x="2382" y="1221"/>
      <point x="2380" y="1231" type="curve" smooth="yes"/>
      <point x="2378" y="1235"/>
      <point x="2374" y="1246"/>
      <point x="2372" y="1246" type="curve" smooth="yes"/>
      <point x="2368" y="1248"/>
      <point x="2347" y="1254"/>
      <point x="2341" y="1254" type="curve" smooth="yes"/>
    </contour>
    <contour>
      <point x="2243" y="1028"/>
      <point x="2261" y="967"/>
      <point x="2259" y="961" type="curve"/>
      <point x="2265" y="943"/>
      <point x="2290" y="864"/>
      <point x="2296" y="848" type="curve" smooth="yes"/>
      <point x="2335" y="739"/>
      <point x="2364" y="627"/>
      <point x="2403" y="516" type="curve"/>
      <point x="2403" y="502" type="line"/>
      <point x="2071" y="502" type="line" smooth="yes"/>
      <point x="2069" y="502"/>
      <point x="2052" y="506"/>
      <point x="2048" y="508" type="curve"/>
      <point x="2048" y="516" type="line"/>
      <point x="2052" y="528"/>
      <point x="2075" y="593"/>
      <point x="2079" y="607" type="curve" smooth="yes"/>
      <point x="2079" y="609"/>
      <point x="2085" y="619"/>
      <point x="2087" y="621" type="curve" smooth="yes"/>
      <point x="2192" y="944" type="line"/>
      <point x="2206" y="967"/>
      <point x="2213" y="1028"/>
      <point x="2233" y="1028" type="curve" smooth="yes"/>
    </contour>
  </outline>
</glyph>
<glyph name="B" format="1">
  <advance width="1480"/>
  <unicode hex="0042"/>
  <outline>
    <contour>
      <point x="84" y="1577" type="line"/>
      <point x="84" y="1551" type="line" smooth="yes"/>
      <point x="94" y="1544"/>
      <point x="271" y="1479"/>
      <point x="307" y="1411" type="curve"/>
      <point x="307" y="190" type="line" smooth="yes"/>
      <point x="307" y="151"/>
      <point x="291" y="118"/>
      <point x="74" y="42" type="curve" smooth="yes"/>
      <point x="74" y="42"/>
      <point x="74" y="1"/>
      <point x="76" y="0" type="curve"/>
      <point x="559" y="0" type="line" smooth="yes"/>
      <point x="1070" y="0"/>
      <point x="1312" y="155"/>
      <point x="1312" y="444" type="curve" smooth="yes"/>
      <point x="1312" y="676"/>
      <point x="1155" y="784"/>
      <point x="911" y="858" type="curve"/>
      <point x="1135" y="907"/>
      <point x="1210" y="1059"/>
      <point x="1210" y="1201" type="curve" smooth="yes"/>
      <point x="1210" y="1433"/>
      <point x="1082" y="1577"/>
      <point x="532" y="1577" type="curve" smooth="yes"/>
    </contour>
    <contour>
      <point x="923" y="800"/>
      <point x="1077" y="694"/>
      <point x="1077" y="445" type="curve" smooth="yes"/>
      <point x="1077" y="254"/>
      <point x="1008" y="69"/>
      <point x="547" y="69" type="curve"/>
      <point x="547" y="800" type="line"/>
    </contour>
    <contour>
      <point x="873" y="1515"/>
      <point x="980" y="1367"/>
      <point x="980" y="1178" type="curve" smooth="yes"/>
      <point x="980" y="984"/>
      <point x="834" y="863"/>
      <point x="547" y="863" type="curve"/>
      <point x="547" y="1515" type="line"/>
    </contour>
    <contour>
      <point x="1332" y="10" type="move" name="ogonek"/>
    </contour>
    <contour>
      <point x="740" y="0" type="move" name="bottom"/>
    </contour>
    <contour>
      <point x="740" y="1577" type="move" name="top"/>
    </contour>
  </outline>
</glyph>
<glyph name="C" format="1">
  <advance width="1609"/>
  <unicode hex="0043"/>
  <outline>
    <contour>
      <point x="932" y="1882"/>
      <point x="876" y="1870"/>
      <point x="821" y="1874" type="curve"/>
      <point x="794" y="1868"/>
      <point x="676" y="1835"/>
      <point x="649" y="1829" type="curve" smooth="yes"/>
      <point x="608" y="1817"/>
      <point x="572" y="1794"/>
      <point x="535" y="1776" type="curve" smooth="yes"/>
      <point x="515" y="1764"/>
      <point x="489" y="1759"/>
      <point x="471" y="1747" type="curve" smooth="yes"/>
      <point x="408" y="1710"/>
      <point x="338" y="1642"/>
      <point x="291" y="1595" type="curve"/>
      <point x="291" y="1591"/>
      <point x="285" y="1579"/>
      <point x="283" y="1577" type="curve" smooth="yes"/>
      <point x="279" y="1571"/>
      <point x="233" y="1522"/>
      <point x="229" y="1516" type="curve" smooth="yes"/>
      <point x="219" y="1502"/>
      <point x="188" y="1452"/>
      <point x="184" y="1444" type="curve" smooth="yes"/>
      <point x="178" y="1432"/>
      <point x="143" y="1337"/>
      <point x="139" y="1327" type="curve" smooth="yes"/>
      <point x="119" y="1278"/>
      <point x="86" y="1177"/>
      <point x="86" y="1128" type="curve" smooth="yes"/>
      <point x="86" y="842" type="line" smooth="yes"/>
      <point x="86" y="836"/>
      <point x="98" y="768"/>
      <point x="104" y="743" type="curve" smooth="yes"/>
      <point x="104" y="741"/>
      <point x="111" y="727"/>
      <point x="113" y="725" type="curve" smooth="yes"/>
      <point x="115" y="721"/>
      <point x="129" y="678"/>
      <point x="131" y="672" type="curve" smooth="yes"/>
      <point x="145" y="641"/>
      <point x="222" y="496"/>
      <point x="238" y="467" type="curve"/>
      <point x="254" y="447"/>
      <point x="336" y="364"/>
      <point x="354" y="350" type="curve" smooth="yes"/>
      <point x="362" y="342"/>
      <point x="436" y="301"/>
      <point x="444" y="295" type="curve" smooth="yes"/>
      <point x="446" y="293"/>
      <point x="459" y="281"/>
      <point x="463" y="279" type="curve" smooth="yes"/>
      <point x="598" y="205"/>
      <point x="751" y="170"/>
      <point x="907" y="170" type="curve" smooth="yes"/>
      <point x="1100" y="170"/>
      <point x="1297" y="188"/>
      <point x="1475" y="268" type="curve"/>
      <point x="1512" y="309"/>
      <point x="1497" y="340"/>
      <point x="1501" y="395" type="curve" smooth="yes"/>
      <point x="1520" y="565" type="line"/>
      <point x="1520" y="637" type="line"/>
      <point x="1512" y="647"/>
      <point x="1497" y="655"/>
      <point x="1485" y="655" type="curve" smooth="yes"/>
      <point x="1426" y="655"/>
      <point x="1423" y="600"/>
      <point x="1403" y="555" type="curve" smooth="yes"/>
      <point x="1393" y="530"/>
      <point x="1370" y="490"/>
      <point x="1350" y="467" type="curve" smooth="yes"/>
      <point x="1270" y="381"/>
      <point x="1190" y="308"/>
      <point x="1071" y="279" type="curve" smooth="yes"/>
      <point x="1069" y="277"/>
      <point x="1055" y="279"/>
      <point x="1053" y="279" type="curve" smooth="yes"/>
      <point x="1051" y="277"/>
      <point x="1038" y="270"/>
      <point x="1036" y="268" type="curve"/>
      <point x="866" y="268" type="line" smooth="yes"/>
      <point x="862" y="268"/>
      <point x="837" y="275"/>
      <point x="829" y="279" type="curve" smooth="yes"/>
      <point x="686" y="326"/>
      <point x="604" y="371"/>
      <point x="516" y="494" type="curve" smooth="yes"/>
      <point x="489" y="531"/>
      <point x="426" y="625"/>
      <point x="426" y="627" type="curve" smooth="yes"/>
      <point x="426" y="637" type="line"/>
      <point x="362" y="842" type="line"/>
      <point x="364" y="846"/>
      <point x="364" y="858"/>
      <point x="362" y="860" type="curve"/>
      <point x="362" y="868"/>
      <point x="354" y="926"/>
      <point x="354" y="932" type="curve" smooth="yes"/>
      <point x="354" y="1184" type="line" smooth="yes"/>
      <point x="356" y="1219"/>
      <point x="366" y="1255"/>
      <point x="362" y="1290" type="curve"/>
      <point x="368" y="1317"/>
      <point x="406" y="1435"/>
      <point x="418" y="1460" type="curve"/>
      <point x="424" y="1478"/>
      <point x="475" y="1561"/>
      <point x="489" y="1577" type="curve" smooth="yes"/>
      <point x="495" y="1585"/>
      <point x="571" y="1661"/>
      <point x="596" y="1686" type="curve" smooth="yes"/>
      <point x="604" y="1694"/>
      <point x="637" y="1718"/>
      <point x="641" y="1720" type="curve" smooth="yes"/>
      <point x="664" y="1732"/>
      <point x="746" y="1772"/>
      <point x="758" y="1776" type="curve" smooth="yes"/>
      <point x="813" y="1790"/>
      <point x="881" y="1794"/>
      <point x="938" y="1794" type="curve" smooth="yes"/>
      <point x="1176" y="1794"/>
      <point x="1331" y="1626"/>
      <point x="1411" y="1415" type="curve"/>
      <point x="1415" y="1411"/>
      <point x="1434" y="1399"/>
      <point x="1440" y="1399" type="curve" smooth="yes"/>
      <point x="1456" y="1397"/>
      <point x="1493" y="1402"/>
      <point x="1501" y="1425" type="curve"/>
      <point x="1501" y="1431"/>
      <point x="1503" y="1458"/>
      <point x="1503" y="1466" type="curve" smooth="yes"/>
      <point x="1503" y="1474"/>
      <point x="1501" y="1503"/>
      <point x="1501" y="1505" type="curve" smooth="yes"/>
      <point x="1499" y="1521"/>
      <point x="1477" y="1643"/>
      <point x="1475" y="1659" type="curve" smooth="yes"/>
      <point x="1475" y="1665"/>
      <point x="1477" y="1714"/>
      <point x="1475" y="1720" type="curve" smooth="yes"/>
      <point x="1473" y="1732"/>
      <point x="1460" y="1770"/>
      <point x="1456" y="1776" type="curve" smooth="yes"/>
      <point x="1456" y="1778"/>
      <point x="1429" y="1790"/>
      <point x="1421" y="1792" type="curve" smooth="yes"/>
      <point x="1392" y="1802"/>
      <point x="1262" y="1847"/>
      <point x="1233" y="1855" type="curve" smooth="yes"/>
      <point x="1206" y="1855" type="line" smooth="yes"/>
      <point x="1196" y="1857"/>
      <point x="1116" y="1872"/>
      <point x="1108" y="1874" type="curve" smooth="yes"/>
      <point x="1061" y="1880"/>
      <point x="1028" y="1882"/>
      <point x="987" y="1882" type="curve" smooth="yes"/>
    </contour>
    <contour>
      <point x="1399" y="381"/>
      <point x="1399" y="373"/>
      <point x="1395" y="373" type="curve" smooth="yes"/>
      <point x="1391" y="373"/>
      <point x="1391" y="381"/>
      <point x="1395" y="381" type="curve" smooth="yes"/>
    </contour>
    <contour>
      <point x="805" y="1577" type="move" name="top"/>
    </contour>
    <contour>
      <point x="805" y="0" type="move" name="bottom"/>
    </contour>
  </outline>
</glyph>
<glyph name="E" format="1">
  <advance width="1480"/>
  <unicode hex="0045"/>
  <outline>
    <contour>
      <point x="1117" y="1577" type="line"/>
      <point x="84" y="1577" type="line"/>
      <point x="84" y="1551" type="line" smooth="yes"/>
      <point x="94" y="1544"/>
      <point x="271" y="1479"/>
      <point x="307" y="1411" type="curve"/>
      <point x="307" y="190" type="line" smooth="yes"/>
      <point x="307" y="151"/>
      <point x="291" y="118"/>
      <point x="74" y="42" type="curve" smooth="yes"/>
      <point x="74" y="42"/>
      <point x="74" y="1"/>
      <point x="76" y="0" type="curve"/>
      <point x="1247" y="0" type="line" smooth="yes"/>
      <point x="1292" y="0"/>
      <point x="1323" y="6"/>
      <point x="1333" y="57" type="curve" smooth="yes"/>
      <point x="1389" y="315" type="line" smooth="yes"/>
      <point x="1391" y="328"/>
      <point x="1393" y="344"/>
      <point x="1393" y="359" type="curve" smooth="yes"/>
      <point x="1393" y="382"/>
      <point x="1388" y="401"/>
      <point x="1368" y="401" type="curve" smooth="yes"/>
      <point x="1328" y="401"/>
      <point x="1323" y="383"/>
      <point x="1292" y="335" type="curve" smooth="yes"/>
      <point x="1203" y="198"/>
      <point x="1185" y="105"/>
      <point x="817" y="84" type="curve" smooth="yes"/>
      <point x="547" y="69" type="line"/>
      <point x="547" y="800" type="line"/>
      <point x="731" y="790" type="line" smooth="yes"/>
      <point x="983" y="770"/>
      <point x="1056" y="788"/>
      <point x="1122" y="553" type="curve"/>
      <point x="1122" y="553"/>
      <point x="1163" y="552"/>
      <point x="1163" y="553" type="curve" smooth="yes"/>
      <point x="1163" y="1043" type="line" smooth="yes"/>
      <point x="1163" y="1071"/>
      <point x="1162" y="1083"/>
      <point x="1151" y="1096" type="curve"/>
      <point x="1123" y="1096" type="line"/>
      <point x="1053" y="865"/>
      <point x="996" y="892"/>
      <point x="743" y="873" type="curve" smooth="yes"/>
      <point x="547" y="863" type="line"/>
      <point x="547" y="1515" type="line"/>
      <point x="1001" y="1501" type="line" smooth="yes"/>
      <point x="1175" y="1496"/>
      <point x="1228" y="1241"/>
      <point x="1267" y="1241" type="curve" smooth="yes"/>
      <point x="1267" y="1241"/>
      <point x="1312" y="1242"/>
      <point x="1316" y="1255" type="curve"/>
      <point x="1316" y="1552" type="line" smooth="yes"/>
      <point x="1316" y="1569"/>
      <point x="1301" y="1579"/>
      <point x="1297" y="1579" type="curve" smooth="yes"/>
    </contour>
    <contour>
      <point x="1332" y="10" type="move" name="ogonek"/>
    </contour>
    <contour>
      <point x="740" y="0" type="move" name="bottom"/>
    </contour>
    <contour>
      <point x="740" y="1577" type="move" name="top"/>
    </contour>
  </outline>
</glyph>
<glyph name="H" format="1">
  <advance width="1830"/>
  <unicode hex="0048"/>
  <outline>
    <contour>
      <point x="1061" y="1577" type="line"/>
      <point x="1047" y="1563"/>
      <point x="1047" y="1530"/>
      <point x="1047" y="1497" type="curve" smooth="yes"/>
      <point x="1047" y="1481" type="line" smooth="yes"/>
      <point x="1047" y="1434"/>
      <point x="1280" y="1479"/>
      <point x="1280" y="1321" type="curve" smooth="yes"/>
      <point x="1280" y="862" type="line"/>
      <point x="557" y="862" type="line"/>
      <point x="557" y="1321" type="line" smooth="yes"/>
      <point x="557" y="1479"/>
      <point x="791" y="1434"/>
      <point x="791" y="1481" type="curve" smooth="yes"/>
      <point x="791" y="1497" type="line" smooth="yes"/>
      <point x="791" y="1530"/>
      <point x="790" y="1563"/>
      <point x="776" y="1577" type="curve"/>
      <point x="94" y="1577" type="line"/>
      <point x="84" y="1563"/>
      <point x="84" y="1528"/>
      <point x="84" y="1495" type="curve" smooth="yes"/>
      <point x="84" y="1481" type="line"/>
      <point x="90" y="1434"/>
      <point x="317" y="1479"/>
      <point x="317" y="1321" type="curve" smooth="yes"/>
      <point x="317" y="256" type="line" smooth="yes"/>
      <point x="317" y="98"/>
      <point x="90" y="143"/>
      <point x="84" y="96" type="curve"/>
      <point x="84" y="82" type="line" smooth="yes"/>
      <point x="84" y="49"/>
      <point x="84" y="14"/>
      <point x="94" y="0" type="curve"/>
      <point x="776" y="0" type="line"/>
      <point x="790" y="14"/>
      <point x="791" y="47"/>
      <point x="791" y="80" type="curve" smooth="yes"/>
      <point x="791" y="96" type="line" smooth="yes"/>
      <point x="791" y="143"/>
      <point x="557" y="98"/>
      <point x="557" y="256" type="curve" smooth="yes"/>
      <point x="557" y="745" type="line"/>
      <point x="1280" y="745" type="line"/>
      <point x="1280" y="256" type="line" smooth="yes"/>
      <point x="1280" y="98"/>
      <point x="1047" y="143"/>
      <point x="1047" y="96" type="curve" smooth="yes"/>
      <point x="1047" y="80" type="line" smooth="yes"/>
      <point x="1047" y="47"/>
      <point x="1047" y="14"/>
      <point x="1061" y="0" type="curve"/>
      <point x="1743" y="0" type="line"/>
      <point x="1753" y="14"/>
      <point x="1753" y="49"/>
      <point x="1753" y="82" type="curve" smooth="yes"/>
      <point x="1753" y="96" type="line"/>
      <point x="1747" y="143"/>
      <point x="1520" y="98"/>
      <point x="1520" y="256" type="curve" smooth="yes"/>
      <point x="1520" y="1321" type="line" smooth="yes"/>
      <point x="1520" y="1479"/>
      <point x="1747" y="1434"/>
      <point x="1753" y="1481" type="curve"/>
      <point x="1753" y="1495" type="line" smooth="yes"/>
      <point x="1753" y="1528"/>
      <point x="1753" y="1563"/>
      <point x="1743" y="1577" type="curve"/>
    </contour>
    <contour>
      <point x="915" y="789" type="move" name="center"/>
    </contour>
    <contour>
      <point x="915" y="1577" type="move" name="top"/>
    </contour>
  </outline>
</glyph>
<glyph name="I" format="1">
  <advance width="862"/>
  <unicode hex="0049"/>
  <outline>
    <contour>
      <point x="92" y="1577" type="line"/>
      <point x="78" y="1563"/>
      <point x="78" y="1530"/>
      <point x="78" y="1497" type="curve" smooth="yes"/>
      <point x="78" y="1481" type="line" smooth="yes"/>
      <point x="78" y="1434"/>
      <point x="311" y="1479"/>
      <point x="311" y="1321" type="curve" smooth="yes"/>
      <point x="311" y="256" type="line" smooth="yes"/>
      <point x="311" y="98"/>
      <point x="78" y="143"/>
      <point x="78" y="96" type="curve" smooth="yes"/>
      <point x="78" y="80" type="line" smooth="yes"/>
      <point x="78" y="47"/>
      <point x="78" y="14"/>
      <point x="92" y="0" type="curve"/>
      <point x="774" y="0" type="line"/>
      <point x="784" y="14"/>
      <point x="784" y="49"/>
      <point x="784" y="82" type="curve" smooth="yes"/>
      <point x="784" y="96" type="line"/>
      <point x="778" y="143"/>
      <point x="551" y="98"/>
      <point x="551" y="256" type="curve" smooth="yes"/>
      <point x="551" y="1321" type="line" smooth="yes"/>
      <point x="551" y="1479"/>
      <point x="778" y="1434"/>
      <point x="784" y="1481" type="curve"/>
      <point x="784" y="1495" type="line" smooth="yes"/>
      <point x="784" y="1528"/>
      <point x="784" y="1563"/>
      <point x="774" y="1577" type="curve"/>
    </contour>
    <contour>
      <point x="776" y="10" type="move" name="ogonek"/>
    </contour>
    <contour>
      <point x="431" y="1577" type="move" name="top"/>
    </contour>
  </outline>
</glyph>
<glyph name="L" format="1">
  <advance width="1480"/>
  <unicode hex="004C"/>
  <outline>
    <contour>
      <point x="92" y="1577" type="line"/>
      <point x="78" y="1563"/>
      <point x="78" y="1530"/>
      <point x="78" y="1497" type="curve" smooth="yes"/>
      <point x="78" y="1481" type="line" smooth="yes"/>
      <point x="78" y="1434"/>
      <point x="311" y="1479"/>
      <point x="311" y="1321" type="curve" smooth="yes"/>
      <point x="311" y="256" type="line" smooth="yes"/>
      <point x="311" y="98"/>
      <point x="78" y="143"/>
      <point x="78" y="96" type="curve" smooth="yes"/>
      <point x="78" y="80" type="line" smooth="yes"/>
      <point x="78" y="47"/>
      <point x="78" y="14"/>
      <point x="92" y="0" type="curve"/>
      <point x="1251" y="0" type="line" smooth="yes"/>
      <point x="1296" y="0"/>
      <point x="1327" y="6"/>
      <point x="1337" y="57" type="curve" smooth="yes"/>
      <point x="1393" y="315" type="line" smooth="yes"/>
      <point x="1395" y="328"/>
      <point x="1397" y="344"/>
      <point x="1397" y="359" type="curve" smooth="yes"/>
      <point x="1397" y="382"/>
      <point x="1392" y="401"/>
      <point x="1372" y="401" type="curve" smooth="yes"/>
      <point x="1302" y="401"/>
      <point x="1297" y="363"/>
      <point x="1266" y="315" type="curve" smooth="yes"/>
      <point x="1177" y="178"/>
      <point x="1029" y="104"/>
      <point x="821" y="104" type="curve" smooth="yes"/>
      <point x="662" y="104"/>
      <point x="551" y="106"/>
      <point x="551" y="399" type="curve" smooth="yes"/>
      <point x="551" y="1321" type="line" smooth="yes"/>
      <point x="551" y="1479"/>
      <point x="778" y="1434"/>
      <point x="784" y="1481" type="curve"/>
      <point x="784" y="1495" type="line" smooth="yes"/>
      <point x="784" y="1528"/>
      <point x="784" y="1563"/>
      <point x="774" y="1577" type="curve"/>
    </contour>
    <contour>
      <point x="740" y="1577" type="move" name="top"/>
    </contour>
    <contour>
      <point x="740" y="0" type="move" name="bottom"/>
    </contour>
  </outline>
</glyph>
<glyph name="M" format="1">
  <advance width="2086"/>
  <unicode hex="004D"/>
  <outline>
    <contour>
      <point x="1694" y="1599" type="line" smooth="yes"/>
      <point x="1688" y="1599"/>
      <point x="1636" y="1591"/>
      <point x="1630" y="1591" type="curve" smooth="yes"/>
      <point x="1399" y="1591" type="line"/>
      <point x="1393" y="1585" type="line"/>
      <point x="1391" y="1560"/>
      <point x="1382" y="1442"/>
      <point x="1378" y="1417" type="curve" smooth="yes"/>
      <point x="1374" y="1388"/>
      <point x="1350" y="1346"/>
      <point x="1358" y="1311" type="curve"/>
      <point x="1251" y="975" type="line"/>
      <point x="1235" y="948"/>
      <point x="1235" y="912"/>
      <point x="1217" y="885" type="curve"/>
      <point x="1049" y="457" type="line" smooth="yes"/>
      <point x="1049" y="455"/>
      <point x="1047" y="455"/>
      <point x="1047" y="455" type="curve" smooth="yes"/>
      <point x="1024" y="455"/>
      <point x="1022" y="518"/>
      <point x="1006" y="541" type="curve"/>
      <point x="895" y="856" type="line"/>
      <point x="895" y="870" type="line"/>
      <point x="895" y="870"/>
      <point x="849" y="993"/>
      <point x="831" y="1044" type="curve" smooth="yes"/>
      <point x="829" y="1050"/>
      <point x="821" y="1059"/>
      <point x="823" y="1067" type="curve"/>
      <point x="719" y="1382" type="line"/>
      <point x="713" y="1397" type="line"/>
      <point x="670" y="1571" type="line" smooth="yes"/>
      <point x="670" y="1577"/>
      <point x="649" y="1591"/>
      <point x="641" y="1591" type="curve" smooth="yes"/>
      <point x="276" y="1591" type="line" smooth="yes"/>
      <point x="260" y="1591"/>
      <point x="262" y="1548"/>
      <point x="262" y="1540" type="curve" smooth="yes"/>
      <point x="262" y="1536" type="line"/>
      <point x="264" y="1528"/>
      <point x="270" y="1509"/>
      <point x="270" y="1507" type="curve" smooth="yes"/>
      <point x="270" y="1507"/>
      <point x="287" y="1501"/>
      <point x="291" y="1501" type="curve" smooth="yes"/>
      <point x="297" y="1499"/>
      <point x="342" y="1497"/>
      <point x="348" y="1493" type="curve" smooth="yes"/>
      <point x="354" y="1491"/>
      <point x="389" y="1456"/>
      <point x="397" y="1444" type="curve" smooth="yes"/>
      <point x="403" y="1436"/>
      <point x="422" y="1390"/>
      <point x="424" y="1382" type="curve" smooth="yes"/>
      <point x="424" y="1380"/>
      <point x="426" y="1351"/>
      <point x="426" y="1339" type="curve" smooth="yes"/>
      <point x="426" y="1329"/>
      <point x="424" y="1294"/>
      <point x="424" y="1290" type="curve" smooth="yes"/>
      <point x="420" y="1247"/>
      <point x="395" y="1040"/>
      <point x="389" y="995" type="curve"/>
      <point x="371" y="950"/>
      <point x="377" y="897"/>
      <point x="369" y="848" type="curve" smooth="yes"/>
      <point x="363" y="809"/>
      <point x="327" y="623"/>
      <point x="319" y="582" type="curve"/>
      <point x="321" y="566"/>
      <point x="313" y="548"/>
      <point x="311" y="532" type="curve" smooth="yes"/>
      <point x="299" y="408" type="line"/>
      <point x="287" y="394"/>
      <point x="287" y="364"/>
      <point x="285" y="350" type="curve"/>
      <point x="279" y="332"/>
      <point x="254" y="243"/>
      <point x="250" y="225" type="curve"/>
      <point x="240" y="217"/>
      <point x="225" y="194"/>
      <point x="221" y="188" type="curve" smooth="yes"/>
      <point x="180" y="143"/>
      <point x="139" y="122"/>
      <point x="80" y="104" type="curve"/>
      <point x="74" y="86"/>
      <point x="74" y="77"/>
      <point x="74" y="59" type="curve" smooth="yes"/>
      <point x="74" y="53"/>
      <point x="74" y="20"/>
      <point x="88" y="20" type="curve" smooth="yes"/>
      <point x="571" y="20" type="line" smooth="yes"/>
      <point x="579" y="20"/>
      <point x="586" y="72"/>
      <point x="586" y="78" type="curve" smooth="yes"/>
      <point x="586" y="146"/>
      <point x="504" y="110"/>
      <point x="473" y="133" type="curve" smooth="yes"/>
      <point x="438" y="168" type="line" smooth="yes"/>
      <point x="420" y="193"/>
      <point x="403" y="229"/>
      <point x="403" y="260" type="curve" smooth="yes"/>
      <point x="403" y="442" type="line"/>
      <point x="467" y="891" type="line"/>
      <point x="467" y="926" type="line"/>
      <point x="502" y="1151" type="line"/>
      <point x="500" y="1178"/>
      <point x="504" y="1216"/>
      <point x="508" y="1241" type="curve" smooth="yes"/>
      <point x="510" y="1247"/>
      <point x="512" y="1257"/>
      <point x="520" y="1257" type="curve"/>
      <point x="522" y="1255" type="line"/>
      <point x="537" y="1227" type="line"/>
      <point x="748" y="616" type="line"/>
      <point x="754" y="604" type="line"/>
      <point x="866" y="260" type="line"/>
      <point x="866" y="252" type="line" smooth="yes"/>
      <point x="872" y="232"/>
      <point x="883" y="199"/>
      <point x="887" y="176" type="curve" smooth="yes"/>
      <point x="889" y="166"/>
      <point x="899" y="92"/>
      <point x="901" y="84" type="curve" smooth="yes"/>
      <point x="901" y="82"/>
      <point x="911" y="51"/>
      <point x="915" y="43" type="curve" smooth="yes"/>
      <point x="922" y="29" type="line"/>
      <point x="938" y="17"/>
      <point x="942" y="22"/>
      <point x="958" y="20" type="curve" smooth="yes"/>
      <point x="960" y="20"/>
      <point x="989" y="14"/>
      <point x="993" y="14" type="curve" smooth="yes"/>
      <point x="995" y="14"/>
      <point x="1016" y="25"/>
      <point x="1020" y="29" type="curve" smooth="yes"/>
      <point x="1022" y="29"/>
      <point x="1026" y="39"/>
      <point x="1028" y="43" type="curve" smooth="yes"/>
      <point x="1202" y="590" type="line"/>
      <point x="1208" y="598"/>
      <point x="1227" y="643"/>
      <point x="1231" y="651" type="curve" smooth="yes"/>
      <point x="1251" y="723" type="line" smooth="yes"/>
      <point x="1253" y="725"/>
      <point x="1266" y="748"/>
      <point x="1266" y="750" type="curve" smooth="yes"/>
      <point x="1280" y="787"/>
      <point x="1338" y="952"/>
      <point x="1350" y="989" type="curve"/>
      <point x="1358" y="1004" type="line"/>
      <point x="1427" y="1249" type="line"/>
      <point x="1434" y="1262" type="line"/>
      <point x="1442" y="1217"/>
      <point x="1456" y="1175"/>
      <point x="1462" y="1128" type="curve" smooth="yes"/>
      <point x="1462" y="1116" type="line"/>
      <point x="1518" y="680" type="line" smooth="yes"/>
      <point x="1520" y="676"/>
      <point x="1526" y="657"/>
      <point x="1526" y="651" type="curve" smooth="yes"/>
      <point x="1542" y="538"/>
      <point x="1561" y="412"/>
      <point x="1561" y="295" type="curve" smooth="yes"/>
      <point x="1561" y="229"/>
      <point x="1530" y="182"/>
      <point x="1477" y="147" type="curve" smooth="yes"/>
      <point x="1475" y="145"/>
      <point x="1464" y="141"/>
      <point x="1462" y="139" type="curve"/>
      <point x="1456" y="139"/>
      <point x="1405" y="135"/>
      <point x="1399" y="133" type="curve" smooth="yes"/>
      <point x="1362" y="127"/>
      <point x="1362" y="96"/>
      <point x="1358" y="63" type="curve"/>
      <point x="1358" y="59" type="line" smooth="yes"/>
      <point x="1358" y="36"/>
      <point x="1372" y="20"/>
      <point x="1395" y="20" type="curve" smooth="yes"/>
      <point x="1399" y="20" type="line"/>
      <point x="1424" y="22"/>
      <point x="1620" y="29"/>
      <point x="1645" y="29" type="curve" smooth="yes"/>
      <point x="1989" y="29" type="line"/>
      <point x="2003" y="35" type="line"/>
      <point x="2009" y="92" type="line"/>
      <point x="2009" y="98" type="line" smooth="yes"/>
      <point x="2009" y="116"/>
      <point x="2001" y="141"/>
      <point x="1978" y="141" type="curve"/>
      <point x="1974" y="139" type="line" smooth="yes"/>
      <point x="1972" y="139"/>
      <point x="1950" y="133"/>
      <point x="1946" y="133" type="curve" smooth="yes"/>
      <point x="1909" y="133"/>
      <point x="1847" y="174"/>
      <point x="1835" y="211" type="curve" smooth="yes"/>
      <point x="1827" y="231"/>
      <point x="1808" y="295"/>
      <point x="1806" y="301" type="curve" smooth="yes"/>
      <point x="1800" y="330"/>
      <point x="1776" y="469"/>
      <point x="1772" y="498" type="curve"/>
      <point x="1774" y="531"/>
      <point x="1763" y="559"/>
      <point x="1757" y="590" type="curve" smooth="yes"/>
      <point x="1753" y="610"/>
      <point x="1735" y="733"/>
      <point x="1729" y="764" type="curve" smooth="yes"/>
      <point x="1711" y="887"/>
      <point x="1695" y="1014"/>
      <point x="1679" y="1137" type="curve" smooth="yes"/>
      <point x="1671" y="1209"/>
      <point x="1659" y="1282"/>
      <point x="1659" y="1354" type="curve" smooth="yes"/>
      <point x="1659" y="1405"/>
      <point x="1669" y="1438"/>
      <point x="1702" y="1481" type="curve"/>
      <point x="1702" y="1479"/>
      <point x="1706" y="1479"/>
      <point x="1708" y="1481" type="curve" smooth="yes"/>
      <point x="1714" y="1493" type="line"/>
      <point x="1741" y="1520"/>
      <point x="1812" y="1495"/>
      <point x="1812" y="1542" type="curve" smooth="yes"/>
      <point x="1812" y="1603"/>
      <point x="1792" y="1599"/>
      <point x="1739" y="1599" type="curve" smooth="yes"/>
    </contour>
  </outline>
</glyph>
<glyph name="O" format="1">
  <advance width="1652"/>
  <unicode hex="004F"/>
  <outline>
    <contour>
      <point x="418" y="1593"/>
      <point x="74" y="1209"/>
      <point x="74" y="753" type="curve" smooth="yes"/>
      <point x="74" y="312"/>
      <point x="395" y="-35"/>
      <point x="823" y="-35" type="curve" smooth="yes"/>
      <point x="1255" y="-35"/>
      <point x="1575" y="317"/>
      <point x="1575" y="756" type="curve" smooth="yes"/>
      <point x="1575" y="1226"/>
      <point x="1300" y="1593"/>
      <point x="827" y="1593" type="curve" smooth="yes"/>
    </contour>
    <contour>
      <point x="1176" y="1491"/>
      <point x="1323" y="1080"/>
      <point x="1323" y="704" type="curve" smooth="yes"/>
      <point x="1323" y="354"/>
      <point x="1177" y="64"/>
      <point x="838" y="64" type="curve" smooth="yes"/>
      <point x="486" y="64"/>
      <point x="326" y="461"/>
      <point x="326" y="792" type="curve" smooth="yes"/>
      <point x="326" y="1133"/>
      <point x="443" y="1491"/>
      <point x="808" y="1491" type="curve" smooth="yes"/>
    </contour>
    <contour>
      <point x="826" y="1577" type="move" name="top"/>
    </contour>
  </outline>
</glyph>
<glyph name="P" format="1">
  <advance width="1417"/>
  <unicode hex="0050"/>
  <outline>
    <contour>
      <point x="625" y="1585" type="line" smooth="yes"/>
      <point x="615" y="1585"/>
      <point x="536" y="1579"/>
      <point x="526" y="1579" type="curve" smooth="yes"/>
      <point x="516" y="1577"/>
      <point x="438" y="1579"/>
      <point x="428" y="1579" type="curve"/>
      <point x="424" y="1577"/>
      <point x="385" y="1571"/>
      <point x="379" y="1571" type="curve" smooth="yes"/>
      <point x="369" y="1571"/>
      <point x="284" y="1577"/>
      <point x="274" y="1579" type="curve" smooth="yes"/>
      <point x="113" y="1579" type="line"/>
      <point x="111" y="1577"/>
      <point x="94" y="1573"/>
      <point x="92" y="1571" type="curve" smooth="yes"/>
      <point x="90" y="1571"/>
      <point x="84" y="1565"/>
      <point x="84" y="1565" type="curve"/>
      <point x="84" y="1501" type="line" smooth="yes"/>
      <point x="84" y="1499"/>
      <point x="100" y="1489"/>
      <point x="106" y="1487" type="curve" smooth="yes"/>
      <point x="112" y="1485"/>
      <point x="170" y="1481"/>
      <point x="176" y="1481" type="curve" smooth="yes"/>
      <point x="293" y="1452"/>
      <point x="301" y="1341"/>
      <point x="303" y="1241" type="curve" smooth="yes"/>
      <point x="303" y="940" type="line" smooth="yes"/>
      <point x="303" y="932"/>
      <point x="295" y="870"/>
      <point x="295" y="862" type="curve" smooth="yes"/>
      <point x="295" y="827" type="line" smooth="yes"/>
      <point x="295" y="733"/>
      <point x="303" y="641"/>
      <point x="303" y="545" type="curve" smooth="yes"/>
      <point x="303" y="428"/>
      <point x="310" y="305"/>
      <point x="281" y="188" type="curve" smooth="yes"/>
      <point x="273" y="149"/>
      <point x="221" y="135"/>
      <point x="190" y="127" type="curve" smooth="yes"/>
      <point x="176" y="123"/>
      <point x="106" y="108"/>
      <point x="92" y="104" type="curve" smooth="yes"/>
      <point x="76" y="98"/>
      <point x="78" y="73"/>
      <point x="78" y="59" type="curve" smooth="yes"/>
      <point x="78" y="30"/>
      <point x="90" y="14"/>
      <point x="123" y="14" type="curve" smooth="yes"/>
      <point x="191" y="14"/>
      <point x="258" y="20"/>
      <point x="326" y="20" type="curve" smooth="yes"/>
      <point x="439" y="20"/>
      <point x="551" y="14"/>
      <point x="664" y="14" type="curve" smooth="yes"/>
      <point x="772" y="14" type="line"/>
      <point x="790" y="24"/>
      <point x="793" y="45"/>
      <point x="793" y="63" type="curve" smooth="yes"/>
      <point x="793" y="75"/>
      <point x="792" y="98"/>
      <point x="778" y="104" type="curve"/>
      <point x="651" y="118"/>
      <point x="559" y="136"/>
      <point x="547" y="281" type="curve" smooth="yes"/>
      <point x="547" y="285"/>
      <point x="549" y="318"/>
      <point x="547" y="324" type="curve"/>
      <point x="547" y="332"/>
      <point x="543" y="371"/>
      <point x="541" y="379" type="curve"/>
      <point x="541" y="723" type="line" smooth="yes"/>
      <point x="541" y="733"/>
      <point x="535" y="817"/>
      <point x="535" y="827" type="curve" smooth="yes"/>
      <point x="535" y="841"/>
      <point x="541" y="949"/>
      <point x="541" y="961" type="curve" smooth="yes"/>
      <point x="541" y="965" type="line" smooth="yes"/>
      <point x="541" y="1074"/>
      <point x="532" y="1183"/>
      <point x="532" y="1294" type="curve" smooth="yes"/>
      <point x="532" y="1321"/>
      <point x="535" y="1439"/>
      <point x="535" y="1466" type="curve"/>
      <point x="539" y="1476"/>
      <point x="547" y="1491"/>
      <point x="561" y="1493" type="curve" smooth="yes"/>
      <point x="573" y="1495"/>
      <point x="631" y="1495"/>
      <point x="643" y="1495" type="curve" smooth="yes"/>
      <point x="690" y="1495"/>
      <point x="727" y="1497"/>
      <point x="772" y="1487" type="curve" smooth="yes"/>
      <point x="833" y="1473"/>
      <point x="891" y="1462"/>
      <point x="940" y="1423" type="curve" smooth="yes"/>
      <point x="946" y="1419"/>
      <point x="990" y="1376"/>
      <point x="1004" y="1360" type="curve" smooth="yes"/>
      <point x="1008" y="1356"/>
      <point x="1024" y="1335"/>
      <point x="1024" y="1333" type="curve" smooth="yes"/>
      <point x="1030" y="1323"/>
      <point x="1055" y="1259"/>
      <point x="1059" y="1241" type="curve"/>
      <point x="1069" y="1214"/>
      <point x="1067" y="1194"/>
      <point x="1067" y="1165" type="curve" smooth="yes"/>
      <point x="1067" y="1140"/>
      <point x="1069" y="1104"/>
      <point x="1059" y="1079" type="curve"/>
      <point x="1053" y="1059"/>
      <point x="1014" y="966"/>
      <point x="1004" y="946" type="curve"/>
      <point x="963" y="895"/>
      <point x="902" y="854"/>
      <point x="836" y="842" type="curve" smooth="yes"/>
      <point x="822" y="840"/>
      <point x="708" y="829"/>
      <point x="694" y="827" type="curve" smooth="yes"/>
      <point x="671" y="825"/>
      <point x="645" y="809"/>
      <point x="645" y="782" type="curve" smooth="yes"/>
      <point x="645" y="755"/>
      <point x="659" y="733"/>
      <point x="688" y="729" type="curve" smooth="yes"/>
      <point x="776" y="729" type="line" smooth="yes"/>
      <point x="887" y="729"/>
      <point x="996" y="738"/>
      <point x="1096" y="793" type="curve" smooth="yes"/>
      <point x="1108" y="799"/>
      <point x="1147" y="823"/>
      <point x="1151" y="827" type="curve" smooth="yes"/>
      <point x="1163" y="837"/>
      <point x="1241" y="912"/>
      <point x="1264" y="932" type="curve" smooth="yes"/>
      <point x="1315" y="985"/>
      <point x="1333" y="1089"/>
      <point x="1333" y="1159" type="curve" smooth="yes"/>
      <point x="1333" y="1280"/>
      <point x="1284" y="1386"/>
      <point x="1194" y="1466" type="curve" smooth="yes"/>
      <point x="1178" y="1478"/>
      <point x="1110" y="1528"/>
      <point x="1096" y="1536" type="curve" smooth="yes"/>
      <point x="1092" y="1538"/>
      <point x="1042" y="1552"/>
      <point x="1024" y="1556" type="curve" smooth="yes"/>
      <point x="977" y="1568"/>
      <point x="926" y="1575"/>
      <point x="877" y="1579" type="curve" smooth="yes"/>
      <point x="871" y="1579"/>
      <point x="708" y="1583"/>
      <point x="645" y="1585" type="curve" smooth="yes"/>
    </contour>
    <contour>
      <point x="109" y="1477"/>
      <point x="109" y="1468"/>
      <point x="113" y="1468" type="curve" smooth="yes"/>
      <point x="117" y="1468"/>
      <point x="117" y="1477"/>
      <point x="113" y="1477" type="curve" smooth="yes"/>
    </contour>
  </outline>
</glyph>
<glyph name="S" format="1">
  <advance width="1394"/>
  <unicode hex="0053"/>
  <outline>
    <contour>
      <point x="526" y="1591"/>
      <point x="295" y="1452"/>
      <point x="295" y="1187" type="curve" smooth="yes"/>
      <point x="295" y="978"/>
      <point x="425" y="864"/>
      <point x="568" y="788" type="curve" smooth="yes"/>
      <point x="834" y="646" type="line" smooth="yes"/>
      <point x="1021" y="546"/>
      <point x="1082" y="468"/>
      <point x="1082" y="330" type="curve" smooth="yes"/>
      <point x="1082" y="172"/>
      <point x="967" y="65"/>
      <point x="772" y="65" type="curve" smooth="yes"/>
      <point x="476" y="65"/>
      <point x="407" y="300"/>
      <point x="359" y="467" type="curve"/>
      <point x="325" y="467" type="line"/>
      <point x="313" y="82" type="line"/>
      <point x="347" y="58"/>
      <point x="518" y="-30"/>
      <point x="774" y="-30" type="curve" smooth="yes"/>
      <point x="1085" y="-30"/>
      <point x="1304" y="124"/>
      <point x="1304" y="423" type="curve" smooth="yes"/>
      <point x="1304" y="607"/>
      <point x="1194" y="736"/>
      <point x="1000" y="840" type="curve" smooth="yes"/>
      <point x="694" y="1004" type="line" smooth="yes"/>
      <point x="615" y="1046"/>
      <point x="510" y="1116"/>
      <point x="510" y="1245" type="curve" smooth="yes"/>
      <point x="510" y="1416"/>
      <point x="606" y="1498"/>
      <point x="778" y="1498" type="curve" smooth="yes"/>
      <point x="1059" y="1498"/>
      <point x="1114" y="1353"/>
      <point x="1183" y="1148" type="curve"/>
      <point x="1193" y="1150"/>
      <point x="1212" y="1154"/>
      <point x="1212" y="1157" type="curve" smooth="yes"/>
      <point x="1212" y="1473" type="line"/>
      <point x="1122" y="1532"/>
      <point x="987" y="1591"/>
      <point x="802" y="1591" type="curve" smooth="yes"/>
    </contour>
    <contour>
      <point x="697" y="0" type="move" name="top"/>
    </contour>
    <contour>
      <point x="697" y="0" type="move" name="bottom"/>
    </contour>
  </outline>
</glyph>
<glyph name="a" format="1">
  <advance width="1037"/>
  <unicode hex="0061"/>
  <outline>
    <contour>
      <point x="312" y="1059"/>
      <point x="117" y="964"/>
      <point x="117" y="812" type="curve" smooth="yes"/>
      <point x="117" y="730"/>
      <point x="159" y="666"/>
      <point x="228" y="666" type="curve" smooth="yes"/>
      <point x="283" y="666"/>
      <point x="331" y="708"/>
      <point x="331" y="755" type="curve" smooth="yes"/>
      <point x="331" y="758" type="line" smooth="yes"/>
      <point x="329" y="812"/>
      <point x="288" y="869"/>
      <point x="288" y="874" type="curve" smooth="yes"/>
      <point x="288" y="945"/>
      <point x="368" y="984"/>
      <point x="476" y="984" type="curve" smooth="yes"/>
      <point x="617" y="984"/>
      <point x="666" y="852"/>
      <point x="666" y="692" type="curve" smooth="yes"/>
      <point x="666" y="629" type="line"/>
      <point x="419" y="539" type="line" smooth="yes"/>
      <point x="219" y="463"/>
      <point x="100" y="383"/>
      <point x="100" y="228" type="curve" smooth="yes"/>
      <point x="100" y="92"/>
      <point x="212" y="-18"/>
      <point x="352" y="-18" type="curve" smooth="yes"/>
      <point x="493" y="-18"/>
      <point x="630" y="98"/>
      <point x="672" y="188" type="curve"/>
      <point x="678" y="99"/>
      <point x="734" y="-12"/>
      <point x="840" y="-12" type="curve" smooth="yes"/>
      <point x="951" y="-12"/>
      <point x="1023" y="77"/>
      <point x="1023" y="140" type="curve" smooth="yes"/>
      <point x="1023" y="171"/>
      <point x="998" y="194"/>
      <point x="971" y="170" type="curve" smooth="yes"/>
      <point x="905" y="112"/>
      <point x="840" y="125"/>
      <point x="840" y="237" type="curve" smooth="yes"/>
      <point x="840" y="658" type="line" smooth="yes"/>
      <point x="840" y="919"/>
      <point x="754" y="1059"/>
      <point x="490" y="1059" type="curve" smooth="yes"/>
    </contour>
    <contour>
      <point x="662" y="537"/>
      <point x="664" y="535"/>
      <point x="666" y="523" type="curve"/>
      <point x="666" y="272" type="line" smooth="yes"/>
      <point x="666" y="248"/>
      <point x="659" y="243"/>
      <point x="655" y="238" type="curve" smooth="yes"/>
      <point x="602" y="180"/>
      <point x="518" y="123"/>
      <point x="432" y="123" type="curve" smooth="yes"/>
      <point x="376" y="123"/>
      <point x="297" y="163"/>
      <point x="297" y="256" type="curve" smooth="yes"/>
      <point x="297" y="390"/>
      <point x="451" y="467"/>
      <point x="584" y="518" type="curve" smooth="yes"/>
      <point x="584" y="518"/>
      <point x="638" y="537"/>
      <point x="656" y="537" type="curve" smooth="yes"/>
    </contour>
    <contour>
      <point x="960" y="10" type="move" name="ogonek"/>
    </contour>
    <contour>
      <point x="548" y="1059" type="move" name="top"/>
    </contour>
  </outline>
</glyph>
<glyph name="b" format="1">
  <advance width="1193"/>
  <unicode hex="0062"/>
  <outline>
    <contour>
      <point x="567" y="1059"/>
      <point x="456" y="1013"/>
      <point x="353" y="902" type="curve"/>
      <point x="179" y="154" type="line"/>
      <point x="179" y="128"/>
      <point x="180" y="109"/>
      <point x="182" y="103" type="curve"/>
      <point x="297" y="39"/>
      <point x="405" y="-18"/>
      <point x="581" y="-18" type="curve" smooth="yes"/>
      <point x="891" y="-18"/>
      <point x="1092" y="228"/>
      <point x="1092" y="568" type="curve" smooth="yes"/>
      <point x="1092" y="866"/>
      <point x="926" y="1059"/>
      <point x="699" y="1059" type="curve" smooth="yes"/>
    </contour>
    <contour>
      <point x="333" y="1605"/>
      <point x="326" y="1603"/>
      <point x="318" y="1599" type="curve" smooth="yes"/>
      <point x="303" y="1593"/>
      <point x="76" y="1505"/>
      <point x="24" y="1486" type="curve" smooth="yes"/>
      <point x="11" y="1481"/>
      <point x="6" y="1473"/>
      <point x="6" y="1465" type="curve" smooth="yes"/>
      <point x="6" y="1458"/>
      <point x="10" y="1451"/>
      <point x="17" y="1448" type="curve" smooth="yes"/>
      <point x="179" y="1351" type="line"/>
      <point x="179" y="154" type="line"/>
      <point x="353" y="262" type="line"/>
      <point x="353" y="1572" type="line" smooth="yes"/>
      <point x="353" y="1590"/>
      <point x="353" y="1605"/>
      <point x="339" y="1605" type="curve" smooth="yes"/>
    </contour>
    <contour>
      <point x="875" y="924"/>
      <point x="919" y="683"/>
      <point x="919" y="481" type="curve" smooth="yes"/>
      <point x="919" y="273"/>
      <point x="798" y="82"/>
      <point x="605" y="82" type="curve" smooth="yes"/>
      <point x="487" y="82"/>
      <point x="353" y="155"/>
      <point x="353" y="288" type="curve" smooth="yes"/>
      <point x="353" y="800" type="line"/>
      <point x="401" y="880"/>
      <point x="552" y="924"/>
      <point x="619" y="924" type="curve" smooth="yes"/>
    </contour>
  </outline>
</glyph>
<glyph name="c" format="1">
  <advance width="999"/>
  <unicode hex="0063"/>
  <outline>
    <contour>
      <point x="277" y="1059"/>
      <point x="82" y="830"/>
      <point x="82" y="536" type="curve" smooth="yes"/>
      <point x="82" y="179"/>
      <point x="284" y="-18"/>
      <point x="545" y="-18" type="curve" smooth="yes"/>
      <point x="722" y="-18"/>
      <point x="868" y="85"/>
      <point x="926" y="215" type="curve"/>
      <point x="926" y="219"/>
      <point x="927" y="222"/>
      <point x="927" y="225" type="curve" smooth="yes"/>
      <point x="927" y="251"/>
      <point x="909" y="280"/>
      <point x="886" y="280" type="curve" smooth="yes"/>
      <point x="848" y="280"/>
      <point x="783" y="146"/>
      <point x="604" y="146" type="curve" smooth="yes"/>
      <point x="387" y="146"/>
      <point x="250" y="346"/>
      <point x="250" y="593" type="curve" smooth="yes"/>
      <point x="250" y="792"/>
      <point x="328" y="977"/>
      <point x="530" y="977" type="curve" smooth="yes"/>
      <point x="671" y="977"/>
      <point x="707" y="886"/>
      <point x="769" y="781" type="curve" smooth="yes"/>
      <point x="781" y="761"/>
      <point x="800" y="751"/>
      <point x="824" y="751" type="curve" smooth="yes"/>
      <point x="864" y="751"/>
      <point x="911" y="780"/>
      <point x="911" y="833" type="curve" smooth="yes"/>
      <point x="911" y="990"/>
      <point x="699" y="1059"/>
      <point x="558" y="1059" type="curve" smooth="yes"/>
    </contour>
    <contour>
      <point x="502" y="1059" type="move" name="top"/>
    </contour>
    <contour>
      <point x="502" y="0" type="move" name="bottom"/>
    </contour>
  </outline>
</glyph>
<glyph name="d" format="1">
  <advance width="1188"/>
  <unicode hex="0064"/>
  <outline>
    <contour>
      <point x="998" y="1605"/>
      <point x="991" y="1603"/>
      <point x="983" y="1599" type="curve" smooth="yes"/>
      <point x="968" y="1593"/>
      <point x="741" y="1505"/>
      <point x="689" y="1486" type="curve" smooth="yes"/>
      <point x="676" y="1481"/>
      <point x="671" y="1473"/>
      <point x="671" y="1465" type="curve" smooth="yes"/>
      <point x="671" y="1458"/>
      <point x="675" y="1451"/>
      <point x="682" y="1448" type="curve" smooth="yes"/>
      <point x="844" y="1351" type="line"/>
      <point x="844" y="989" type="line" smooth="yes"/>
      <point x="844" y="985"/>
      <point x="839" y="980"/>
      <point x="827" y="987" type="curve" smooth="yes"/>
      <point x="782" y="1013"/>
      <point x="692" y="1059"/>
      <point x="584" y="1059" type="curve" smooth="yes"/>
      <point x="221" y="1059"/>
      <point x="81" y="740"/>
      <point x="81" y="519" type="curve" smooth="yes"/>
      <point x="81" y="291"/>
      <point x="208" y="-18"/>
      <point x="541" y="-18" type="curve" smooth="yes"/>
      <point x="682" y="-18"/>
      <point x="782" y="49"/>
      <point x="837" y="117" type="curve"/>
      <point x="839" y="117"/>
      <point x="842" y="116"/>
      <point x="843" y="116" type="curve"/>
      <point x="843" y="-11" type="line"/>
      <point x="843" y="-11"/>
      <point x="851" y="-21"/>
      <point x="855" y="-23" type="curve" smooth="yes"/>
      <point x="855" y="-23"/>
      <point x="857" y="-25"/>
      <point x="859" y="-25" type="curve" smooth="yes"/>
      <point x="884" y="-25"/>
      <point x="902" y="-9"/>
      <point x="927" y="-3" type="curve" smooth="yes"/>
      <point x="1005" y="15"/>
      <point x="1088" y="19"/>
      <point x="1164" y="46" type="curve" smooth="yes"/>
      <point x="1178" y="51"/>
      <point x="1179" y="72"/>
      <point x="1179" y="87" type="curve" smooth="yes"/>
      <point x="1179" y="130" type="line" smooth="yes"/>
      <point x="1178" y="135"/>
      <point x="1174" y="136"/>
      <point x="1170" y="136" type="curve" smooth="yes"/>
      <point x="1164" y="136" type="line" smooth="yes"/>
      <point x="1152" y="136"/>
      <point x="1139" y="130"/>
      <point x="1125" y="130" type="curve" smooth="yes"/>
      <point x="1064" y="130"/>
      <point x="1020" y="168"/>
      <point x="1018" y="229" type="curve" smooth="yes"/>
      <point x="1018" y="1574" type="line" smooth="yes"/>
      <point x="1018" y="1590"/>
      <point x="1018" y="1605"/>
      <point x="1004" y="1605" type="curve" smooth="yes"/>
    </contour>
    <contour>
      <point x="729" y="965"/>
      <point x="844" y="872"/>
      <point x="844" y="781" type="curve" smooth="yes"/>
      <point x="844" y="224" type="line"/>
      <point x="824" y="198"/>
      <point x="738" y="108"/>
      <point x="604" y="108" type="curve" smooth="yes"/>
      <point x="403" y="108"/>
      <point x="262" y="294"/>
      <point x="262" y="553" type="curve" smooth="yes"/>
      <point x="262" y="799"/>
      <point x="397" y="965"/>
      <point x="587" y="965" type="curve" smooth="yes"/>
    </contour>
    <contour>
      <point x="607" y="530" type="move" name="center"/>
    </contour>
  </outline>
</glyph>
<glyph name="e" format="1">
  <advance width="1016"/>
  <unicode hex="0065"/>
  <outline>
    <contour>
      <point x="235" y="1059"/>
      <point x="82" y="797"/>
      <point x="82" y="538" type="curve" smooth="yes"/>
      <point x="82" y="261"/>
      <point x="244" y="-23"/>
      <point x="548" y="-23" type="curve" smooth="yes"/>
      <point x="745" y="-23"/>
      <point x="879" y="115"/>
      <point x="925" y="212" type="curve"/>
      <point x="929" y="222"/>
      <point x="931" y="231"/>
      <point x="931" y="239" type="curve" smooth="yes"/>
      <point x="931" y="260"/>
      <point x="923" y="269"/>
      <point x="901" y="270" type="curve"/>
      <point x="897" y="270" type="line" smooth="yes"/>
      <point x="859" y="270"/>
      <point x="793" y="140"/>
      <point x="602" y="140" type="curve" smooth="yes"/>
      <point x="364" y="140"/>
      <point x="257" y="372"/>
      <point x="257" y="604" type="curve" smooth="yes"/>
      <point x="257" y="639" type="line"/>
      <point x="777" y="639" type="line" smooth="yes"/>
      <point x="827" y="639"/>
      <point x="908" y="649"/>
      <point x="916" y="657" type="curve" smooth="yes"/>
      <point x="916" y="659"/>
      <point x="918" y="676"/>
      <point x="918" y="682" type="curve" smooth="yes"/>
      <point x="918" y="688"/>
      <point x="916" y="711"/>
      <point x="916" y="715" type="curve" smooth="yes"/>
      <point x="892" y="909"/>
      <point x="728" y="1059"/>
      <point x="526" y="1059" type="curve" smooth="yes"/>
    </contour>
    <contour>
      <point x="656" y="975"/>
      <point x="710" y="811"/>
      <point x="710" y="748" type="curve" smooth="yes"/>
      <point x="710" y="731"/>
      <point x="705" y="721"/>
      <point x="694" y="721" type="curve" smooth="yes"/>
      <point x="645" y="721" type="line" smooth="yes"/>
      <point x="522" y="721"/>
      <point x="380" y="702"/>
      <point x="259" y="702" type="curve"/>
      <point x="270" y="827"/>
      <point x="365" y="975"/>
      <point x="506" y="975" type="curve" smooth="yes"/>
    </contour>
    <contour>
      <point x="886" y="10" type="move" name="ogonek"/>
    </contour>
    <contour>
      <point x="512" y="0" type="move" name="bottom"/>
    </contour>
    <contour>
      <point x="512" y="1059" type="move" name="top"/>
    </contour>
  </outline>
</glyph>
<glyph name="f" format="1">
  <advance width="733"/>
  <unicode hex="0066"/>
  <outline>
    <contour>
      <point x="403" y="1596"/>
      <point x="243" y="1334"/>
      <point x="243" y="1139" type="curve" smooth="yes"/>
      <point x="243" y="1137"/>
      <point x="238" y="1073"/>
      <point x="223" y="1055" type="curve" smooth="yes"/>
      <point x="190" y="1016"/>
      <point x="147" y="1012"/>
      <point x="90" y="1012" type="curve" smooth="yes"/>
      <point x="73" y="1012"/>
      <point x="76" y="977"/>
      <point x="76" y="963" type="curve" smooth="yes"/>
      <point x="76" y="949"/>
      <point x="76" y="932"/>
      <point x="90" y="922" type="curve"/>
      <point x="200" y="922" type="line" smooth="yes"/>
      <point x="231" y="922"/>
      <point x="243" y="902"/>
      <point x="243" y="865" type="curve" smooth="yes"/>
      <point x="243" y="262" type="line" smooth="yes"/>
      <point x="243" y="166"/>
      <point x="230" y="134"/>
      <point x="99" y="70" type="curve" smooth="yes"/>
      <point x="78" y="62"/>
      <point x="70" y="49"/>
      <point x="70" y="39" type="curve" smooth="yes"/>
      <point x="70" y="18"/>
      <point x="83" y="0"/>
      <point x="99" y="0" type="curve" smooth="yes"/>
      <point x="561" y="0" type="line" smooth="yes"/>
      <point x="577" y="0"/>
      <point x="590" y="18"/>
      <point x="590" y="39" type="curve" smooth="yes"/>
      <point x="590" y="49"/>
      <point x="582" y="62"/>
      <point x="561" y="70" type="curve" smooth="yes"/>
      <point x="430" y="134"/>
      <point x="417" y="166"/>
      <point x="417" y="262" type="curve" smooth="yes"/>
      <point x="417" y="922" type="line"/>
      <point x="602" y="922" type="line" smooth="yes"/>
      <point x="622" y="922"/>
      <point x="631" y="949"/>
      <point x="631" y="976" type="curve" smooth="yes"/>
      <point x="631" y="1005"/>
      <point x="621" y="1035"/>
      <point x="603" y="1035" type="curve" smooth="yes"/>
      <point x="417" y="1035" type="line"/>
      <point x="417" y="1212" type="line" smooth="yes"/>
      <point x="417" y="1354"/>
      <point x="460" y="1504"/>
      <point x="571" y="1504" type="curve" smooth="yes"/>
      <point x="577" y="1504"/>
      <point x="596" y="1499"/>
      <point x="600" y="1497" type="curve" smooth="yes"/>
      <point x="668" y="1460"/>
      <point x="720" y="1368"/>
      <point x="800" y="1368" type="curve" smooth="yes"/>
      <point x="839" y="1368"/>
      <point x="881" y="1404"/>
      <point x="881" y="1437" type="curve" smooth="yes"/>
      <point x="881" y="1453"/>
      <point x="882" y="1481"/>
      <point x="874" y="1497" type="curve" smooth="yes"/>
      <point x="831" y="1579"/>
      <point x="748" y="1596"/>
      <point x="663" y="1596" type="curve" smooth="yes"/>
    </contour>
  </outline>
</glyph>
<glyph name="g" format="1">
  <advance width="1162"/>
  <unicode hex="0067"/>
  <outline>
    <contour>
      <point x="192" y="1078"/>
      <point x="150" y="809"/>
      <point x="150" y="690" type="curve" smooth="yes"/>
      <point x="150" y="462"/>
      <point x="330" y="383"/>
      <point x="330" y="383" type="curve"/>
      <point x="204" y="329"/>
      <point x="132" y="246"/>
      <point x="132" y="171" type="curve" smooth="yes"/>
      <point x="132" y="122"/>
      <point x="160" y="37"/>
      <point x="284" y="-3" type="curve"/>
      <point x="154" y="-54"/>
      <point x="71" y="-137"/>
      <point x="71" y="-251" type="curve" smooth="yes"/>
      <point x="71" y="-421"/>
      <point x="363" y="-464"/>
      <point x="493" y="-464" type="curve" smooth="yes"/>
      <point x="799" y="-464"/>
      <point x="1052" y="-363"/>
      <point x="1052" y="-94" type="curve" smooth="yes"/>
      <point x="1052" y="21"/>
      <point x="971" y="156"/>
      <point x="708" y="156" type="curve" smooth="yes"/>
      <point x="457" y="156" type="line" smooth="yes"/>
      <point x="386" y="156"/>
      <point x="324" y="176"/>
      <point x="324" y="233" type="curve" smooth="yes"/>
      <point x="324" y="281"/>
      <point x="388" y="331"/>
      <point x="434" y="331" type="curve" smooth="yes"/>
      <point x="469" y="331"/>
      <point x="493" y="321"/>
      <point x="536" y="321" type="curve" smooth="yes"/>
      <point x="839" y="321"/>
      <point x="928" y="520"/>
      <point x="928" y="709" type="curve" smooth="yes"/>
      <point x="928" y="795"/>
      <point x="897" y="873"/>
      <point x="897" y="874" type="curve" smooth="yes"/>
      <point x="897" y="897"/>
      <point x="905" y="927"/>
      <point x="939" y="927" type="curve" smooth="yes"/>
      <point x="1024" y="927"/>
      <point x="1049" y="833"/>
      <point x="1106" y="833" type="curve" smooth="yes"/>
      <point x="1143" y="833"/>
      <point x="1188" y="860"/>
      <point x="1188" y="935" type="curve" smooth="yes"/>
      <point x="1188" y="954"/>
      <point x="1168" y="1039"/>
      <point x="1051" y="1039" type="curve" smooth="yes"/>
      <point x="998" y="1039"/>
      <point x="926" y="1007"/>
      <point x="858" y="941" type="curve"/>
      <point x="774" y="1038"/>
      <point x="668" y="1078"/>
      <point x="546" y="1078" type="curve" smooth="yes"/>
    </contour>
    <contour>
      <point x="744" y="-28"/>
      <point x="895" y="-49"/>
      <point x="895" y="-149" type="curve" smooth="yes"/>
      <point x="895" y="-263"/>
      <point x="787" y="-337"/>
      <point x="548" y="-337" type="curve" smooth="yes"/>
      <point x="316" y="-337"/>
      <point x="241" y="-275"/>
      <point x="241" y="-214" type="curve" smooth="yes"/>
      <point x="241" y="-146"/>
      <point x="320" y="-28"/>
      <point x="387" y="-28" type="curve" smooth="yes"/>
      <point x="737" y="-28" type="line" smooth="yes"/>
    </contour>
    <contour>
      <point x="696" y="971"/>
      <point x="741" y="832"/>
      <point x="745" y="706" type="curve" smooth="yes"/>
      <point x="745" y="688" type="line" smooth="yes"/>
      <point x="745" y="565"/>
      <point x="704" y="430"/>
      <point x="536" y="430" type="curve" smooth="yes"/>
      <point x="474" y="430"/>
      <point x="333" y="468"/>
      <point x="333" y="708" type="curve" smooth="yes"/>
      <point x="333" y="873"/>
      <point x="424" y="971"/>
      <point x="539" y="971" type="curve" smooth="yes"/>
    </contour>
    <contour>
      <point x="474" y="1059" type="move" name="top"/>
    </contour>
  </outline>
</glyph>
<glyph name="h" format="1">
  <advance width="1214.0"/>
  <unicode hex="0068"/>
  <outline>
    <contour>
      <point x="567" y="1059"/>
      <point x="406" y="864"/>
      <point x="406" y="864" type="curve"/>
      <point x="406" y="1577" type="line" smooth="yes"/>
      <point x="406" y="1592"/>
      <point x="405" y="1603"/>
      <point x="393" y="1603" type="curve" smooth="yes"/>
      <point x="387" y="1603"/>
      <point x="380" y="1601"/>
      <point x="372" y="1597" type="curve" smooth="yes"/>
      <point x="357" y="1591"/>
      <point x="107" y="1502"/>
      <point x="55" y="1483" type="curve"/>
      <point x="55" y="1449" type="line"/>
      <point x="232" y="1342" type="line"/>
      <point x="232" y="271" type="line" smooth="yes"/>
      <point x="232" y="160"/>
      <point x="200" y="108"/>
      <point x="59" y="53" type="curve" smooth="yes"/>
      <point x="57" y="52"/>
      <point x="59" y="0"/>
      <point x="59" y="0" type="curve" smooth="yes"/>
      <point x="570" y="0" type="line" smooth="yes"/>
      <point x="569" y="0"/>
      <point x="569" y="50"/>
      <point x="570" y="50" type="curve"/>
      <point x="427" y="110"/>
      <point x="406" y="156"/>
      <point x="406" y="272" type="curve" smooth="yes"/>
      <point x="406" y="804" type="line"/>
      <point x="455" y="841"/>
      <point x="565" y="914"/>
      <point x="690" y="914" type="curve" smooth="yes"/>
      <point x="794" y="914"/>
      <point x="858.0" y="836.0"/>
      <point x="858.0" y="709.0" type="curve" smooth="yes"/>
      <point x="858.0" y="271.0" type="line" smooth="yes"/>
      <point x="858.0" y="160.0"/>
      <point x="826.0" y="108.0"/>
      <point x="685.0" y="53.0" type="curve" smooth="yes"/>
      <point x="683.0" y="52.0"/>
      <point x="685.0" y="0.0"/>
      <point x="685.0" y="0.0" type="curve" smooth="yes"/>
      <point x="1196.0" y="0.0" type="line" smooth="yes"/>
      <point x="1195.0" y="0.0"/>
      <point x="1195.0" y="50.0"/>
      <point x="1196.0" y="50.0" type="curve"/>
      <point x="1053.0" y="110.0"/>
      <point x="1032.0" y="156.0"/>
      <point x="1032.0" y="272.0" type="curve" smooth="yes"/>
      <point x="1032.0" y="719.0" type="line" smooth="yes"/>
      <point x="1032.0" y="930.0"/>
      <point x="933" y="1059"/>
      <point x="756" y="1059" type="curve" smooth="yes"/>
    </contour>
    <contour>
      <point x="605" y="530" type="move" name="center"/>
    </contour>
    <contour>
      <point x="597" y="0" type="move" name="bottom"/>
    </contour>
    <contour>
      <point x="605" y="1059" type="move" name="top"/>
    </contour>
  </outline>
</glyph>
<glyph name="i" format="1">
  <advance width="645"/>
  <unicode hex="0069"/>
  <outline>
    <contour>
      <point x="407.0" y="1033.0" type="line" smooth="yes"/>
      <point x="407.0" y="1048.0"/>
      <point x="406.0" y="1059.0"/>
      <point x="394.0" y="1059.0" type="curve" smooth="yes"/>
      <point x="388.0" y="1059.0"/>
      <point x="381.0" y="1057.0"/>
      <point x="373.0" y="1053.0" type="curve" smooth="yes"/>
      <point x="358.0" y="1047.0"/>
      <point x="108.0" y="958.0"/>
      <point x="56.0" y="939.0" type="curve"/>
      <point x="56.0" y="905.0" type="line"/>
      <point x="233.0" y="798.0" type="line"/>
      <point x="233.0" y="271.0" type="line" smooth="yes"/>
      <point x="233.0" y="160.0"/>
      <point x="201.0" y="108.0"/>
      <point x="60.0" y="53.0" type="curve" smooth="yes"/>
      <point x="58.0" y="52.0"/>
      <point x="60.0" y="0.0"/>
      <point x="60.0" y="0.0" type="curve" smooth="yes"/>
      <point x="571.0" y="0.0" type="line" smooth="yes"/>
      <point x="570.0" y="0.0"/>
      <point x="570.0" y="50.0"/>
      <point x="571.0" y="50.0" type="curve"/>
      <point x="428.0" y="110.0"/>
      <point x="407.0" y="156.0"/>
      <point x="407.0" y="272.0" type="curve" smooth="yes"/>
    </contour>
    <contour>
      <point x="237" y="1458"/>
      <point x="192" y="1405"/>
      <point x="192" y="1337" type="curve" smooth="yes"/>
      <point x="192" y="1249"/>
      <point x="256" y="1206"/>
      <point x="317" y="1206" type="curve" smooth="yes"/>
      <point x="378" y="1206"/>
      <point x="441" y="1249"/>
      <point x="441" y="1337" type="curve" smooth="yes"/>
      <point x="441" y="1405"/>
      <point x="397" y="1458"/>
      <point x="317" y="1458" type="curve" smooth="yes"/>
    </contour>
  </outline>
</glyph>
<glyph name="j" format="1">
  <advance width="1648"/>
  <unicode hex="006A"/>
  <outline>
    <contour>
      <point x="586" y="1628"/>
      <point x="445" y="1536"/>
      <point x="285" y="1374" type="curve" smooth="yes"/>
      <point x="281" y="1372"/>
      <point x="256" y="1341"/>
      <point x="250" y="1333" type="curve" smooth="yes"/>
      <point x="246" y="1329"/>
      <point x="236" y="1315"/>
      <point x="236" y="1311" type="curve"/>
      <point x="234" y="1309"/>
      <point x="229" y="1292"/>
      <point x="227" y="1290" type="curve" smooth="yes"/>
      <point x="225" y="1286"/>
      <point x="203" y="1259"/>
      <point x="201" y="1255" type="curve" smooth="yes"/>
      <point x="197" y="1249"/>
      <point x="176" y="1214"/>
      <point x="172" y="1206" type="curve" smooth="yes"/>
      <point x="170" y="1204"/>
      <point x="166" y="1188"/>
      <point x="166" y="1186" type="curve" smooth="yes"/>
      <point x="137" y="1127"/>
      <point x="110" y="1073"/>
      <point x="94" y="1010" type="curve" smooth="yes"/>
      <point x="94" y="981" type="line" smooth="yes"/>
      <point x="92" y="958"/>
      <point x="84" y="945"/>
      <point x="80" y="920" type="curve" smooth="yes"/>
      <point x="80" y="908"/>
      <point x="76" y="826"/>
      <point x="74" y="799" type="curve"/>
      <point x="74" y="764" type="line" smooth="yes"/>
      <point x="74" y="760"/>
      <point x="80" y="715"/>
      <point x="80" y="709" type="curve" smooth="yes"/>
      <point x="98" y="492"/>
      <point x="203" y="289"/>
      <point x="375" y="154" type="curve" smooth="yes"/>
      <point x="385" y="146"/>
      <point x="464" y="96"/>
      <point x="487" y="84" type="curve" smooth="yes"/>
      <point x="565" y="49" type="line" smooth="yes"/>
      <point x="567" y="47"/>
      <point x="582" y="43"/>
      <point x="586" y="43" type="curve" smooth="yes"/>
      <point x="619" y="35"/>
      <point x="703" y="14"/>
      <point x="705" y="14" type="curve" smooth="yes"/>
      <point x="709" y="14"/>
      <point x="768" y="12"/>
      <point x="791" y="12" type="curve" smooth="yes"/>
      <point x="986" y="12"/>
      <point x="1096" y="52"/>
      <point x="1260" y="154" type="curve" smooth="yes"/>
      <point x="1270" y="162"/>
      <point x="1305" y="186"/>
      <point x="1309" y="188" type="curve" smooth="yes"/>
      <point x="1428" y="297"/>
      <point x="1501" y="419"/>
      <point x="1540" y="575" type="curve" smooth="yes"/>
      <point x="1540" y="590" type="line" smooth="yes"/>
      <point x="1548" y="625"/>
      <point x="1567" y="682"/>
      <point x="1567" y="723" type="curve"/>
      <point x="1569" y="725"/>
      <point x="1569" y="790"/>
      <point x="1569" y="813" type="curve" smooth="yes"/>
      <point x="1569" y="928"/>
      <point x="1555" y="1011"/>
      <point x="1518" y="1122" type="curve" smooth="yes"/>
      <point x="1518" y="1126"/>
      <point x="1499" y="1167"/>
      <point x="1497" y="1171" type="curve"/>
      <point x="1497" y="1178" type="line"/>
      <point x="1442" y="1298" type="line"/>
      <point x="1438" y="1300"/>
      <point x="1423" y="1315"/>
      <point x="1421" y="1319" type="curve" smooth="yes"/>
      <point x="1415" y="1325"/>
      <point x="1370" y="1389"/>
      <point x="1364" y="1397" type="curve" smooth="yes"/>
      <point x="1309" y="1452" type="line" smooth="yes"/>
      <point x="1307" y="1454"/>
      <point x="1288" y="1464"/>
      <point x="1286" y="1466" type="curve" smooth="yes"/>
      <point x="1136" y="1583"/>
      <point x="1016" y="1628"/>
      <point x="815" y="1628" type="curve" smooth="yes"/>
    </contour>
    <contour>
      <point x="840" y="1544"/>
      <point x="904" y="1534"/>
      <point x="965" y="1501" type="curve" smooth="yes"/>
      <point x="973" y="1497"/>
      <point x="1037" y="1456"/>
      <point x="1055" y="1444" type="curve" smooth="yes"/>
      <point x="1063" y="1440"/>
      <point x="1081" y="1425"/>
      <point x="1083" y="1423" type="curve" smooth="yes"/>
      <point x="1182" y="1305" type="line"/>
      <point x="1198" y="1264"/>
      <point x="1231" y="1235"/>
      <point x="1245" y="1192" type="curve" smooth="yes"/>
      <point x="1298" y="1040"/>
      <point x="1323" y="885"/>
      <point x="1323" y="723" type="curve" smooth="yes"/>
      <point x="1323" y="666"/>
      <point x="1310" y="610"/>
      <point x="1300" y="555" type="curve" smooth="yes"/>
      <point x="1300" y="553"/>
      <point x="1302" y="534"/>
      <point x="1300" y="532" type="curve"/>
      <point x="1300" y="528"/>
      <point x="1282" y="483"/>
      <point x="1280" y="477" type="curve" smooth="yes"/>
      <point x="1260" y="393" type="line" smooth="yes"/>
      <point x="1256" y="383"/>
      <point x="1210" y="299"/>
      <point x="1196" y="274" type="curve" smooth="yes"/>
      <point x="1188" y="258"/>
      <point x="1161" y="227"/>
      <point x="1147" y="217" type="curve" smooth="yes"/>
      <point x="1127" y="201"/>
      <point x="1046" y="147"/>
      <point x="1034" y="139" type="curve" smooth="yes"/>
      <point x="973" y="104"/>
      <point x="908" y="102"/>
      <point x="838" y="92" type="curve"/>
      <point x="831" y="92" type="line" smooth="yes"/>
      <point x="823" y="92"/>
      <point x="762" y="98"/>
      <point x="754" y="98" type="curve" smooth="yes"/>
      <point x="748" y="98" type="line" smooth="yes"/>
      <point x="744" y="98"/>
      <point x="723" y="111"/>
      <point x="719" y="113" type="curve" smooth="yes"/>
      <point x="717" y="113"/>
      <point x="694" y="111"/>
      <point x="690" y="113" type="curve" smooth="yes"/>
      <point x="684" y="119" type="line"/>
      <point x="643" y="148"/>
      <point x="594" y="174"/>
      <point x="557" y="211" type="curve" smooth="yes"/>
      <point x="389" y="379"/>
      <point x="326" y="623"/>
      <point x="326" y="856" type="curve" smooth="yes"/>
      <point x="326" y="924"/>
      <point x="324" y="976"/>
      <point x="334" y="1044" type="curve" smooth="yes"/>
      <point x="338" y="1075"/>
      <point x="379" y="1212"/>
      <point x="389" y="1241" type="curve" smooth="yes"/>
      <point x="393" y="1251"/>
      <point x="449" y="1349"/>
      <point x="467" y="1382" type="curve" smooth="yes"/>
      <point x="490" y="1421"/>
      <point x="532" y="1456"/>
      <point x="571" y="1481" type="curve" smooth="yes"/>
      <point x="589" y="1491"/>
      <point x="654" y="1526"/>
      <point x="664" y="1530" type="curve" smooth="yes"/>
      <point x="701" y="1544"/>
      <point x="733" y="1544"/>
      <point x="770" y="1544" type="curve" smooth="yes"/>
    </contour>
    <contour>
      <point x="547" y="1348"/>
      <point x="547" y="1339"/>
      <point x="551" y="1339" type="curve" smooth="yes"/>
      <point x="555" y="1341"/>
      <point x="555" y="1346"/>
      <point x="551" y="1348" type="curve" smooth="yes"/>
    </contour>
  </outline>
</glyph>
<glyph name="l" format="1">
  <advance width="615"/>
  <unicode hex="006C"/>
  <outline>
    <contour>
      <point x="407.0" y="1579.0" type="line" smooth="yes"/>
      <point x="407.0" y="1594.0"/>
      <point x="406.0" y="1605.0"/>
      <point x="394.0" y="1605.0" type="curve" smooth="yes"/>
      <point x="388.0" y="1605.0"/>
      <point x="381.0" y="1603.0"/>
      <point x="373.0" y="1599.0" type="curve" smooth="yes"/>
      <point x="358.0" y="1593.0"/>
      <point x="108.0" y="1504.0"/>
      <point x="56.0" y="1485.0" type="curve"/>
      <point x="56.0" y="1451.0" type="line"/>
      <point x="233.0" y="1344.0" type="line"/>
      <point x="233.0" y="271.0" type="line" smooth="yes"/>
      <point x="233.0" y="160.0"/>
      <point x="201.0" y="108.0"/>
      <point x="60.0" y="53.0" type="curve" smooth="yes"/>
      <point x="58.0" y="52.0"/>
      <point x="60.0" y="0.0"/>
      <point x="60.0" y="0.0" type="curve" smooth="yes"/>
      <point x="571.0" y="0.0" type="line" smooth="yes"/>
      <point x="570.0" y="0.0"/>
      <point x="570.0" y="50.0"/>
      <point x="571.0" y="50.0" type="curve"/>
      <point x="428.0" y="110.0"/>
      <point x="407.0" y="156.0"/>
      <point x="407.0" y="272.0" type="curve" smooth="yes"/>
    </contour>
    <contour>
      <point x="308" y="0" type="move" name="top"/>
    </contour>
    <contour>
      <point x="308" y="0" type="move" name="bottom"/>
    </contour>
    <contour>
      <point x="595" y="0" type="move" name="topright"/>
    </contour>
  </outline>
</glyph>
<glyph name="m" format="1">
  <advance width="1832"/>
  <unicode hex="006D"/>
  <outline>
    <contour>
      <point x="566.0" y="1059.0"/>
      <point x="412.0" y="864.0"/>
      <point x="412.0" y="864.0" type="curve"/>
      <point x="412.0" y="1033.0" type="line" smooth="yes"/>
      <point x="412.0" y="1048.0"/>
      <point x="411.0" y="1059.0"/>
      <point x="399.0" y="1059.0" type="curve" smooth="yes"/>
      <point x="393.0" y="1059.0"/>
      <point x="386.0" y="1057.0"/>
      <point x="378.0" y="1053.0" type="curve" smooth="yes"/>
      <point x="363.0" y="1047.0"/>
      <point x="113.0" y="958.0"/>
      <point x="61.0" y="939.0" type="curve"/>
      <point x="61.0" y="905.0" type="line"/>
      <point x="238.0" y="798.0" type="line"/>
      <point x="238.0" y="271.0" type="line" smooth="yes"/>
      <point x="238.0" y="160.0"/>
      <point x="206.0" y="108.0"/>
      <point x="65.0" y="53.0" type="curve" smooth="yes"/>
      <point x="63.0" y="52.0"/>
      <point x="65.0" y="0.0"/>
      <point x="65.0" y="0.0" type="curve" smooth="yes"/>
      <point x="573.0" y="0.0" type="line" smooth="yes"/>
      <point x="572.0" y="0.0"/>
      <point x="572.0" y="50.0"/>
      <point x="573.0" y="50.0" type="curve"/>
      <point x="430.0" y="110.0"/>
      <point x="412.0" y="156.0"/>
      <point x="412.0" y="272.0" type="curve" smooth="yes"/>
      <point x="412.0" y="804.0" type="line"/>
      <point x="461.0" y="841.0"/>
      <point x="564.0" y="914.0"/>
      <point x="689.0" y="914.0" type="curve" smooth="yes"/>
      <point x="793.0" y="914.0"/>
      <point x="848.0" y="836.0"/>
      <point x="848.0" y="709.0" type="curve" smooth="yes"/>
      <point x="848.0" y="271.0" type="line" smooth="yes"/>
      <point x="848.0" y="160.0"/>
      <point x="816.0" y="108.0"/>
      <point x="675.0" y="53.0" type="curve" smooth="yes"/>
      <point x="673.0" y="52.0"/>
      <point x="675.0" y="0.0"/>
      <point x="675.0" y="0.0" type="curve" smooth="yes"/>
      <point x="1186.0" y="0.0" type="line" smooth="yes"/>
      <point x="1185.0" y="0.0"/>
      <point x="1185.0" y="50.0"/>
      <point x="1186.0" y="50.0" type="curve"/>
      <point x="1043.0" y="110.0"/>
      <point x="1022.0" y="156.0"/>
      <point x="1022.0" y="272.0" type="curve" smooth="yes"/>
      <point x="1022.0" y="719.0" type="line" smooth="yes"/>
      <point x="1022.0" y="930.0"/>
      <point x="932.0" y="1059.0"/>
      <point x="755.0" y="1059.0" type="curve" smooth="yes"/>
    </contour>
    <contour>
      <point x="998" y="864" type="curve"/>
      <point x="1002.0" y="804.0" type="line"/>
      <point x="1051.0" y="841.0"/>
      <point x="1158.0" y="914.0"/>
      <point x="1283.0" y="914.0" type="curve" smooth="yes"/>
      <point x="1387.0" y="914.0"/>
      <point x="1442.0" y="836.0"/>
      <point x="1442.0" y="709.0" type="curve" smooth="yes"/>
      <point x="1442.0" y="271.0" type="line" smooth="yes"/>
      <point x="1442.0" y="160.0"/>
      <point x="1410.0" y="108.0"/>
      <point x="1269.0" y="53.0" type="curve" smooth="yes"/>
      <point x="1267.0" y="52.0"/>
      <point x="1269.0" y="0.0"/>
      <point x="1269.0" y="0.0" type="curve" smooth="yes"/>
      <point x="1780.0" y="0.0" type="line" smooth="yes"/>
      <point x="1779.0" y="0.0"/>
      <point x="1779.0" y="50.0"/>
      <point x="1780.0" y="50.0" type="curve"/>
      <point x="1637.0" y="110.0"/>
      <point x="1616.0" y="156.0"/>
      <point x="1616.0" y="272.0" type="curve" smooth="yes"/>
      <point x="1616.0" y="719.0" type="line" smooth="yes"/>
      <point x="1616.0" y="930.0"/>
      <point x="1526.0" y="1059.0"/>
      <point x="1349.0" y="1059.0" type="curve" smooth="yes"/>
      <point x="1160.0" y="1059.0"/>
      <point x="998" y="864"/>
    </contour>
  </outline>
</glyph>
<glyph name="n" format="1">
  <advance width="1205.0"/>
  <unicode hex="006E"/>
  <outline>
    <contour>
      <point x="562.0" y="1059.0"/>
      <point x="403.0" y="864.0"/>
      <point x="403.0" y="864.0" type="curve"/>
      <point x="403.0" y="1033.0" type="line" smooth="yes"/>
      <point x="403.0" y="1048.0"/>
      <point x="402.0" y="1059.0"/>
      <point x="390.0" y="1059.0" type="curve" smooth="yes"/>
      <point x="384.0" y="1059.0"/>
      <point x="377.0" y="1057.0"/>
      <point x="369.0" y="1053.0" type="curve" smooth="yes"/>
      <point x="354.0" y="1047.0"/>
      <point x="104.0" y="958.0"/>
      <point x="52.0" y="939.0" type="curve"/>
      <point x="52.0" y="905.0" type="line"/>
      <point x="229.0" y="798.0" type="line"/>
      <point x="229.0" y="271.0" type="line" smooth="yes"/>
      <point x="229.0" y="160.0"/>
      <point x="197.0" y="108.0"/>
      <point x="56.0" y="53.0" type="curve" smooth="yes"/>
      <point x="54.0" y="52.0"/>
      <point x="56.0" y="0.0"/>
      <point x="56.0" y="0.0" type="curve" smooth="yes"/>
      <point x="567.0" y="0.0" type="line" smooth="yes"/>
      <point x="566.0" y="0.0"/>
      <point x="566.0" y="50.0"/>
      <point x="567.0" y="50.0" type="curve"/>
      <point x="424.0" y="110.0"/>
      <point x="403.0" y="156.0"/>
      <point x="403.0" y="272.0" type="curve" smooth="yes"/>
      <point x="403.0" y="804.0" type="line"/>
      <point x="452.0" y="841.0"/>
      <point x="560.0" y="914.0"/>
      <point x="685.0" y="914.0" type="curve" smooth="yes"/>
      <point x="789.0" y="914.0"/>
      <point x="849.0" y="836.0"/>
      <point x="849.0" y="709.0" type="curve" smooth="yes"/>
      <point x="849.0" y="271.0" type="line" smooth="yes"/>
      <point x="849.0" y="160.0"/>
      <point x="817.0" y="108.0"/>
      <point x="676.0" y="53.0" type="curve" smooth="yes"/>
      <point x="674.0" y="52.0"/>
      <point x="676.0" y="0.0"/>
      <point x="676.0" y="0.0" type="curve" smooth="yes"/>
      <point x="1187.0" y="0.0" type="line" smooth="yes"/>
      <point x="1186.0" y="0.0"/>
      <point x="1186.0" y="50.0"/>
      <point x="1187.0" y="50.0" type="curve"/>
      <point x="1044.0" y="110.0"/>
      <point x="1023.0" y="156.0"/>
      <point x="1023.0" y="272.0" type="curve" smooth="yes"/>
      <point x="1023.0" y="719.0" type="line" smooth="yes"/>
      <point x="1023.0" y="930.0"/>
      <point x="928.0" y="1059.0"/>
      <point x="751.0" y="1059.0" type="curve" smooth="yes"/>
    </contour>
    <contour>
      <point x="615.0" y="0" type="move" name="top"/>
    </contour>
    <contour>
      <point x="615.0" y="0" type="move" name="bottom"/>
    </contour>
  </outline>
</glyph>
<glyph name="o" format="1">
  <advance width="1139"/>
  <unicode hex="006F"/>
  <outline>
    <contour>
      <point x="273" y="1059"/>
      <point x="86" y="837"/>
      <point x="86" y="552" type="curve" smooth="yes"/>
      <point x="86" y="237"/>
      <point x="264" y="-18"/>
      <point x="579" y="-18" type="curve" smooth="yes"/>
      <point x="876" y="-18"/>
      <point x="1051" y="223"/>
      <point x="1051" y="519" type="curve" smooth="yes"/>
      <point x="1051" y="822"/>
      <point x="852" y="1059"/>
      <point x="576" y="1059" type="curve" smooth="yes"/>
    </contour>
    <contour>
      <point x="737" y="964"/>
      <point x="845" y="790"/>
      <point x="845" y="494" type="curve" smooth="yes"/>
      <point x="845" y="280"/>
      <point x="789" y="76"/>
      <point x="577" y="76" type="curve" smooth="yes"/>
      <point x="375" y="76"/>
      <point x="294" y="314"/>
      <point x="294" y="538" type="curve" smooth="yes"/>
      <point x="294" y="758"/>
      <point x="361" y="964"/>
      <point x="568" y="964" type="curve" smooth="yes"/>
    </contour>
    <contour>
      <point x="566" y="1059" type="move" name="top"/>
    </contour>
  </outline>
</glyph>
<glyph name="p" format="1">
  <advance width="1183"/>
  <unicode hex="0070"/>
  <outline>
    <contour>
      <point x="932" y="284"/>
      <point x="848" y="76"/>
      <point x="643" y="76" type="curve" smooth="yes"/>
      <point x="478" y="76"/>
      <point x="377" y="164"/>
      <point x="377" y="430" type="curve" smooth="yes"/>
      <point x="377" y="842" type="line"/>
      <point x="340" y="765" type="line"/>
      <point x="418" y="848"/>
      <point x="532" y="906"/>
      <point x="641" y="906" type="curve" smooth="yes"/>
      <point x="801" y="906"/>
      <point x="932" y="788"/>
      <point x="932" y="467" type="curve" smooth="yes"/>
    </contour>
    <contour>
      <point x="398" y="-267"/>
      <point x="377" y="-221"/>
      <point x="377" y="-105" type="curve" smooth="yes"/>
      <point x="377" y="121" type="line"/>
      <point x="344" y="104" type="line"/>
      <point x="377" y="69"/>
      <point x="471" y="-18"/>
      <point x="635" y="-18" type="curve" smooth="yes"/>
      <point x="846" y="-18"/>
      <point x="1095" y="142"/>
      <point x="1095" y="525" type="curve" smooth="yes"/>
      <point x="1095" y="821"/>
      <point x="968" y="1059"/>
      <point x="697" y="1059" type="curve" smooth="yes"/>
      <point x="550" y="1059"/>
      <point x="417" y="972"/>
      <point x="357" y="861" type="curve"/>
      <point x="377" y="856" type="line"/>
      <point x="377" y="1033" type="line" smooth="yes"/>
      <point x="377" y="1048"/>
      <point x="376" y="1059"/>
      <point x="364" y="1059" type="curve" smooth="yes"/>
      <point x="358" y="1059"/>
      <point x="351" y="1057"/>
      <point x="343" y="1053" type="curve" smooth="yes"/>
      <point x="328" y="1047"/>
      <point x="78" y="958"/>
      <point x="26" y="939" type="curve"/>
      <point x="26" y="905" type="line"/>
      <point x="203" y="798" type="line"/>
      <point x="203" y="-106" type="line" smooth="yes"/>
      <point x="203" y="-217"/>
      <point x="171" y="-269"/>
      <point x="30" y="-324" type="curve" smooth="yes"/>
      <point x="29" y="-324"/>
      <point x="29" y="-330"/>
      <point x="29" y="-338" type="curve" smooth="yes"/>
      <point x="29" y="-354"/>
      <point x="30" y="-377"/>
      <point x="30" y="-377" type="curve" smooth="yes"/>
      <point x="541" y="-377" type="line" smooth="yes"/>
      <point x="541" y="-377"/>
      <point x="540" y="-365"/>
      <point x="540" y="-352" type="curve" smooth="yes"/>
      <point x="540" y="-340"/>
      <point x="541" y="-327"/>
      <point x="541" y="-327" type="curve"/>
    </contour>
    <contour>
      <point x="582" y="1059" type="move" name="top"/>
    </contour>
    <contour>
      <point x="582" y="0" type="move" name="bottom"/>
    </contour>
  </outline>
</glyph>
<glyph name="r" format="1">
  <advance width="841"/>
  <unicode hex="0072"/>
  <outline>
    <contour>
      <point x="567" y="50" type="curve"/>
      <point x="424" y="110"/>
      <point x="403" y="156"/>
      <point x="403" y="272" type="curve" smooth="yes"/>
      <point x="403" y="740" type="line"/>
      <point x="381" y="663" type="line"/>
      <point x="425" y="785"/>
      <point x="534" y="878"/>
      <point x="601" y="878" type="curve" smooth="yes"/>
      <point x="631" y="878"/>
      <point x="647" y="876"/>
      <point x="682" y="823" type="curve" smooth="yes"/>
      <point x="695" y="804"/>
      <point x="714" y="795"/>
      <point x="733" y="795" type="curve" smooth="yes"/>
      <point x="783" y="795"/>
      <point x="839" y="849"/>
      <point x="839" y="909" type="curve" smooth="yes"/>
      <point x="839" y="1014"/>
      <point x="740" y="1060"/>
      <point x="679" y="1060" type="curve" smooth="yes"/>
      <point x="559" y="1060"/>
      <point x="451" y="924"/>
      <point x="381" y="759" type="curve"/>
      <point x="403" y="776" type="line"/>
      <point x="403" y="1033" type="line" smooth="yes"/>
      <point x="403" y="1048"/>
      <point x="402" y="1059"/>
      <point x="390" y="1059" type="curve" smooth="yes"/>
      <point x="384" y="1059"/>
      <point x="377" y="1057"/>
      <point x="369" y="1053" type="curve" smooth="yes"/>
      <point x="354" y="1047"/>
      <point x="104" y="958"/>
      <point x="52" y="939" type="curve"/>
      <point x="52" y="905" type="line"/>
      <point x="229" y="798" type="line"/>
      <point x="229" y="271" type="line" smooth="yes"/>
      <point x="229" y="160"/>
      <point x="197" y="108"/>
      <point x="56" y="53" type="curve" smooth="yes"/>
      <point x="54" y="52"/>
      <point x="56" y="0"/>
      <point x="56" y="0" type="curve" smooth="yes"/>
      <point x="567" y="0" type="line" smooth="yes"/>
      <point x="566" y="0"/>
      <point x="566" y="50"/>
    </contour>
    <contour>
      <point x="475" y="1059" type="move" name="top"/>
    </contour>
    <contour>
      <point x="475" y="0" type="move" name="bottom"/>
    </contour>
  </outline>
</glyph>
<glyph name="s" format="1">
  <advance width="813"/>
  <unicode hex="0073"/>
  <outline>
    <contour>
      <point x="205" y="1048"/>
      <point x="80" y="925"/>
      <point x="80" y="788" type="curve" smooth="yes"/>
      <point x="80" y="688"/>
      <point x="169" y="580"/>
      <point x="252" y="538" type="curve"/>
      <point x="437" y="421" type="line" smooth="yes"/>
      <point x="519" y="370"/>
      <point x="586" y="317"/>
      <point x="586" y="220" type="curve" smooth="yes"/>
      <point x="586" y="165"/>
      <point x="534" y="83"/>
      <point x="479" y="69" type="curve" smooth="yes"/>
      <point x="478" y="68"/>
      <point x="476" y="68"/>
      <point x="473" y="68" type="curve" smooth="yes"/>
      <point x="468" y="68"/>
      <point x="460" y="69"/>
      <point x="459" y="69" type="curve" smooth="yes"/>
      <point x="455" y="67"/>
      <point x="428" y="61"/>
      <point x="424" y="61" type="curve" smooth="yes"/>
      <point x="367" y="61" type="line" smooth="yes"/>
      <point x="357" y="65"/>
      <point x="311" y="83"/>
      <point x="305" y="89" type="curve" smooth="yes"/>
      <point x="293" y="97"/>
      <point x="239" y="153"/>
      <point x="227" y="167" type="curve" smooth="yes"/>
      <point x="219" y="175"/>
      <point x="197" y="218"/>
      <point x="193" y="228" type="curve" smooth="yes"/>
      <point x="187" y="246"/>
      <point x="166" y="331"/>
      <point x="164" y="349" type="curve"/>
      <point x="160" y="359"/>
      <point x="133" y="362"/>
      <point x="129" y="362" type="curve" smooth="yes"/>
      <point x="102" y="362"/>
      <point x="78" y="350"/>
      <point x="80" y="321" type="curve" smooth="yes"/>
      <point x="94" y="104" type="line" smooth="yes"/>
      <point x="94" y="65"/>
      <point x="250" y="-17"/>
      <point x="377" y="-17" type="curve" smooth="yes"/>
      <point x="720" y="-17"/>
      <point x="733" y="207"/>
      <point x="733" y="292" type="curve" smooth="yes"/>
      <point x="733" y="388"/>
      <point x="684" y="487"/>
      <point x="598" y="538" type="curve" smooth="yes"/>
      <point x="340" y="691" type="line" smooth="yes"/>
      <point x="294" y="718"/>
      <point x="240" y="761"/>
      <point x="240" y="829" type="curve" smooth="yes"/>
      <point x="240" y="927"/>
      <point x="312" y="983"/>
      <point x="406" y="980" type="curve" smooth="yes"/>
      <point x="540" y="976"/>
      <point x="598" y="818"/>
      <point x="612" y="749" type="curve" smooth="yes"/>
      <point x="614" y="745"/>
      <point x="619" y="734"/>
      <point x="621" y="734" type="curve" smooth="yes"/>
      <point x="623" y="732"/>
      <point x="643" y="728"/>
      <point x="647" y="728" type="curve" smooth="yes"/>
      <point x="674" y="728"/>
      <point x="682" y="746"/>
      <point x="684" y="769" type="curve" smooth="yes"/>
      <point x="684" y="777"/>
      <point x="683" y="825"/>
      <point x="683" y="860" type="curve" smooth="yes"/>
      <point x="683" y="878"/>
      <point x="683" y="892"/>
      <point x="684" y="896" type="curve" smooth="yes"/>
      <point x="684" y="900"/>
      <point x="690" y="945"/>
      <point x="690" y="951" type="curve" smooth="yes"/>
      <point x="690" y="1011"/>
      <point x="542" y="1068"/>
      <point x="373" y="1058" type="curve" smooth="yes"/>
    </contour>
    <contour>
      <point x="407" y="1059" type="move" name="top"/>
    </contour>
    <contour>
      <point x="407" y="0" type="move" name="bottom"/>
    </contour>
  </outline>
</glyph>
<glyph name="t" format="1">
  <advance width="645"/>
  <unicode hex="0074"/>
  <outline>
    <contour>
      <point x="338" y="1235"/>
      <point x="324" y="1228"/>
      <point x="305" y="1210" type="curve" smooth="yes"/>
      <point x="154" y="1064" type="line" smooth="yes"/>
      <point x="83" y="1003"/>
      <point x="52" y="988"/>
      <point x="52" y="957" type="curve" smooth="yes"/>
      <point x="52" y="922"/>
      <point x="76" y="922"/>
      <point x="99" y="922" type="curve" smooth="yes"/>
      <point x="186" y="922" type="line"/>
      <point x="186" y="314" type="line" smooth="yes"/>
      <point x="186" y="117"/>
      <point x="197" y="-16"/>
      <point x="412" y="-16" type="curve" smooth="yes"/>
      <point x="520" y="-16"/>
      <point x="616" y="34"/>
      <point x="616" y="90" type="curve" smooth="yes"/>
      <point x="616" y="109"/>
      <point x="608" y="123"/>
      <point x="588" y="123" type="curve" smooth="yes"/>
      <point x="586" y="123" type="line"/>
      <point x="553" y="117"/>
      <point x="525" y="114"/>
      <point x="502" y="114" type="curve" smooth="yes"/>
      <point x="392" y="114"/>
      <point x="377" y="179"/>
      <point x="377" y="340" type="curve" smooth="yes"/>
      <point x="377" y="922" type="line"/>
      <point x="483" y="922" type="line" smooth="yes"/>
      <point x="561" y="922"/>
      <point x="586" y="926"/>
      <point x="586" y="965" type="curve" smooth="yes"/>
      <point x="586" y="1021"/>
      <point x="558" y="1027"/>
      <point x="518" y="1027" type="curve" smooth="yes"/>
      <point x="377" y="1026" type="line"/>
      <point x="377" y="1160" type="line" smooth="yes"/>
      <point x="377" y="1197"/>
      <point x="373" y="1235"/>
      <point x="349" y="1235" type="curve" smooth="yes"/>
    </contour>
    <contour>
      <point x="323" y="530" type="move" name="center"/>
    </contour>
    <contour>
      <point x="323" y="0" type="move" name="bottom"/>
    </contour>
  </outline>
</glyph>
<glyph name="v" format="1">
  <advance width="1202"/>
  <unicode hex="0076"/>
  <outline>
    <contour>
      <point x="664" y="1452" type="line" smooth="yes"/>
      <point x="648" y="1446"/>
      <point x="573" y="1417"/>
      <point x="559" y="1409" type="curve" smooth="yes"/>
      <point x="555" y="1409"/>
      <point x="516" y="1384"/>
      <point x="502" y="1374" type="curve"/>
      <point x="496" y="1368" type="line" smooth="yes"/>
      <point x="492" y="1366"/>
      <point x="477" y="1362"/>
      <point x="473" y="1360" type="curve" smooth="yes"/>
      <point x="397" y="1298" type="line"/>
      <point x="397" y="1298"/>
      <point x="395" y="1296"/>
      <point x="393" y="1296" type="curve" smooth="yes"/>
      <point x="389" y="1296"/>
      <point x="385" y="1299"/>
      <point x="383" y="1305" type="curve" smooth="yes"/>
      <point x="383" y="1329" type="line" smooth="yes"/>
      <point x="383" y="1362"/>
      <point x="391" y="1392"/>
      <point x="391" y="1425" type="curve" smooth="yes"/>
      <point x="391" y="1450"/>
      <point x="390" y="1452"/>
      <point x="365" y="1452" type="curve" smooth="yes"/>
      <point x="348" y="1452" type="line"/>
      <point x="342" y="1450"/>
      <point x="303" y="1425"/>
      <point x="299" y="1423" type="curve" smooth="yes"/>
      <point x="227" y="1388"/>
      <point x="148" y="1368"/>
      <point x="74" y="1339" type="curve" smooth="yes"/>
      <point x="72" y="1337"/>
      <point x="61" y="1333"/>
      <point x="59" y="1333" type="curve"/>
      <point x="59" y="1331"/>
      <point x="55" y="1321"/>
      <point x="53" y="1319" type="curve"/>
      <point x="53" y="1315" type="line" smooth="yes"/>
      <point x="53" y="1274"/>
      <point x="182" y="1229"/>
      <point x="207" y="1192" type="curve"/>
      <point x="205" y="1051"/>
      <point x="215" y="911"/>
      <point x="215" y="770" type="curve" smooth="yes"/>
      <point x="215" y="680"/>
      <point x="225" y="561"/>
      <point x="145" y="498" type="curve" smooth="yes"/>
      <point x="122" y="482"/>
      <point x="67" y="481"/>
      <point x="59" y="469" type="curve" smooth="yes"/>
      <point x="53" y="459"/>
      <point x="53" y="436"/>
      <point x="53" y="422" type="curve" smooth="yes"/>
      <point x="53" y="408" type="line"/>
      <point x="55" y="404"/>
      <point x="64" y="393"/>
      <point x="68" y="393" type="curve" smooth="yes"/>
      <point x="551" y="393" type="line" smooth="yes"/>
      <point x="561" y="393"/>
      <point x="559" y="422"/>
      <point x="559" y="424" type="curve" smooth="yes"/>
      <point x="559" y="438"/>
      <point x="561" y="471"/>
      <point x="545" y="477" type="curve"/>
      <point x="477" y="493"/>
      <point x="420" y="510"/>
      <point x="397" y="582" type="curve"/>
      <point x="395" y="613"/>
      <point x="391" y="749"/>
      <point x="389" y="778" type="curve" smooth="yes"/>
      <point x="389" y="1200" type="line"/>
      <point x="414" y="1231"/>
      <point x="454" y="1260"/>
      <point x="487" y="1276" type="curve" smooth="yes"/>
      <point x="499" y="1282"/>
      <point x="539" y="1298"/>
      <point x="545" y="1298" type="curve" smooth="yes"/>
      <point x="684" y="1298" type="line" smooth="yes"/>
      <point x="704" y="1298"/>
      <point x="740" y="1278"/>
      <point x="754" y="1262" type="curve" smooth="yes"/>
      <point x="764" y="1252"/>
      <point x="793" y="1212"/>
      <point x="797" y="1206" type="curve" smooth="yes"/>
      <point x="801" y="1200"/>
      <point x="809" y="1161"/>
      <point x="811" y="1151" type="curve" smooth="yes"/>
      <point x="811" y="1067" type="line" smooth="yes"/>
      <point x="811" y="1055"/>
      <point x="817" y="971"/>
      <point x="817" y="961" type="curve" smooth="yes"/>
      <point x="817" y="955"/>
      <point x="819" y="852"/>
      <point x="819" y="813" type="curve" smooth="yes"/>
      <point x="819" y="774"/>
      <point x="817" y="672"/>
      <point x="817" y="666" type="curve" smooth="yes"/>
      <point x="817" y="621"/>
      <point x="817" y="547"/>
      <point x="776" y="512" type="curve" smooth="yes"/>
      <point x="721" y="467"/>
      <point x="662" y="524"/>
      <point x="662" y="430" type="curve" smooth="yes"/>
      <point x="662" y="424"/>
      <point x="664" y="408"/>
      <point x="664" y="408" type="curve"/>
      <point x="678" y="393" type="line"/>
      <point x="1155" y="393" type="line"/>
      <point x="1155" y="457" type="line" smooth="yes"/>
      <point x="1155" y="459"/>
      <point x="1145" y="469"/>
      <point x="1141" y="469" type="curve" smooth="yes"/>
      <point x="1137" y="471"/>
      <point x="1096" y="481"/>
      <point x="1092" y="483" type="curve" smooth="yes"/>
      <point x="1059" y="497"/>
      <point x="1040" y="518"/>
      <point x="1022" y="547" type="curve" smooth="yes"/>
      <point x="1020" y="549"/>
      <point x="1014" y="559"/>
      <point x="1014" y="561" type="curve" smooth="yes"/>
      <point x="999" y="688" type="line"/>
      <point x="1001" y="741"/>
      <point x="1001" y="991"/>
      <point x="999" y="1044" type="curve" smooth="yes"/>
      <point x="999" y="1064"/>
      <point x="995" y="1167"/>
      <point x="993" y="1192" type="curve" smooth="yes"/>
      <point x="993" y="1198"/>
      <point x="987" y="1229"/>
      <point x="985" y="1235" type="curve" smooth="yes"/>
      <point x="946" y="1382"/>
      <point x="842" y="1452"/>
      <point x="692" y="1452" type="curve" smooth="yes"/>
    </contour>
    <contour>
      <point x="801" y="25"/>
      <point x="801" y="18"/>
      <point x="803" y="18" type="curve" smooth="yes"/>
      <point x="807" y="18"/>
      <point x="807" y="25"/>
      <point x="803" y="25" type="curve" smooth="yes"/>
    </contour>
    <contour>
      <point x="57" y="1610"/>
      <point x="57" y="1604"/>
      <point x="59" y="1604" type="curve" smooth="yes"/>
      <point x="63" y="1604"/>
      <point x="63" y="1610"/>
      <point x="59" y="1610" type="curve" smooth="yes"/>
    </contour>
    <contour>
      <point x="98" y="1581"/>
      <point x="98" y="1575"/>
      <point x="102" y="1575" type="curve" smooth="yes"/>
      <point x="106" y="1575"/>
      <point x="106" y="1581"/>
      <point x="102" y="1581" type="curve" smooth="yes"/>
    </contour>
  </outline>
</glyph>
<glyph name="x" format="1">
  <advance width="980"/>
  <unicode hex="0078"/>
  <outline>
    <contour>
      <point x="520" y="1454"/>
      <point x="398" y="1419"/>
      <point x="371" y="1409" type="curve" smooth="yes"/>
      <point x="355" y="1403"/>
      <point x="280" y="1364"/>
      <point x="266" y="1354" type="curve" smooth="yes"/>
      <point x="264" y="1352"/>
      <point x="260" y="1348"/>
      <point x="258" y="1348" type="curve" smooth="yes"/>
      <point x="256" y="1344"/>
      <point x="227" y="1321"/>
      <point x="223" y="1319" type="curve" smooth="yes"/>
      <point x="221" y="1317"/>
      <point x="211" y="1298"/>
      <point x="209" y="1298" type="curve" smooth="yes"/>
      <point x="207" y="1294"/>
      <point x="184" y="1272"/>
      <point x="182" y="1270" type="curve" smooth="yes"/>
      <point x="110" y="1164"/>
      <point x="70" y="1053"/>
      <point x="70" y="926" type="curve" smooth="yes"/>
      <point x="70" y="875"/>
      <point x="80" y="823"/>
      <point x="76" y="772" type="curve"/>
      <point x="82" y="752"/>
      <point x="107" y="663"/>
      <point x="113" y="645" type="curve" smooth="yes"/>
      <point x="113" y="641"/>
      <point x="123" y="622"/>
      <point x="125" y="616" type="curve" smooth="yes"/>
      <point x="170" y="548"/>
      <point x="223" y="477"/>
      <point x="295" y="434" type="curve"/>
      <point x="295" y="434"/>
      <point x="313" y="428"/>
      <point x="315" y="428" type="curve" smooth="yes"/>
      <point x="325" y="424"/>
      <point x="369" y="399"/>
      <point x="379" y="393" type="curve"/>
      <point x="518" y="365" type="line"/>
      <point x="557" y="377"/>
      <point x="600" y="377"/>
      <point x="637" y="385" type="curve" smooth="yes"/>
      <point x="746" y="412"/>
      <point x="817" y="500"/>
      <point x="883" y="582" type="curve" smooth="yes"/>
      <point x="889" y="590"/>
      <point x="903" y="608"/>
      <point x="905" y="610" type="curve"/>
      <point x="905" y="645" type="line"/>
      <point x="903" y="647"/>
      <point x="883" y="664"/>
      <point x="877" y="666" type="curve" smooth="yes"/>
      <point x="877" y="668"/>
      <point x="870" y="668"/>
      <point x="870" y="668" type="curve" smooth="yes"/>
      <point x="856" y="668"/>
      <point x="854" y="661"/>
      <point x="842" y="651" type="curve"/>
      <point x="836" y="649"/>
      <point x="797" y="614"/>
      <point x="793" y="610" type="curve" smooth="yes"/>
      <point x="779" y="602"/>
      <point x="714" y="567"/>
      <point x="700" y="561" type="curve"/>
      <point x="663" y="563"/>
      <point x="629" y="553"/>
      <point x="592" y="553" type="curve" smooth="yes"/>
      <point x="451" y="553"/>
      <point x="315" y="655"/>
      <point x="266" y="786" type="curve" smooth="yes"/>
      <point x="241" y="847"/>
      <point x="238" y="915"/>
      <point x="238" y="983" type="curve" smooth="yes"/>
      <point x="238" y="1044" type="line" smooth="yes"/>
      <point x="240" y="1067"/>
      <point x="256" y="1101"/>
      <point x="252" y="1128" type="curve"/>
      <point x="270" y="1198"/>
      <point x="301" y="1260"/>
      <point x="356" y="1305" type="curve"/>
      <point x="358" y="1303"/>
      <point x="363" y="1303"/>
      <point x="365" y="1305" type="curve" smooth="yes"/>
      <point x="367" y="1307"/>
      <point x="371" y="1317"/>
      <point x="371" y="1319" type="curve" smooth="yes"/>
      <point x="414" y="1344"/>
      <point x="467" y="1362"/>
      <point x="518" y="1362" type="curve" smooth="yes"/>
      <point x="651" y="1362"/>
      <point x="702" y="1294"/>
      <point x="743" y="1171" type="curve"/>
      <point x="753" y="1155"/>
      <point x="777" y="1143"/>
      <point x="795" y="1143" type="curve" smooth="yes"/>
      <point x="807" y="1143" type="line" smooth="yes"/>
      <point x="881" y="1159"/>
      <point x="897" y="1182"/>
      <point x="897" y="1262" type="curve" smooth="yes"/>
      <point x="897" y="1371"/>
      <point x="774" y="1436"/>
      <point x="680" y="1444" type="curve" smooth="yes"/>
      <point x="547" y="1458" type="line"/>
    </contour>
  </outline>
</glyph>
<glyph name="quoteleft" format="1">
  <advance width="393"/>
  <unicode hex="2018"/>
  <outline>
    <contour>
      <point x="289" y="1593"/>
      <point x="281" y="1593"/>
      <point x="281" y="1591" type="curve"/>
      <point x="279" y="1591"/>
      <point x="260" y="1579"/>
      <point x="258" y="1579" type="curve" smooth="yes"/>
      <point x="254" y="1575"/>
      <point x="207" y="1554"/>
      <point x="203" y="1550" type="curve" smooth="yes"/>
      <point x="189" y="1538"/>
      <point x="118" y="1474"/>
      <point x="104" y="1458" type="curve" smooth="yes"/>
      <point x="53" y="1403"/>
      <point x="30" y="1327"/>
      <point x="20" y="1255" type="curve" smooth="yes"/>
      <point x="20" y="1253"/>
      <point x="18" y="1224"/>
      <point x="18" y="1214" type="curve" smooth="yes"/>
      <point x="18" y="1081"/>
      <point x="96" y="946"/>
      <point x="246" y="946" type="curve" smooth="yes"/>
      <point x="287" y="946" type="line"/>
      <point x="289" y="948"/>
      <point x="299" y="952"/>
      <point x="301" y="954" type="curve" smooth="yes"/>
      <point x="311" y="962"/>
      <point x="346" y="998"/>
      <point x="350" y="1004" type="curve" smooth="yes"/>
      <point x="366" y="1024"/>
      <point x="365" y="1034"/>
      <point x="365" y="1061" type="curve" smooth="yes"/>
      <point x="365" y="1106"/>
      <point x="350" y="1155"/>
      <point x="301" y="1171" type="curve" smooth="yes"/>
      <point x="289" y="1175"/>
      <point x="186" y="1202"/>
      <point x="174" y="1206" type="curve" smooth="yes"/>
      <point x="149" y="1214"/>
      <point x="143" y="1237"/>
      <point x="139" y="1262" type="curve" smooth="yes"/>
      <point x="139" y="1294" type="line" smooth="yes"/>
      <point x="139" y="1323"/>
      <point x="137" y="1374"/>
      <point x="160" y="1397" type="curve"/>
      <point x="166" y="1399"/>
      <point x="199" y="1428"/>
      <point x="203" y="1432" type="curve" smooth="yes"/>
      <point x="223" y="1452" type="line" smooth="yes"/>
      <point x="243" y="1468"/>
      <point x="330" y="1507"/>
      <point x="330" y="1536" type="curve" smooth="yes"/>
      <point x="330" y="1552"/>
      <point x="311" y="1593"/>
      <point x="291" y="1593" type="curve" smooth="yes"/>
    </contour>
  </outline>
</glyph>
<glyph name="_111" format="1">
  <advance width="4388"/>
  <outline>
    <contour>
      <point x="1477" y="1706" type="line" smooth="yes"/>
      <point x="1473" y="1706"/>
      <point x="1444" y="1702"/>
      <point x="1444" y="1692" type="curve" smooth="yes"/>
      <point x="1444" y="1638" type="line" smooth="yes"/>
      <point x="1444" y="1636"/>
      <point x="1536" y="1601"/>
      <point x="1556" y="1585" type="curve" smooth="yes"/>
      <point x="1576" y="1571"/>
      <point x="1645" y="1511"/>
      <point x="1655" y="1503" type="curve" smooth="yes"/>
      <point x="1659" y="1499"/>
      <point x="1681" y="1472"/>
      <point x="1683" y="1466" type="curve" smooth="yes"/>
      <point x="1685" y="1413"/>
      <point x="1686" y="1171"/>
      <point x="1686" y="1120" type="curve" smooth="yes"/>
      <point x="1686" y="1028"/>
      <point x="1685" y="786"/>
      <point x="1683" y="774" type="curve"/>
      <point x="1683" y="758"/>
      <point x="1677" y="624"/>
      <point x="1677" y="608" type="curve" smooth="yes"/>
      <point x="1677" y="586" type="line" smooth="yes"/>
      <point x="1675" y="574"/>
      <point x="1671" y="537"/>
      <point x="1669" y="535" type="curve" smooth="yes"/>
      <point x="1653" y="490"/>
      <point x="1632" y="442"/>
      <point x="1587" y="422" type="curve"/>
      <point x="1481" y="397" type="line" smooth="yes"/>
      <point x="1456" y="391"/>
      <point x="1458" y="371"/>
      <point x="1458" y="348" type="curve" smooth="yes"/>
      <point x="1458" y="330" type="line"/>
      <point x="1475" y="324" type="line"/>
      <point x="1985" y="324" type="line" smooth="yes"/>
      <point x="1987" y="324"/>
      <point x="1993" y="334"/>
      <point x="1993" y="338" type="curve" smooth="yes"/>
      <point x="1993" y="383" type="line"/>
      <point x="1991" y="387"/>
      <point x="1974" y="404"/>
      <point x="1970" y="406" type="curve" smooth="yes"/>
      <point x="1966" y="408"/>
      <point x="1929" y="412"/>
      <point x="1925" y="414" type="curve" smooth="yes"/>
      <point x="1913" y="418"/>
      <point x="1853" y="445"/>
      <point x="1841" y="451" type="curve"/>
      <point x="1814" y="488"/>
      <point x="1798" y="535"/>
      <point x="1790" y="580" type="curve"/>
      <point x="1782" y="789"/>
      <point x="1780" y="999"/>
      <point x="1774" y="1210" type="curve" smooth="yes"/>
      <point x="1774" y="1346" type="line"/>
      <point x="1782" y="1360" type="line"/>
      <point x="1800" y="1358"/>
      <point x="1802" y="1343"/>
      <point x="1812" y="1331" type="curve"/>
      <point x="1816" y="1323"/>
      <point x="1843" y="1292"/>
      <point x="1849" y="1286" type="curve" smooth="yes"/>
      <point x="1851" y="1282"/>
      <point x="1870" y="1266"/>
      <point x="1872" y="1264" type="curve" smooth="yes"/>
      <point x="1876" y="1258"/>
      <point x="1905" y="1214"/>
      <point x="1911" y="1210" type="curve"/>
      <point x="1915" y="1202"/>
      <point x="1964" y="1149"/>
      <point x="1970" y="1143" type="curve" smooth="yes"/>
      <point x="1972" y="1139"/>
      <point x="1991" y="1108"/>
      <point x="1993" y="1104" type="curve" smooth="yes"/>
      <point x="2040" y="1038"/>
      <point x="2099" y="975"/>
      <point x="2150" y="909" type="curve" smooth="yes"/>
      <point x="2168" y="884"/>
      <point x="2185" y="854"/>
      <point x="2210" y="834" type="curve"/>
      <point x="2646" y="301" type="line" smooth="yes"/>
      <point x="2650" y="295"/>
      <point x="2663" y="285"/>
      <point x="2669" y="285" type="curve" smooth="yes"/>
      <point x="2744" y="293" type="line" smooth="yes"/>
      <point x="2750" y="293"/>
      <point x="2753" y="316"/>
      <point x="2753" y="324" type="curve" smooth="yes"/>
      <point x="2753" y="330" type="line"/>
      <point x="2749" y="367"/>
      <point x="2726" y="528"/>
      <point x="2722" y="563" type="curve"/>
      <point x="2722" y="1241" type="line"/>
      <point x="2724" y="1241"/>
      <point x="2730" y="1245"/>
      <point x="2730" y="1247" type="curve" smooth="yes"/>
      <point x="2730" y="1249"/>
      <point x="2722" y="1262"/>
      <point x="2722" y="1264" type="curve" smooth="yes"/>
      <point x="2722" y="1276" type="line" smooth="yes"/>
      <point x="2722" y="1339"/>
      <point x="2722" y="1405"/>
      <point x="2736" y="1466" type="curve" smooth="yes"/>
      <point x="2740" y="1478"/>
      <point x="2751" y="1516"/>
      <point x="2753" y="1518" type="curve" smooth="yes"/>
      <point x="2753" y="1520"/>
      <point x="2779" y="1553"/>
      <point x="2789" y="1563" type="curve" smooth="yes"/>
      <point x="2801" y="1577"/>
      <point x="2810" y="1587"/>
      <point x="2826" y="1593" type="curve" smooth="yes"/>
      <point x="2838" y="1597"/>
      <point x="2898" y="1614"/>
      <point x="2910" y="1616" type="curve"/>
      <point x="2924" y="1622"/>
      <point x="2925" y="1628"/>
      <point x="2925" y="1640" type="curve" smooth="yes"/>
      <point x="2925" y="1656"/>
      <point x="2922" y="1667"/>
      <point x="2916" y="1683" type="curve"/>
      <point x="2766" y="1691"/>
      <point x="2616" y="1694"/>
      <point x="2466" y="1698" type="curve" smooth="yes"/>
      <point x="2464" y="1698"/>
      <point x="2449" y="1700"/>
      <point x="2445" y="1700" type="curve" smooth="yes"/>
      <point x="2437" y="1700"/>
      <point x="2419" y="1700"/>
      <point x="2413" y="1692" type="curve" smooth="yes"/>
      <point x="2413" y="1690"/>
      <point x="2408" y="1663"/>
      <point x="2406" y="1653" type="curve"/>
      <point x="2406" y="1647" type="line"/>
      <point x="2408" y="1643"/>
      <point x="2425" y="1626"/>
      <point x="2429" y="1624" type="curve" smooth="yes"/>
      <point x="2443" y="1620"/>
      <point x="2511" y="1599"/>
      <point x="2525" y="1593" type="curve" smooth="yes"/>
      <point x="2527" y="1593"/>
      <point x="2554" y="1571"/>
      <point x="2564" y="1563" type="curve" smooth="yes"/>
      <point x="2617" y="1518"/>
      <point x="2619" y="1434"/>
      <point x="2623" y="1368" type="curve" smooth="yes"/>
      <point x="2625" y="1352"/>
      <point x="2630" y="1278"/>
      <point x="2632" y="1264" type="curve"/>
      <point x="2632" y="662" type="line" smooth="yes"/>
      <point x="2632" y="656"/>
      <point x="2623" y="653"/>
      <point x="2619" y="653" type="curve" smooth="yes"/>
      <point x="2615" y="653" type="line"/>
      <point x="2615" y="655"/>
      <point x="2603" y="674"/>
      <point x="2601" y="676" type="curve" smooth="yes"/>
      <point x="2466" y="842" type="line" smooth="yes"/>
      <point x="2443" y="871"/>
      <point x="2369" y="965"/>
      <point x="2361" y="977" type="curve" smooth="yes"/>
      <point x="2357" y="981"/>
      <point x="2347" y="1002"/>
      <point x="2345" y="1008" type="curve"/>
      <point x="2259" y="1102"/>
      <point x="2165" y="1217"/>
      <point x="2083" y="1315" type="curve" smooth="yes"/>
      <point x="2009" y="1403"/>
      <point x="1942" y="1501"/>
      <point x="1864" y="1585" type="curve" smooth="yes"/>
      <point x="1860" y="1591"/>
      <point x="1816" y="1632"/>
      <point x="1812" y="1638" type="curve" smooth="yes"/>
      <point x="1810" y="1640"/>
      <point x="1806" y="1653"/>
      <point x="1804" y="1653" type="curve" smooth="yes"/>
      <point x="1798" y="1661"/>
      <point x="1767" y="1692"/>
      <point x="1759" y="1698" type="curve"/>
      <point x="1571" y="1698" type="line"/>
      <point x="1563" y="1700"/>
      <point x="1491" y="1706"/>
      <point x="1481" y="1706" type="curve" smooth="yes"/>
    </contour>
    <contour>
      <point x="602" y="1737" type="line" smooth="yes"/>
      <point x="594" y="1737"/>
      <point x="594" y="1726"/>
      <point x="594" y="1720" type="curve" smooth="yes"/>
      <point x="594" y="1697"/>
      <point x="618" y="1682"/>
      <point x="618" y="1657" type="curve" smooth="yes"/>
      <point x="618" y="1655"/>
      <point x="618" y="1647"/>
      <point x="616" y="1647" type="curve" smooth="yes"/>
      <point x="565" y="1495" type="line"/>
      <point x="565" y="1489" type="line"/>
      <point x="553" y="1452"/>
      <point x="541" y="1432"/>
      <point x="535" y="1399" type="curve"/>
      <point x="346" y="864" type="line" smooth="yes"/>
      <point x="346" y="858"/>
      <point x="340" y="831"/>
      <point x="340" y="827" type="curve" smooth="yes"/>
      <point x="330" y="794"/>
      <point x="293" y="684"/>
      <point x="287" y="670" type="curve" smooth="yes"/>
      <point x="277" y="643"/>
      <point x="223" y="523"/>
      <point x="211" y="496" type="curve"/>
      <point x="199" y="488"/>
      <point x="209" y="487"/>
      <point x="197" y="473" type="curve" smooth="yes"/>
      <point x="166" y="438"/>
      <point x="133" y="404"/>
      <point x="84" y="406" type="curve"/>
      <point x="72" y="396"/>
      <point x="76" y="370"/>
      <point x="76" y="360" type="curve" smooth="yes"/>
      <point x="76" y="338" type="line"/>
      <point x="84" y="330" type="line"/>
      <point x="229" y="334"/>
      <point x="348" y="324"/>
      <point x="489" y="324" type="curve" smooth="yes"/>
      <point x="495" y="324"/>
      <point x="512" y="324"/>
      <point x="512" y="330" type="curve" smooth="yes"/>
      <point x="512" y="397" type="line" smooth="yes"/>
      <point x="512" y="401"/>
      <point x="502" y="412"/>
      <point x="498" y="414" type="curve" smooth="yes"/>
      <point x="492" y="416"/>
      <point x="448" y="426"/>
      <point x="444" y="428" type="curve" smooth="yes"/>
      <point x="395" y="451"/>
      <point x="377" y="504"/>
      <point x="377" y="551" type="curve" smooth="yes"/>
      <point x="377" y="598"/>
      <point x="379" y="647"/>
      <point x="391" y="692" type="curve" smooth="yes"/>
      <point x="399" y="721"/>
      <point x="443" y="858"/>
      <point x="453" y="887" type="curve"/>
      <point x="471" y="885"/>
      <point x="568" y="881"/>
      <point x="588" y="879" type="curve"/>
      <point x="864" y="879" type="line"/>
      <point x="870" y="875"/>
      <point x="885" y="848"/>
      <point x="887" y="842" type="curve" smooth="yes"/>
      <point x="893" y="830"/>
      <point x="922" y="733"/>
      <point x="926" y="721" type="curve" smooth="yes"/>
      <point x="926" y="721"/>
      <point x="932" y="709"/>
      <point x="932" y="707" type="curve" smooth="yes"/>
      <point x="985" y="557" type="line" smooth="yes"/>
      <point x="987" y="551"/>
      <point x="987" y="524"/>
      <point x="987" y="518" type="curve" smooth="yes"/>
      <point x="987" y="469"/>
      <point x="962" y="422"/>
      <point x="909" y="414" type="curve" smooth="yes"/>
      <point x="901" y="412"/>
      <point x="858" y="408"/>
      <point x="850" y="406" type="curve"/>
      <point x="838" y="398"/>
      <point x="836" y="383"/>
      <point x="836" y="369" type="curve" smooth="yes"/>
      <point x="836" y="352" type="line" smooth="yes"/>
      <point x="836" y="344"/>
      <point x="842" y="324"/>
      <point x="842" y="324" type="curve"/>
      <point x="1368" y="324" type="line"/>
      <point x="1368" y="383" type="line" smooth="yes"/>
      <point x="1368" y="385"/>
      <point x="1358" y="397"/>
      <point x="1354" y="397" type="curve"/>
      <point x="1352" y="399"/>
      <point x="1325" y="406"/>
      <point x="1317" y="406" type="curve" smooth="yes"/>
      <point x="1300" y="406" type="line" smooth="yes"/>
      <point x="1271" y="422"/>
      <point x="1229" y="465"/>
      <point x="1219" y="496" type="curve" smooth="yes"/>
      <point x="1083" y="909" type="line"/>
      <point x="1069" y="940" type="line"/>
      <point x="858" y="1579" type="line"/>
      <point x="854" y="1583"/>
      <point x="844" y="1604"/>
      <point x="842" y="1608" type="curve" smooth="yes"/>
      <point x="840" y="1618"/>
      <point x="815" y="1704"/>
      <point x="813" y="1714" type="curve" smooth="yes"/>
      <point x="811" y="1718"/>
      <point x="807" y="1729"/>
      <point x="805" y="1729" type="curve" smooth="yes"/>
      <point x="801" y="1731"/>
      <point x="780" y="1737"/>
      <point x="774" y="1737" type="curve" smooth="yes"/>
    </contour>
    <contour>
      <point x="676" y="1511"/>
      <point x="694" y="1450"/>
      <point x="692" y="1444" type="curve"/>
      <point x="698" y="1426"/>
      <point x="723" y="1347"/>
      <point x="729" y="1331" type="curve" smooth="yes"/>
      <point x="768" y="1222"/>
      <point x="797" y="1110"/>
      <point x="836" y="999" type="curve"/>
      <point x="836" y="985" type="line"/>
      <point x="504" y="985" type="line" smooth="yes"/>
      <point x="502" y="985"/>
      <point x="485" y="989"/>
      <point x="481" y="991" type="curve"/>
      <point x="481" y="999" type="line"/>
      <point x="485" y="1011"/>
      <point x="508" y="1076"/>
      <point x="512" y="1090" type="curve" smooth="yes"/>
      <point x="512" y="1092"/>
      <point x="518" y="1102"/>
      <point x="520" y="1104" type="curve" smooth="yes"/>
      <point x="625" y="1427" type="line"/>
      <point x="639" y="1450"/>
      <point x="646" y="1511"/>
      <point x="666" y="1511" type="curve" smooth="yes"/>
    </contour>
    <contour>
      <point x="2070" y="1251"/>
      <point x="2070" y="1243"/>
      <point x="2068" y="1243" type="curve" smooth="yes"/>
      <point x="2064" y="1243"/>
      <point x="2064" y="1251"/>
      <point x="2068" y="1251" type="curve" smooth="yes"/>
    </contour>
    <contour>
      <point x="2935" y="1063"/>
      <point x="2935" y="1057"/>
      <point x="2939" y="1057" type="curve" smooth="yes"/>
      <point x="2943" y="1057"/>
      <point x="2943" y="1063"/>
      <point x="2939" y="1063" type="curve" smooth="yes"/>
    </contour>
    <contour>
      <point x="3000" y="1706" type="line"/>
      <point x="2986" y="1696"/>
      <point x="2984" y="1681"/>
      <point x="2984" y="1665" type="curve" smooth="yes"/>
      <point x="2984" y="1645"/>
      <point x="2983" y="1622"/>
      <point x="3006" y="1616" type="curve" smooth="yes"/>
      <point x="3045" y="1606"/>
      <point x="3096" y="1604"/>
      <point x="3119" y="1563" type="curve" smooth="yes"/>
      <point x="3277" y="1286" type="line"/>
      <point x="3285" y="1278" type="line"/>
      <point x="3502" y="901" type="line" smooth="yes"/>
      <point x="3504" y="899"/>
      <point x="3510" y="832"/>
      <point x="3510" y="805" type="curve" smooth="yes"/>
      <point x="3510" y="692" type="line" smooth="yes"/>
      <point x="3510" y="657"/>
      <point x="3504" y="553"/>
      <point x="3502" y="541" type="curve" smooth="yes"/>
      <point x="3500" y="512"/>
      <point x="3485" y="476"/>
      <point x="3465" y="451" type="curve" smooth="yes"/>
      <point x="3457" y="441"/>
      <point x="3438" y="418"/>
      <point x="3420" y="414" type="curve" smooth="yes"/>
      <point x="3406" y="410"/>
      <point x="3338" y="393"/>
      <point x="3322" y="391" type="curve"/>
      <point x="3316" y="377"/>
      <point x="3316" y="372"/>
      <point x="3316" y="360" type="curve" smooth="yes"/>
      <point x="3316" y="350"/>
      <point x="3322" y="307"/>
      <point x="3338" y="307" type="curve" smooth="yes"/>
      <point x="3901" y="307" type="line"/>
      <point x="3901" y="383" type="line"/>
      <point x="3887" y="391" type="line" smooth="yes"/>
      <point x="3881" y="393"/>
      <point x="3867" y="397"/>
      <point x="3865" y="397" type="curve" smooth="yes"/>
      <point x="3861" y="399"/>
      <point x="3836" y="397"/>
      <point x="3834" y="397" type="curve" smooth="yes"/>
      <point x="3824" y="399"/>
      <point x="3787" y="412"/>
      <point x="3781" y="414" type="curve" smooth="yes"/>
      <point x="3756" y="424"/>
      <point x="3731" y="487"/>
      <point x="3729" y="512" type="curve" smooth="yes"/>
      <point x="3727" y="528"/>
      <point x="3721" y="609"/>
      <point x="3721" y="625" type="curve" smooth="yes"/>
      <point x="3721" y="739" type="line" smooth="yes"/>
      <point x="3721" y="821"/>
      <point x="3711" y="895"/>
      <point x="3758" y="963" type="curve" smooth="yes"/>
      <point x="3762" y="969"/>
      <point x="3799" y="1016"/>
      <point x="3803" y="1022" type="curve" smooth="yes"/>
      <point x="3832" y="1067"/>
      <point x="3958" y="1278"/>
      <point x="3983" y="1323" type="curve"/>
      <point x="3992" y="1331" type="line"/>
      <point x="4119" y="1526" type="line"/>
      <point x="4146" y="1563"/>
      <point x="4200" y="1579"/>
      <point x="4239" y="1593" type="curve"/>
      <point x="4245" y="1599"/>
      <point x="4256" y="1649"/>
      <point x="4256" y="1657" type="curve" smooth="yes"/>
      <point x="4256" y="1671"/>
      <point x="4249" y="1692"/>
      <point x="4231" y="1692" type="curve" smooth="yes"/>
      <point x="3797" y="1692" type="line" smooth="yes"/>
      <point x="3783" y="1692"/>
      <point x="3781" y="1644"/>
      <point x="3781" y="1634" type="curve" smooth="yes"/>
      <point x="3781" y="1628"/>
      <point x="3777" y="1612"/>
      <point x="3789" y="1608" type="curve" smooth="yes"/>
      <point x="3820" y="1600"/>
      <point x="3874" y="1604"/>
      <point x="3901" y="1579" type="curve" smooth="yes"/>
      <point x="3903" y="1577"/>
      <point x="3924" y="1544"/>
      <point x="3932" y="1534" type="curve" smooth="yes"/>
      <point x="3940" y="1520"/>
      <point x="3940" y="1517"/>
      <point x="3940" y="1501" type="curve" smooth="yes"/>
      <point x="3940" y="1499"/>
      <point x="3940" y="1489"/>
      <point x="3938" y="1489" type="curve" smooth="yes"/>
      <point x="3901" y="1382" type="line"/>
      <point x="3707" y="1053" type="line" smooth="yes"/>
      <point x="3699" y="1041"/>
      <point x="3692" y="1020"/>
      <point x="3676" y="1020" type="curve" smooth="yes"/>
      <point x="3674" y="1020"/>
      <point x="3668" y="1022"/>
      <point x="3668" y="1022" type="curve"/>
      <point x="3623" y="1090" type="line"/>
      <point x="3420" y="1466" type="line"/>
      <point x="3416" y="1484"/>
      <point x="3406" y="1504"/>
      <point x="3406" y="1522" type="curve" smooth="yes"/>
      <point x="3406" y="1600"/>
      <point x="3488" y="1606"/>
      <point x="3549" y="1616" type="curve"/>
      <point x="3557" y="1626"/>
      <point x="3557" y="1641"/>
      <point x="3557" y="1653" type="curve" smooth="yes"/>
      <point x="3557" y="1671"/>
      <point x="3558" y="1696"/>
      <point x="3533" y="1698" type="curve"/>
      <point x="3209" y="1698" type="line"/>
      <point x="3197" y="1700"/>
      <point x="3094" y="1706"/>
      <point x="3082" y="1706" type="curve" smooth="yes"/>
    </contour>
    <contour>
      <point x="4303" y="739"/>
      <point x="4303" y="733"/>
      <point x="4307" y="733" type="curve" smooth="yes"/>
      <point x="4311" y="733"/>
      <point x="4311" y="739"/>
      <point x="4307" y="739" type="curve" smooth="yes"/>
    </contour>
    <contour>
      <point x="3684" y="1602" type="line"/>
      <point x="3684" y="1593" type="line"/>
      <point x="3690" y="1593" type="line"/>
      <point x="3690" y="1602" type="line"/>
    </contour>
    <contour>
      <point x="4213" y="1333"/>
      <point x="4213" y="1327"/>
      <point x="4217" y="1327" type="curve" smooth="yes"/>
      <point x="4221" y="1327"/>
      <point x="4221" y="1333"/>
      <point x="4217" y="1333" type="curve" smooth="yes"/>
    </contour>
  </outline>
</glyph>
<glyph name="_113" format="1">
  <advance width="1304"/>
  <outline>
    <contour>
      <point x="106" y="1692" type="line"/>
      <point x="94" y="1682"/>
      <point x="98" y="1657"/>
      <point x="98" y="1647" type="curve" smooth="yes"/>
      <point x="98" y="1616" type="line"/>
      <point x="129" y="1596"/>
      <point x="164" y="1607"/>
      <point x="197" y="1593" type="curve" smooth="yes"/>
      <point x="240" y="1573"/>
      <point x="285" y="1522"/>
      <point x="287" y="1473" type="curve" smooth="yes"/>
      <point x="287" y="1465"/>
      <point x="279" y="1399"/>
      <point x="279" y="1391" type="curve" smooth="yes"/>
      <point x="279" y="1381"/>
      <point x="287" y="1296"/>
      <point x="287" y="1286" type="curve" smooth="yes"/>
      <point x="287" y="1090" type="line" smooth="yes"/>
      <point x="287" y="1059"/>
      <point x="279" y="799"/>
      <point x="279" y="766" type="curve" smooth="yes"/>
      <point x="279" y="631" type="line" smooth="yes"/>
      <point x="279" y="615"/>
      <point x="268" y="516"/>
      <point x="264" y="489" type="curve" smooth="yes"/>
      <point x="258" y="444"/>
      <point x="217" y="397"/>
      <point x="174" y="391" type="curve" smooth="yes"/>
      <point x="166" y="389"/>
      <point x="112" y="391"/>
      <point x="106" y="391" type="curve" smooth="yes"/>
      <point x="81" y="389"/>
      <point x="82" y="362"/>
      <point x="82" y="346" type="curve" smooth="yes"/>
      <point x="82" y="342"/>
      <point x="78" y="317"/>
      <point x="90" y="315" type="curve"/>
      <point x="151" y="315"/>
      <point x="437" y="309"/>
      <point x="498" y="307" type="curve" smooth="yes"/>
      <point x="502" y="307" type="line" smooth="yes"/>
      <point x="522" y="307"/>
      <point x="542" y="315"/>
      <point x="565" y="315" type="curve" smooth="yes"/>
      <point x="583" y="315"/>
      <point x="600" y="317"/>
      <point x="616" y="307" type="curve"/>
      <point x="665" y="309"/>
      <point x="891" y="309"/>
      <point x="940" y="307" type="curve" smooth="yes"/>
      <point x="952" y="307"/>
      <point x="1043" y="301"/>
      <point x="1053" y="301" type="curve" smooth="yes"/>
      <point x="1067" y="301"/>
      <point x="1131" y="305"/>
      <point x="1143" y="307" type="curve" smooth="yes"/>
      <point x="1145" y="309"/>
      <point x="1149" y="322"/>
      <point x="1151" y="324" type="curve" smooth="yes"/>
      <point x="1157" y="344"/>
      <point x="1184" y="444"/>
      <point x="1188" y="467" type="curve" smooth="yes"/>
      <point x="1188" y="481" type="line" smooth="yes"/>
      <point x="1200" y="530"/>
      <point x="1219" y="576"/>
      <point x="1219" y="625" type="curve" smooth="yes"/>
      <point x="1219" y="648"/>
      <point x="1196" y="647"/>
      <point x="1180" y="647" type="curve" smooth="yes"/>
      <point x="1157" y="647"/>
      <point x="1157" y="649"/>
      <point x="1143" y="631" type="curve" smooth="yes"/>
      <point x="1135" y="621"/>
      <point x="1075" y="536"/>
      <point x="1067" y="526" type="curve" smooth="yes"/>
      <point x="1055" y="512"/>
      <point x="997" y="459"/>
      <point x="985" y="451" type="curve" smooth="yes"/>
      <point x="979" y="447"/>
      <point x="912" y="416"/>
      <point x="887" y="406" type="curve" smooth="yes"/>
      <point x="852" y="392"/>
      <point x="807" y="391"/>
      <point x="768" y="391" type="curve" smooth="yes"/>
      <point x="745" y="391" type="line" smooth="yes"/>
      <point x="731" y="391"/>
      <point x="622" y="397"/>
      <point x="610" y="397" type="curve" smooth="yes"/>
      <point x="594" y="399"/>
      <point x="577" y="396"/>
      <point x="565" y="406" type="curve" smooth="yes"/>
      <point x="508" y="451"/>
      <point x="489" y="508"/>
      <point x="489" y="580" type="curve" smooth="yes"/>
      <point x="489" y="924" type="line" smooth="yes"/>
      <point x="489" y="934"/>
      <point x="494" y="971"/>
      <point x="498" y="977" type="curve"/>
      <point x="498" y="981"/>
      <point x="508" y="991"/>
      <point x="512" y="991" type="curve" smooth="yes"/>
      <point x="662" y="989" type="line"/>
      <point x="684" y="989" type="line"/>
      <point x="813" y="985" type="line" smooth="yes"/>
      <point x="817" y="985"/>
      <point x="854" y="969"/>
      <point x="864" y="963" type="curve" smooth="yes"/>
      <point x="917" y="930"/>
      <point x="920" y="862"/>
      <point x="940" y="811" type="curve" smooth="yes"/>
      <point x="942" y="809"/>
      <point x="946" y="792"/>
      <point x="948" y="788" type="curve"/>
      <point x="975" y="788" type="line" smooth="yes"/>
      <point x="979" y="788"/>
      <point x="1022" y="787"/>
      <point x="1022" y="805" type="curve" smooth="yes"/>
      <point x="1022" y="1157" type="line"/>
      <point x="1026" y="1163"/>
      <point x="1030" y="1190"/>
      <point x="1030" y="1194" type="curve" smooth="yes"/>
      <point x="1030" y="1202"/>
      <point x="1026" y="1239"/>
      <point x="1022" y="1247" type="curve"/>
      <point x="1020" y="1259"/>
      <point x="997" y="1255"/>
      <point x="993" y="1255" type="curve" smooth="yes"/>
      <point x="971" y="1255" type="line"/>
      <point x="955" y="1253"/>
      <point x="938" y="1127"/>
      <point x="872" y="1098" type="curve" smooth="yes"/>
      <point x="858" y="1090"/>
      <point x="805" y="1075"/>
      <point x="797" y="1075" type="curve" smooth="yes"/>
      <point x="535" y="1075" type="line" smooth="yes"/>
      <point x="531" y="1075"/>
      <point x="504" y="1079"/>
      <point x="498" y="1081" type="curve" smooth="yes"/>
      <point x="496" y="1083"/>
      <point x="489" y="1088"/>
      <point x="489" y="1090" type="curve" smooth="yes"/>
      <point x="489" y="1188" type="line" smooth="yes"/>
      <point x="489" y="1194"/>
      <point x="498" y="1249"/>
      <point x="498" y="1255" type="curve" smooth="yes"/>
      <point x="498" y="1548" type="line"/>
      <point x="504" y="1602" type="line"/>
      <point x="842" y="1602" type="line" smooth="yes"/>
      <point x="963" y="1602"/>
      <point x="989" y="1511"/>
      <point x="1038" y="1421" type="curve" smooth="yes"/>
      <point x="1054" y="1390"/>
      <point x="1065" y="1389"/>
      <point x="1100" y="1389" type="curve" smooth="yes"/>
      <point x="1104" y="1389"/>
      <point x="1120" y="1391"/>
      <point x="1120" y="1391" type="curve"/>
      <point x="1128" y="1399" type="line"/>
      <point x="1128" y="1653" type="line" smooth="yes"/>
      <point x="1128" y="1663"/>
      <point x="1112" y="1679"/>
      <point x="1106" y="1683" type="curve"/>
      <point x="848" y="1679"/>
      <point x="590" y="1692"/>
      <point x="332" y="1692" type="curve" smooth="yes"/>
    </contour>
    <contour>
      <point x="508" y="846"/>
      <point x="508" y="838"/>
      <point x="512" y="838" type="curve" smooth="yes"/>
      <point x="516" y="838"/>
      <point x="516" y="846"/>
      <point x="512" y="846" type="curve" smooth="yes"/>
    </contour>
    <contour>
      <point x="418" y="1124"/>
      <point x="418" y="1116"/>
      <point x="414" y="1116" type="curve" smooth="yes"/>
      <point x="410" y="1116"/>
      <point x="410" y="1124"/>
      <point x="414" y="1124" type="curve" smooth="yes"/>
    </contour>
    <contour>
      <point x="428" y="1108"/>
      <point x="422" y="1108"/>
      <point x="422" y="1112" type="curve" smooth="yes"/>
      <point x="420" y="1116"/>
      <point x="430" y="1116"/>
      <point x="430" y="1112" type="curve" smooth="yes"/>
    </contour>
    <contour>
      <point x="252" y="1350"/>
      <point x="252" y="1341"/>
      <point x="256" y="1341" type="curve" smooth="yes"/>
      <point x="260" y="1341"/>
      <point x="260" y="1350"/>
      <point x="256" y="1350" type="curve" smooth="yes"/>
    </contour>
  </outline>
</glyph>
<glyph name="_115" format="1">
  <advance width="770"/>
  <outline>
    <contour>
      <point x="187" y="1700"/>
      <point x="125" y="1700"/>
      <point x="113" y="1698" type="curve"/>
      <point x="97" y="1698"/>
      <point x="84" y="1671"/>
      <point x="82" y="1661" type="curve" smooth="yes"/>
      <point x="82" y="1657"/>
      <point x="88" y="1636"/>
      <point x="90" y="1630" type="curve" smooth="yes"/>
      <point x="104" y="1601"/>
      <point x="155" y="1610"/>
      <point x="180" y="1602" type="curve" smooth="yes"/>
      <point x="211" y="1590"/>
      <point x="238" y="1575"/>
      <point x="256" y="1548" type="curve" smooth="yes"/>
      <point x="297" y="1491"/>
      <point x="287" y="1414"/>
      <point x="287" y="1346" type="curve" smooth="yes"/>
      <point x="287" y="1321"/>
      <point x="285" y="1245"/>
      <point x="285" y="1241" type="curve" smooth="yes"/>
      <point x="285" y="1221"/>
      <point x="279" y="1064"/>
      <point x="279" y="1044" type="curve" smooth="yes"/>
      <point x="279" y="788" type="line" smooth="yes"/>
      <point x="279" y="782"/>
      <point x="270" y="729"/>
      <point x="270" y="721" type="curve" smooth="yes"/>
      <point x="270" y="526" type="line"/>
      <point x="264" y="444"/>
      <point x="156" y="390"/>
      <point x="82" y="406" type="curve"/>
      <point x="82" y="404"/>
      <point x="76" y="393"/>
      <point x="76" y="391" type="curve" smooth="yes"/>
      <point x="74" y="381"/>
      <point x="68" y="350"/>
      <point x="68" y="346" type="curve" smooth="yes"/>
      <point x="68" y="340"/>
      <point x="78" y="328"/>
      <point x="82" y="324" type="curve"/>
      <point x="266" y="316"/>
      <point x="449" y="315"/>
      <point x="631" y="307" type="curve" smooth="yes"/>
      <point x="653" y="307" type="line" smooth="yes"/>
      <point x="688" y="307"/>
      <point x="684" y="340"/>
      <point x="684" y="371" type="curve" smooth="yes"/>
      <point x="684" y="383" type="line"/>
      <point x="682" y="387"/>
      <point x="666" y="404"/>
      <point x="662" y="406" type="curve" smooth="yes"/>
      <point x="660" y="408"/>
      <point x="641" y="406"/>
      <point x="639" y="406" type="curve" smooth="yes"/>
      <point x="586" y="416"/>
      <point x="504" y="438"/>
      <point x="496" y="504" type="curve" smooth="yes"/>
      <point x="496" y="510"/>
      <point x="489" y="574"/>
      <point x="489" y="594" type="curve" smooth="yes"/>
      <point x="489" y="616" type="line" smooth="yes"/>
      <point x="489" y="632"/>
      <point x="496" y="766"/>
      <point x="496" y="782" type="curve" smooth="yes"/>
      <point x="496" y="1067" type="line" smooth="yes"/>
      <point x="496" y="1096"/>
      <point x="504" y="1325"/>
      <point x="504" y="1354" type="curve" smooth="yes"/>
      <point x="504" y="1473" type="line"/>
      <point x="516" y="1479"/>
      <point x="516" y="1505"/>
      <point x="518" y="1511" type="curve" smooth="yes"/>
      <point x="538" y="1564"/>
      <point x="582" y="1600"/>
      <point x="639" y="1608" type="curve" smooth="yes"/>
      <point x="659" y="1612"/>
      <point x="688" y="1595"/>
      <point x="698" y="1624" type="curve"/>
      <point x="698" y="1634" type="line" smooth="yes"/>
      <point x="698" y="1646"/>
      <point x="694" y="1692"/>
      <point x="676" y="1692" type="curve" smooth="yes"/>
      <point x="346" y="1692" type="line"/>
      <point x="297" y="1702"/>
      <point x="248" y="1700"/>
      <point x="199" y="1700" type="curve" smooth="yes"/>
    </contour>
    <contour>
      <point x="522" y="1468"/>
      <point x="522" y="1462"/>
      <point x="526" y="1462" type="curve" smooth="yes"/>
      <point x="530" y="1462"/>
      <point x="530" y="1468"/>
      <point x="526" y="1468" type="curve" smooth="yes"/>
    </contour>
  </outline>
</glyph>
<glyph name="_117" format="1">
  <advance width="995"/>
  <outline>
    <contour>
      <point x="506" y="1708"/>
      <point x="471" y="1706"/>
      <point x="469" y="1706" type="curve" smooth="yes"/>
      <point x="446" y="1704"/>
      <point x="340" y="1687"/>
      <point x="317" y="1683" type="curve"/>
      <point x="180" y="1611"/>
      <point x="92" y="1495"/>
      <point x="92" y="1339" type="curve" smooth="yes"/>
      <point x="92" y="1300" type="line"/>
      <point x="96" y="1282"/>
      <point x="123" y="1198"/>
      <point x="131" y="1180" type="curve" smooth="yes"/>
      <point x="133" y="1174"/>
      <point x="160" y="1136"/>
      <point x="168" y="1126" type="curve" smooth="yes"/>
      <point x="180" y="1112"/>
      <point x="240" y="1054"/>
      <point x="250" y="1044" type="curve" smooth="yes"/>
      <point x="254" y="1042"/>
      <point x="279" y="1032"/>
      <point x="281" y="1030" type="curve" smooth="yes"/>
      <point x="291" y="1024"/>
      <point x="363" y="969"/>
      <point x="371" y="963" type="curve" smooth="yes"/>
      <point x="400" y="945"/>
      <point x="530" y="864"/>
      <point x="559" y="850" type="curve"/>
      <point x="567" y="836"/>
      <point x="600" y="821"/>
      <point x="612" y="811" type="curve" smooth="yes"/>
      <point x="659" y="770"/>
      <point x="709" y="716"/>
      <point x="725" y="653" type="curve" smooth="yes"/>
      <point x="725" y="598" type="line" smooth="yes"/>
      <point x="725" y="453"/>
      <point x="632" y="360"/>
      <point x="485" y="360" type="curve" smooth="yes"/>
      <point x="460" y="360"/>
      <point x="441" y="361"/>
      <point x="416" y="369" type="curve" smooth="yes"/>
      <point x="404" y="373"/>
      <point x="366" y="389"/>
      <point x="362" y="391" type="curve" smooth="yes"/>
      <point x="266" y="489" type="line" smooth="yes"/>
      <point x="264" y="493"/>
      <point x="254" y="514"/>
      <point x="250" y="518" type="curve" smooth="yes"/>
      <point x="248" y="522"/>
      <point x="223" y="559"/>
      <point x="221" y="563" type="curve" smooth="yes"/>
      <point x="217" y="571"/>
      <point x="196" y="629"/>
      <point x="190" y="647" type="curve" smooth="yes"/>
      <point x="190" y="649"/>
      <point x="184" y="680"/>
      <point x="182" y="684" type="curve" smooth="yes"/>
      <point x="180" y="692"/>
      <point x="170" y="715"/>
      <point x="168" y="715" type="curve" smooth="yes"/>
      <point x="100" y="715" type="line" smooth="yes"/>
      <point x="98" y="715"/>
      <point x="94" y="709"/>
      <point x="92" y="707" type="curve" smooth="yes"/>
      <point x="90" y="703"/>
      <point x="86" y="686"/>
      <point x="86" y="684" type="curve" smooth="yes"/>
      <point x="86" y="678"/>
      <point x="92" y="631"/>
      <point x="92" y="625" type="curve" smooth="yes"/>
      <point x="94" y="609"/>
      <point x="92" y="475"/>
      <point x="92" y="459" type="curve"/>
      <point x="94" y="447"/>
      <point x="98" y="395"/>
      <point x="100" y="383" type="curve" smooth="yes"/>
      <point x="104" y="363"/>
      <point x="131" y="352"/>
      <point x="145" y="346" type="curve" smooth="yes"/>
      <point x="176" y="336"/>
      <point x="317" y="293"/>
      <point x="348" y="285" type="curve" smooth="yes"/>
      <point x="385" y="277"/>
      <point x="450" y="276"/>
      <point x="487" y="276" type="curve" smooth="yes"/>
      <point x="542" y="276"/>
      <point x="580" y="277"/>
      <point x="635" y="293" type="curve" smooth="yes"/>
      <point x="821" y="352"/>
      <point x="913" y="475"/>
      <point x="913" y="674" type="curve" smooth="yes"/>
      <point x="913" y="830"/>
      <point x="799" y="956"/>
      <point x="672" y="1036" type="curve" smooth="yes"/>
      <point x="635" y="1061"/>
      <point x="455" y="1168"/>
      <point x="416" y="1188" type="curve" smooth="yes"/>
      <point x="404" y="1196"/>
      <point x="352" y="1239"/>
      <point x="340" y="1247" type="curve" smooth="yes"/>
      <point x="285" y="1296"/>
      <point x="272" y="1343"/>
      <point x="272" y="1413" type="curve" smooth="yes"/>
      <point x="272" y="1462"/>
      <point x="274" y="1491"/>
      <point x="303" y="1534" type="curve" smooth="yes"/>
      <point x="346" y="1595"/>
      <point x="403" y="1624"/>
      <point x="479" y="1624" type="curve" smooth="yes"/>
      <point x="614" y="1624"/>
      <point x="662" y="1583"/>
      <point x="725" y="1466" type="curve" smooth="yes"/>
      <point x="743" y="1429"/>
      <point x="752" y="1309"/>
      <point x="807" y="1309" type="curve" smooth="yes"/>
      <point x="852" y="1309"/>
      <point x="852" y="1341"/>
      <point x="852" y="1378" type="curve" smooth="yes"/>
      <point x="852" y="1415"/>
      <point x="844" y="1452"/>
      <point x="844" y="1489" type="curve" smooth="yes"/>
      <point x="844" y="1511" type="line" smooth="yes"/>
      <point x="846" y="1513"/>
      <point x="852" y="1532"/>
      <point x="852" y="1534" type="curve" smooth="yes"/>
      <point x="852" y="1534"/>
      <point x="846" y="1546"/>
      <point x="844" y="1548" type="curve" smooth="yes"/>
      <point x="842" y="1564"/>
      <point x="852" y="1604"/>
      <point x="829" y="1616" type="curve" smooth="yes"/>
      <point x="731" y="1663"/>
      <point x="629" y="1708"/>
      <point x="518" y="1708" type="curve" smooth="yes"/>
    </contour>
    <contour>
      <point x="141" y="1544"/>
      <point x="141" y="1536"/>
      <point x="145" y="1536" type="curve" smooth="yes"/>
      <point x="149" y="1536"/>
      <point x="149" y="1544"/>
      <point x="145" y="1544" type="curve" smooth="yes"/>
    </contour>
  </outline>
</glyph>
<glyph name="_128" format="1">
  <advance width="1234"/>
  <outline>
    <contour>
      <point x="373" y="1855"/>
      <point x="358" y="1853"/>
      <point x="358" y="1853" type="curve" smooth="yes"/>
      <point x="352" y="1851"/>
      <point x="309" y="1829"/>
      <point x="303" y="1827" type="curve" smooth="yes"/>
      <point x="231" y="1798"/>
      <point x="152" y="1782"/>
      <point x="78" y="1755" type="curve"/>
      <point x="68" y="1743"/>
      <point x="68" y="1730"/>
      <point x="68" y="1716" type="curve" smooth="yes"/>
      <point x="68" y="1665"/>
      <point x="182" y="1646"/>
      <point x="213" y="1599" type="curve"/>
      <point x="213" y="1407" type="line" smooth="yes"/>
      <point x="213" y="1202"/>
      <point x="211" y="1000"/>
      <point x="205" y="797" type="curve" smooth="yes"/>
      <point x="199" y="633"/>
      <point x="186" y="471"/>
      <point x="186" y="309" type="curve" smooth="yes"/>
      <point x="186" y="297"/>
      <point x="185" y="291"/>
      <point x="195" y="281" type="curve"/>
      <point x="224" y="265"/>
      <point x="354" y="200"/>
      <point x="385" y="190" type="curve" smooth="yes"/>
      <point x="408" y="182"/>
      <point x="520" y="158"/>
      <point x="547" y="154" type="curve" smooth="yes"/>
      <point x="551" y="154"/>
      <point x="611" y="152"/>
      <point x="631" y="152" type="curve" smooth="yes"/>
      <point x="801" y="152"/>
      <point x="957" y="232"/>
      <point x="1055" y="371" type="curve" smooth="yes"/>
      <point x="1069" y="391"/>
      <point x="1114" y="461"/>
      <point x="1118" y="471" type="curve" smooth="yes"/>
      <point x="1120" y="479"/>
      <point x="1147" y="561"/>
      <point x="1153" y="588" type="curve" smooth="yes"/>
      <point x="1169" y="645"/>
      <point x="1163" y="703"/>
      <point x="1163" y="762" type="curve" smooth="yes"/>
      <point x="1163" y="858" type="line" smooth="yes"/>
      <point x="1161" y="872"/>
      <point x="1143" y="949"/>
      <point x="1135" y="967" type="curve" smooth="yes"/>
      <point x="1102" y="1059"/>
      <point x="1041" y="1151"/>
      <point x="965" y="1212" type="curve"/>
      <point x="959" y="1214"/>
      <point x="915" y="1235"/>
      <point x="909" y="1239" type="curve" smooth="yes"/>
      <point x="889" y="1249"/>
      <point x="871" y="1264"/>
      <point x="846" y="1266" type="curve" smooth="yes"/>
      <point x="838" y="1268"/>
      <point x="764" y="1274"/>
      <point x="756" y="1276" type="curve" smooth="yes"/>
      <point x="721" y="1276" type="line" smooth="yes"/>
      <point x="672" y="1276"/>
      <point x="637" y="1253"/>
      <point x="594" y="1239" type="curve" smooth="yes"/>
      <point x="575" y="1239" type="line" smooth="yes"/>
      <point x="573" y="1239"/>
      <point x="559" y="1233"/>
      <point x="557" y="1229" type="curve"/>
      <point x="545" y="1223"/>
      <point x="450" y="1155"/>
      <point x="438" y="1149" type="curve"/>
      <point x="432" y="1143"/>
      <point x="426" y="1139"/>
      <point x="416" y="1139" type="curve" smooth="yes"/>
      <point x="410" y="1139"/>
      <point x="407" y="1141"/>
      <point x="403" y="1149" type="curve" smooth="yes"/>
      <point x="403" y="1184" type="line" smooth="yes"/>
      <point x="403" y="1258"/>
      <point x="412" y="1329"/>
      <point x="412" y="1403" type="curve" smooth="yes"/>
      <point x="412" y="1426"/>
      <point x="403" y="1445"/>
      <point x="403" y="1468" type="curve" smooth="yes"/>
      <point x="403" y="1475" type="line" smooth="yes"/>
      <point x="403" y="1479"/>
      <point x="412" y="1522"/>
      <point x="412" y="1528" type="curve" smooth="yes"/>
      <point x="412" y="1647" type="line" smooth="yes"/>
      <point x="412" y="1663"/>
      <point x="420" y="1809"/>
      <point x="422" y="1827" type="curve"/>
      <point x="422" y="1837" type="line" smooth="yes"/>
      <point x="422" y="1857"/>
      <point x="391" y="1855"/>
      <point x="379" y="1855" type="curve" smooth="yes"/>
    </contour>
    <contour>
      <point x="383" y="293"/>
      <point x="377" y="293"/>
      <point x="377" y="299" type="curve"/>
      <point x="375" y="303"/>
      <point x="387" y="303"/>
      <point x="385" y="299" type="curve" smooth="yes"/>
    </contour>
    <contour>
      <point x="336" y="449"/>
      <point x="309" y="449"/>
      <point x="303" y="449" type="curve"/>
      <point x="303" y="461" type="line"/>
      <point x="340" y="461" type="line"/>
    </contour>
    <contour>
      <point x="662" y="1096"/>
      <point x="709" y="1097"/>
      <point x="748" y="1085" type="curve" smooth="yes"/>
      <point x="916" y="1024"/>
      <point x="983" y="817"/>
      <point x="983" y="653" type="curve" smooth="yes"/>
      <point x="983" y="598"/>
      <point x="977" y="546"/>
      <point x="965" y="487" type="curve" smooth="yes"/>
      <point x="955" y="444"/>
      <point x="920" y="393"/>
      <point x="891" y="362" type="curve"/>
      <point x="825" y="284"/>
      <point x="774" y="252"/>
      <point x="672" y="252" type="curve" smooth="yes"/>
      <point x="549" y="252"/>
      <point x="403" y="332"/>
      <point x="403" y="471" type="curve" smooth="yes"/>
      <point x="403" y="1004" type="line" smooth="yes"/>
      <point x="403" y="1043"/>
      <point x="516" y="1088"/>
      <point x="547" y="1094" type="curve"/>
      <point x="559" y="1094"/>
      <point x="613" y="1096"/>
      <point x="625" y="1096" type="curve" smooth="yes"/>
    </contour>
    <contour>
      <point x="381" y="1217"/>
      <point x="381" y="1206"/>
      <point x="377" y="1206" type="curve" smooth="yes"/>
      <point x="371" y="1206"/>
      <point x="371" y="1217"/>
      <point x="377" y="1217" type="curve" smooth="yes"/>
    </contour>
    <contour>
      <point x="326" y="1370"/>
      <point x="326" y="1360"/>
      <point x="322" y="1360" type="curve" smooth="yes"/>
      <point x="318" y="1360"/>
      <point x="318" y="1370"/>
      <point x="322" y="1370" type="curve" smooth="yes"/>
    </contour>
    <contour>
      <point x="696" y="1153"/>
      <point x="696" y="1143"/>
      <point x="692" y="1143" type="curve" smooth="yes"/>
      <point x="688" y="1143"/>
      <point x="688" y="1153"/>
      <point x="692" y="1153" type="curve" smooth="yes"/>
    </contour>
    <contour>
      <point x="317" y="1677"/>
      <point x="317" y="1669"/>
      <point x="313" y="1669" type="curve" smooth="yes"/>
      <point x="307" y="1669"/>
      <point x="307" y="1677"/>
      <point x="313" y="1677" type="curve" smooth="yes"/>
    </contour>
    <contour>
      <point x="1032" y="981"/>
      <point x="1032" y="973"/>
      <point x="1026" y="973" type="curve" smooth="yes"/>
      <point x="1022" y="973"/>
      <point x="1022" y="981"/>
      <point x="1026" y="981" type="curve" smooth="yes"/>
    </contour>
  </outline>
</glyph>
